<?xml version="1.0" standalone="no"?>
<!DOCTYPE svg PUBLIC "-//W3C//DTD SVG 20010904//EN"
 "http://www.w3.org/TR/2001/REC-SVG-20010904/DTD/svg10.dtd">
<svg version="1.0" xmlns="http://www.w3.org/2000/svg"
 width="98.000000pt" height="98.000000pt" viewBox="0 0 98.000000 98.000000"
 preserveAspectRatio="xMidYMid meet">
<metadata>
Created by potrace 1.11, written by Peter Selinger 2001-2013
</metadata>
<g transform="translate(0.000000,98.000000) scale(0.100000,-0.100000)"
fill="#000000" stroke="none">
<path d="M14 959 c-9 -16 -11 -912 -1 -926 6 -10 113 -13 477 -13 l469 0 5
103 c3 56 8 155 12 220 4 84 2 122 -6 132 -9 11 -9 23 1 52 9 27 9 38 0 41
-14 5 -15 52 0 52 10 0 7 155 -6 288 l-7 62 -468 0 c-329 0 -471 -3 -476 -11z
m304 -66 c-16 -2 -40 -2 -55 0 -16 2 -3 4 27 4 30 0 43 -2 28 -4z m-245 -270
c-7 -2 -14 -21 -14 -41 -2 -32 -3 -33 -6 -9 -5 35 2 57 19 56 10 0 10 -2 1 -6z
m35 -44 c-3 -33 -4 -33 -8 8 -3 23 -2 39 3 34 5 -5 7 -24 5 -42z m105 10 c-3
-54 -13 -64 -13 -12 0 32 6 53 14 53 1 0 1 -19 -1 -41z m70 2 c-2 -31 1 -41
15 -44 13 -4 11 -5 -5 -6 -20 -1 -23 4 -23 37 0 32 6 52 15 52 1 0 0 -18 -2
-39z m265 28 c-26 -15 -23 -58 5 -69 13 -5 16 -9 7 -9 -22 -1 -40 19 -40 44 0
23 17 45 35 45 5 0 2 -5 -7 -11z m220 -35 c3 -41 2 -42 -32 -46 -37 -4 -43 0
-27 18 5 5 11 18 14 29 2 11 3 8 2 -7 -1 -21 3 -28 17 -28 25 0 26 66 1 74
-14 4 -14 4 2 3 16 -2 21 -11 23 -43z m152 36 c0 -5 -7 -7 -15 -4 -8 4 -15 8
-15 10 0 2 7 4 15 4 8 0 15 -4 15 -10z m-488 -54 c-6 -11 -20 20 -21 44 0 8 5
4 13 -10 7 -14 10 -29 8 -34z m185 2 c-2 -13 -4 -5 -4 17 -1 22 1 32 4 23 2
-10 2 -28 0 -40z m86 37 c-3 -9 -8 -14 -10 -11 -3 3 -2 9 2 15 9 16 15 13 8
-4z m113 -24 c13 11 14 9 3 -14 -18 -39 -29 -33 -28 16 2 30 3 34 6 14 4 -24
7 -26 19 -16z m34 -3 c0 -49 -5 -47 -13 5 -3 20 -2 37 4 37 5 0 9 -19 9 -42z
m38 -20 c-12 -25 -13 -23 -14 23 -1 37 -1 39 11 17 7 -14 9 -30 3 -40z m-726
24 c-18 -6 -14 -30 6 -35 13 -4 11 -5 -5 -6 -19 -1 -23 4 -23 29 0 24 3 28 17
23 11 -4 12 -8 5 -11z m190 -24 c-6 -6 -7 0 -4 19 5 21 7 23 10 9 2 -10 0 -22
-6 -28z m47 -1 c1 -5 -3 -5 -9 -2 -5 3 -10 16 -9 28 0 21 1 21 9 2 5 -11 9
-24 9 -28z m528 23 c1 -11 -2 -22 -6 -25 -7 -3 -8 31 -2 43 3 7 7 0 8 -18z
m-237 -9 c0 -5 -6 -14 -14 -20 -12 -10 -13 -8 -9 8 5 21 23 30 23 12z m-495
-137 c20 -20 16 -53 -7 -68 -39 -24 -76 35 -43 68 21 20 29 20 50 0z m164 2
c7 -8 11 -27 9 -43 -2 -22 -9 -29 -31 -31 -18 -2 -29 2 -33 12 -7 18 -25 22
-21 5 1 -6 -4 -14 -10 -16 -9 -3 -13 7 -14 34 l-1 38 -11 -32 c-7 -18 -15 -33
-19 -33 -10 0 -11 5 -3 40 5 23 12 30 30 30 12 0 25 -7 29 -15 5 -13 9 -12 26
5 24 24 33 25 49 6z m241 4 c12 -8 11 -10 -7 -10 -18 0 -23 -6 -23 -25 0 -18
5 -25 20 -25 11 0 20 -4 20 -10 0 -18 -49 -11 -60 9 -14 27 -13 37 6 55 18 18
24 19 44 6z m-520 -17 c1 -17 1 -17 14 0 18 23 29 22 21 -3 -3 -10 -1 -28 5
-40 14 -26 -7 -28 -26 -2 -13 16 -13 16 -14 0 0 -10 -7 -18 -15 -18 -11 0 -15
11 -15 40 0 29 4 40 15 40 8 0 15 -8 15 -17z m368 5 c9 -9 12 -9 12 0 0 16 30
16 31 0 0 -10 2 -10 6 0 2 6 11 12 19 12 10 0 14 -12 14 -40 0 -22 -4 -40 -10
-40 -5 0 -10 5 -10 12 0 9 -3 9 -12 0 -20 -20 -36 -14 -40 14 l-3 26 -29 -26
c-33 -31 -40 -28 -41 20 0 30 3 34 26 34 14 0 30 -5 37 -12z m273 0 c0 -10 2
-10 6 0 2 6 11 12 19 12 10 0 14 -12 14 -40 0 -22 -4 -40 -10 -40 -5 0 -10 5
-10 12 0 9 -3 9 -12 0 -23 -23 -38 -13 -38 24 0 45 -24 42 -28 -4 -4 -39 -22
-43 -22 -4 0 15 -5 33 -12 40 -9 9 0 12 40 12 35 0 52 -4 53 -12z m79 -5 c1
-17 1 -17 14 0 18 23 29 22 21 -3 -3 -11 -2 -28 4 -37 8 -15 10 -11 11 20 0
26 4 37 15 37 8 0 15 -6 16 -12 0 -10 2 -10 6 0 2 6 11 12 19 12 10 0 14 -12
14 -40 0 -38 -19 -58 -21 -22 -1 16 -2 16 -6 0 -3 -12 -14 -18 -35 -18 -18 0
-37 8 -44 18 -13 16 -13 16 -14 0 0 -10 -7 -18 -15 -18 -11 0 -14 10 -13 40 1
26 6 40 15 40 7 0 13 -8 13 -17z"/>
<path d="M160 400 c0 -16 5 -30 10 -30 6 0 10 14 10 30 0 17 -4 30 -10 30 -5
0 -10 -13 -10 -30z"/>
<path d="M324 416 c-8 -21 3 -49 16 -41 5 3 10 15 10 25 0 25 -18 36 -26 16z"/>
<path d="M410 414 c0 -8 5 -12 10 -9 6 4 8 11 5 16 -9 14 -15 11 -15 -7z"/>
</g>
</svg>
