<?xml version="1.0" standalone="no"?>
<!DOCTYPE svg PUBLIC "-//W3C//DTD SVG 1.1//EN" "http://www.w3.org/Graphics/SVG/1.1/DTD/svg11.dtd" >
<svg xmlns="http://www.w3.org/2000/svg" xmlns:xlink="http://www.w3.org/1999/xlink" version="1.1">
<metadata>
Created by FontForge 20161013 at Tue May 24 16:15:36 2016
 By ,,,
Copyright (c) 2016 by Alberto Romanos. All rights reserved.
</metadata>
<defs>
<font id="BwSurcoDEMO-BookItalic" horiz-adv-x="524" >
  <font-face 
    font-family="Bw Surco DEMO Book"
    font-weight="300"
    font-style="italic"
    font-stretch="normal"
    units-per-em="1000"
    panose-1="0 0 4 0 0 0 0 0 0 0"
    ascent="770"
    descent="-230"
    x-height="493"
    cap-height="720"
    bbox="-633 -241 1220 1016"
    underline-thickness="50"
    underline-position="-200"
    slope="-8"
    unicode-range="U+000D-FB02"
  />
<missing-glyph horiz-adv-x="1274" 
d="M1214 369l-368 -372q-7 -7 -17 -7q-20 0 -20 23v324l-339 -340q-7 -7 -17 -7q-20 0 -20 23v324l-340 -340q-7 -7 -17 -7q-17 0 -17 18q0 10 5 15l342 341h-324q-23 0 -23 19q0 8 7 16l340 342h-327q-20 0 -20 19v1q0 19 20 19h370q23 0 23 -20q0 -9 -8 -17l-341 -340h330
q8 0 14 -6t6 -14v-327l339 338q9 8 17 8q18 0 18 -22v-324l340 338q8 8 16 8q7 0 12 -5.5t5 -13.5q0 -7 -6 -14z" />
    <glyph glyph-name="fi" unicode="fi" horiz-adv-x="528" 
d="M487 493l-62 -447q-1 -8 -1 -17q0 -17 5 -29q-19 -10 -41 -10q-26 0 -26 34q0 5 1 12l56 408h-233l-74 -531q-16 -114 -104 -152l-20 44q52 29 65 120l72 519h-74l7 49h74l18 132q10 74 51 114.5t104 40.5q57 0 98 -18l-14 -49q-30 15 -71 15q-91 0 -109 -122l-16 -113
h294zM480 678q37 0 37 -34q0 -44 -43 -44q-37 0 -37 34q0 44 43 44z" />
    <glyph glyph-name="fl" unicode="fl" horiz-adv-x="554" 
d="M532 736l-90 -651q-3 -18 -3 -22q0 -21 19 -21q18 0 37 8l5 -43q-24 -17 -61 -17q-30 0 -46.5 15.5t-16.5 43.5q0 6 3 24l52 371h-245l-74 -531q-16 -114 -104 -152l-20 44q52 29 65 120l72 519h-74l7 49h74l18 132q10 74 51 114.5t104 40.5q58 0 97 -19l-14 -48
q-33 15 -72 15q-89 0 -107 -122l-16 -113h245l39 278q15 9 31 9q25 0 25 -31q0 -5 -1 -13z" />
    <glyph glyph-name="f_f" unicode="ff" horiz-adv-x="614" 
d="M601 728q-45 0 -73 -32t-36 -90l-16 -113h155l-7 -49h-155l-74 -531q-16 -114 -104 -152l-20 44q52 29 65 120l72 519h-222l-74 -531q-16 -114 -104 -152l-20 44q52 29 65 120l72 519h-74l7 49h74l18 132q10 74 51 114.5t104 40.5q58 0 97 -19l-14 -48q-33 15 -72 15
q-89 0 -107 -122l-16 -113h222l18 132q10 74 51 114.5t104 40.5q58 0 101 -20l-14 -48q-33 16 -74 16z" />
    <glyph glyph-name="f_f_i" unicode="ffi" horiz-adv-x="811" 
d="M769 493l-62 -447q-1 -8 -1 -17q0 -17 5 -29q-19 -10 -41 -10q-26 0 -26 34q0 5 1 12l56 408h-232l-74 -531q-16 -114 -104 -152l-20 44q52 29 65 120l72 519h-222l-74 -531q-16 -114 -104 -152l-20 44q52 29 65 120l72 519h-74l7 49h74l18 132q10 74 51 114.5t104 40.5
q58 0 97 -19l-14 -48q-33 15 -72 15q-89 0 -107 -122l-16 -113h222l18 132q10 74 50.5 114.5t103.5 40.5q59 0 99 -18l-14 -49q-30 15 -71 15q-45 0 -73.5 -32t-36.5 -90l-16 -113h294zM762 678q37 0 37 -34q0 -44 -43 -44q-37 0 -37 34q0 44 43 44z" />
    <glyph glyph-name="f_f_l" unicode="ffl" horiz-adv-x="836" 
d="M815 736l-90 -651q-3 -18 -3 -22q0 -21 19 -21q18 0 37 8l5 -43q-24 -17 -61 -17q-30 0 -46.5 15.5t-16.5 43.5q0 6 3 24l52 371h-245l-74 -531q-16 -114 -104 -152l-20 44q51 28 64 120l73 519h-222l-74 -531q-16 -114 -104 -152l-20 44q52 29 65 120l72 519h-74l7 49
h74l18 132q10 74 51 114.5t104 40.5q58 0 97 -19l-14 -48q-33 15 -72 15q-89 0 -107 -122l-16 -113h222l18 132q10 74 50.5 114.5t103.5 40.5q59 0 98 -19l-14 -48q-33 15 -72 15q-44 0 -72 -32t-36 -90l-16 -113h246l39 278q15 9 31 9q25 0 25 -31q0 -5 -1 -13z" />
    <glyph glyph-name=".notdef" horiz-adv-x="1274" 
d="M1214 369l-368 -372q-7 -7 -17 -7q-20 0 -20 23v324l-339 -340q-7 -7 -17 -7q-20 0 -20 23v324l-340 -340q-7 -7 -17 -7q-17 0 -17 18q0 10 5 15l342 341h-324q-23 0 -23 19q0 8 7 16l340 342h-327q-20 0 -20 19v1q0 19 20 19h370q23 0 23 -20q0 -9 -8 -17l-341 -340h330
q8 0 14 -6t6 -14v-327l339 338q9 8 17 8q18 0 18 -22v-324l340 338q8 8 16 8q7 0 12 -5.5t5 -13.5q0 -7 -6 -14z" />
    <glyph glyph-name=".null" horiz-adv-x="0" 
 />
    <glyph glyph-name="nonmarkingreturn" horiz-adv-x="333" 
 />
    <glyph glyph-name="CR" unicode="&#xd;" horiz-adv-x="226" 
 />
    <glyph glyph-name="space" unicode=" " horiz-adv-x="226" 
 />
    <glyph glyph-name="exclam" unicode="!" horiz-adv-x="230" 
d="M132 178l80 542h-64l-71 -542h55zM80 -10q-40 0 -40 37q0 23 12.5 36t35.5 13q39 0 39 -37q0 -49 -47 -49z" />
    <glyph glyph-name="quotedbl" unicode="&#x22;" horiz-adv-x="280" 
d="M127 770h64l-34 -173h-45zM232 770h64l-34 -173h-45z" />
    <glyph glyph-name="numbersign" unicode="#" horiz-adv-x="578" 
d="M550 406h-89l-46 -192h91l-13 -49h-89l-39 -165h-62l39 165h-160l-38 -165h-62l40 165h-91l13 49h89l47 192h-92l14 48h89l36 149h61l-35 -149h157l35 149h62l-35 -149h92zM353 214l46 192h-158l-48 -192h160z" />
    <glyph glyph-name="dollar" unicode="$" horiz-adv-x="431" 
d="M382 533q-47 28 -98 31l-33 -236q30 -13 48.5 -24t39.5 -28.5t31 -41.5t10 -54q0 -81 -48 -131.5t-129 -57.5l-14 -101h-38l14 100q-103 3 -153 46l22 39q48 -35 138 -37l34 245q-61 28 -91.5 60t-30.5 88q0 78 45.5 126.5t123.5 54.5l15 108h38l-15 -107q67 -4 120 -39z
M142 443q0 -63 73 -100l31 221q-48 -6 -76 -38.5t-28 -82.5zM323 168q0 35 -20 57.5t-61 42.5l-32 -228q52 8 82.5 42.5t30.5 85.5z" />
    <glyph glyph-name="percent" unicode="%" horiz-adv-x="603" 
d="M61 16l460 597l34 -26l-460 -597zM168 301q-46 0 -70.5 30.5t-24.5 86.5q0 80 35 137.5t98 57.5q45 0 69.5 -31t24.5 -88q0 -79 -35 -136t-97 -57zM169 341q39 0 61.5 48t22.5 106q0 77 -51 77q-39 0 -61 -48.5t-22 -104.5q0 -78 50 -78zM412 -10q-46 0 -70.5 30.5
t-24.5 86.5q0 80 35 137t98 57q45 0 69.5 -31t24.5 -87q0 -79 -35 -136t-97 -57zM414 30q39 0 61.5 48t22.5 106q0 77 -51 77q-39 0 -61 -48.5t-22 -104.5q0 -78 50 -78z" />
    <glyph glyph-name="ampersand" unicode="&#x26;" horiz-adv-x="584" 
d="M545 405q-54 -173 -125 -271q52 -65 108 -128q-14 -16 -39 -16q-32 0 -57 30q-36 44 -52 65q-92 -95 -213 -95q-65 0 -100.5 31.5t-35.5 89.5q0 71 41 152.5t104 149.5q-24 66 -24 120q0 91 55 144t148 53q106 0 179 -84l-29 -44q-57 71 -147 71q-66 0 -104 -38t-38 -104
q0 -131 172 -356q60 90 105 248zM178 44q97 0 171 81q-100 132 -148 230q-47 -57 -77.5 -122.5t-30.5 -115.5q0 -73 85 -73z" />
    <glyph glyph-name="quotesingle" unicode="'" horiz-adv-x="174" 
d="M127 770h64l-34 -173h-45z" />
    <glyph glyph-name="parenleft" unicode="(" horiz-adv-x="254" 
d="M154 -215q-46 139 -46 308q0 173 47.5 347.5t134.5 320.5l-49 19q-97 -154 -148 -331t-51 -355q0 -175 54 -334z" />
    <glyph glyph-name="parenright" unicode=")" horiz-adv-x="254" 
d="M106 755q46 -139 46 -308q0 -173 -47.5 -347.5t-134.5 -320.5l49 -19q97 154 148 331t51 355q0 175 -54 334z" />
    <glyph glyph-name="asterisk" unicode="*" horiz-adv-x="346" 
d="M351 654l-101 -30l49 -85l-42 -28l-40 90l-67 -88l-32 27l75 86l-89 29l20 44l85 -37l11 108h45l-20 -109l98 37z" />
    <glyph glyph-name="plus" unicode="+" horiz-adv-x="428" 
d="M385 276l-6 -48h-138l-22 -161h-62l23 161h-137l7 48h136l23 161h61l-22 -161h137z" />
    <glyph glyph-name="comma" unicode="," horiz-adv-x="206" 
d="M80 76q38 0 38 -51q0 -84 -88 -140l-13 25q55 34 65 83q-10 -3 -20 -3q-31 0 -31 33q0 24 12.5 38.5t36.5 14.5z" />
    <glyph glyph-name="hyphen" unicode="-" horiz-adv-x="365" 
d="M70 276h233l-8 -51h-232z" />
    <glyph glyph-name="period" unicode="." horiz-adv-x="206" 
d="M72 -10q-40 0 -40 37q0 23 12.5 36t35.5 13q39 0 39 -37q0 -49 -47 -49z" />
    <glyph glyph-name="slash" unicode="/" horiz-adv-x="351" 
d="M342 780l46 -18l-355 -882l-46 18z" />
    <glyph glyph-name="zero" unicode="0" horiz-adv-x="538" 
d="M235 -10q-86 0 -132.5 60t-46.5 170q0 102 28 189t88.5 145.5t144.5 58.5q87 0 133.5 -60.5t46.5 -169.5q0 -102 -28 -189t-89 -145.5t-145 -58.5zM238 42q63 0 109.5 54t67 129t20.5 157q0 86 -31.5 132.5t-90.5 46.5q-63 0 -109.5 -54.5t-66.5 -129.5t-20 -157
q0 -85 31.5 -131.5t89.5 -46.5z" />
    <glyph glyph-name="one" unicode="1" horiz-adv-x="293" 
d="M259 603l-85 -603h-61l74 532l-112 -60l-18 48l152 83h50z" />
    <glyph glyph-name="two" unicode="2" horiz-adv-x="473" 
d="M247 224q-51 -34 -79 -55t-56 -54t-34 -66h322l-7 -49h-385l5 36q5 36 22.5 67.5t51 62.5t56 48t68.5 49q95 66 125 99q51 55 51 113q0 41 -26 63.5t-72 22.5q-91 0 -170 -74l-20 44q91 82 198 82q72 0 111.5 -35.5t39.5 -99.5q0 -35 -12.5 -67t-27.5 -54t-47.5 -49.5
t-52 -41.5t-61.5 -42z" />
    <glyph glyph-name="three" unicode="3" horiz-adv-x="480" 
d="M458 603l-6 -39l-242 -245q205 -66 205 -204q0 -105 -68.5 -170t-178.5 -65t-179 70l28 40q57 -58 153 -58q83 0 133.5 51.5t50.5 130.5q0 65 -55.5 104.5t-180.5 75.5l254 260h-261l7 49h340z" />
    <glyph glyph-name="four" unicode="4" horiz-adv-x="487" 
d="M441 49l-6 -49h-86l-16 -110h-61l16 110h-299l5 37l330 576l53 -15l-318 -549h238l26 189l63 25l-30 -214h85z" />
    <glyph glyph-name="five" unicode="5" horiz-adv-x="492" 
d="M450 554h-244l-57 -231l100 -4q87 -4 134 -49t47 -125q0 -120 -68 -192.5t-185 -72.5q-116 0 -187 74l34 41q62 -63 154 -63q88 0 139 58.5t51 148.5q0 61 -34 96t-96 36l-162 4l79 328h302z" />
    <glyph glyph-name="six" unicode="6" horiz-adv-x="512" 
d="M362 678q-88 0 -145.5 -81t-81.5 -204q72 50 155 50t128.5 -45t45.5 -128q0 -119 -63.5 -199.5t-171.5 -80.5q-82 0 -125.5 65t-43.5 185q0 90 19 175.5t55 156.5t94.5 114.5t131.5 43.5q89 0 152 -52l-26 -45q-48 45 -124 45zM278 394q-78 0 -151 -52q-7 -49 -7 -104
q0 -94 29 -145t83 -51q79 0 125 67t46 156q0 62 -32.5 95.5t-92.5 33.5z" />
    <glyph glyph-name="seven" unicode="7" horiz-adv-x="454" 
d="M476 603l-5 -39l-379 -703l-55 18l363 675h-327l7 49h396z" />
    <glyph glyph-name="eight" unicode="8" 
d="M372 376q96 -37 96 -149q0 -107 -65 -172t-175 -65q-90 0 -139 43.5t-49 122.5q0 82 39.5 140t109.5 81q-77 35 -77 133q0 99 58 159.5t158 60.5q80 0 124 -40t44 -113t-32.5 -125.5t-91.5 -75.5zM323 678q-71 0 -111 -47t-40 -121q0 -53 28.5 -82t81.5 -29q71 0 111 48
t40 122q0 53 -28.5 81t-81.5 28zM233 42q81 0 127.5 51.5t46.5 133.5q0 59 -33.5 91.5t-95.5 32.5q-81 0 -127.5 -52.5t-46.5 -133.5q0 -59 33.5 -91t95.5 -32z" />
    <glyph glyph-name="nine" unicode="9" horiz-adv-x="511" 
d="M297 613q82 0 126 -64t44 -182q0 -121 -32 -229.5t-102 -183t-166 -74.5q-89 0 -152 52l26 45q45 -45 125 -45q88 0 145 80.5t81 203.5q-73 -49 -154 -49q-85 0 -130.5 45t-45.5 127q0 117 64 195.5t171 78.5zM249 216q78 0 151 52q6 51 6 101q0 92 -29 142t-84 50
q-78 0 -123.5 -65.5t-45.5 -153.5q0 -60 32.5 -93t92.5 -33z" />
    <glyph glyph-name="colon" unicode=":" horiz-adv-x="217" 
d="M135 417q-40 0 -40 37q0 23 12.5 36t35.5 13q39 0 39 -37q0 -49 -47 -49zM75 -10q-40 0 -40 37q0 23 12.5 36t35.5 13q39 0 39 -37q0 -49 -47 -49z" />
    <glyph glyph-name="semicolon" unicode=";" horiz-adv-x="220" 
d="M135 417q-40 0 -40 37q0 23 12.5 36t35.5 13q39 0 39 -37q0 -49 -47 -49zM83 76q38 0 38 -51q0 -84 -88 -140l-13 25q55 34 65 83q-11 -3 -20 -3q-31 0 -31 33q0 24 12.5 38.5t36.5 14.5z" />
    <glyph glyph-name="less" unicode="&#x3c;" horiz-adv-x="443" 
d="M405 448l-7 -51l-307 -145l266 -143l-7 -51l-312 170l4 32h1l2 17z" />
    <glyph glyph-name="equal" unicode="=" horiz-adv-x="475" 
d="M83 341h335l-6 -48h-336zM64 211h335l-6 -48h-336z" />
    <glyph glyph-name="greater" unicode="&#x3e;" horiz-adv-x="443" 
d="M405 277l-2 -18l-4 -31l-360 -170l7 51l307 144l-267 144l7 51z" />
    <glyph glyph-name="question" unicode="?" horiz-adv-x="409" 
d="M83 648q84 82 180 82q73 0 113 -37.5t40 -104.5q0 -70 -31 -122t-92 -115q-33 -34 -49.5 -53.5t-34.5 -53t-23 -68.5l-56 3q5 35 16.5 65t30.5 57.5t33 44t39 43.5q50 52 75 95.5t25 96.5q0 44 -24.5 68t-69.5 24q-81 0 -152 -73zM134 -10q-40 0 -40 37q0 23 12.5 36
t35.5 13q39 0 39 -37q0 -49 -47 -49z" />
    <glyph glyph-name="at" unicode="@" horiz-adv-x="939" 
d="M540 780q172 0 265.5 -100.5t93.5 -282.5q0 -97 -20.5 -172t-68 -122t-116.5 -47q-57 0 -92 31.5t-45 88.5q-24 -57 -67.5 -88.5t-97.5 -31.5t-82.5 39.5t-28.5 110.5q0 120 57.5 199.5t156.5 79.5q68 0 150 -11l-29 -205q-3 -20 -3 -45q0 -118 85 -118q49 0 81.5 44
t45.5 106t13 137q0 161 -78 249t-222 88q-133 0 -232.5 -78.5t-149.5 -207t-50 -286.5q0 -166 77.5 -257t220.5 -91q122 0 228 69l18 -49q-115 -70 -247 -70q-171 0 -264 103t-93 291q0 177 57.5 318t171 224.5t265.5 83.5zM407 106q60 0 100.5 46t51.5 126l21 153
q-60 4 -86 4q-71 0 -112.5 -67t-41.5 -159q0 -49 17.5 -76t49.5 -27z" />
    <glyph glyph-name="A" unicode="A" horiz-adv-x="574" 
d="M449 0l-31 192h-282l-84 -192h-67l332 723q17 7 34 7q37 0 44 -40l123 -690h-69zM160 246h249l-67 417z" />
    <glyph glyph-name="B" unicode="B" horiz-adv-x="548" 
d="M377 383q117 -34 117 -154q0 -109 -74 -174t-194 -65q-74 0 -172 10l101 720q114 10 163 10q95 0 147 -39.5t52 -112.5q0 -71 -37 -121t-103 -74zM449 567q0 51 -38 80t-105 29q-28 0 -94 -4l-38 -266h92q82 0 132.5 43t50.5 118zM235 44q87 0 140 48t53 129
q0 62 -38.5 96.5t-109.5 34.5h-113l-43 -304q74 -4 111 -4z" />
    <glyph glyph-name="C" unicode="C" horiz-adv-x="547" 
d="M497 53q-90 -63 -212 -63q-107 0 -164.5 68.5t-57.5 201.5q0 92 19.5 174.5t57.5 149.5t100 106.5t141 39.5q125 0 174 -108l-62 -24q-31 75 -115 75q-78 0 -136.5 -62t-85.5 -152t-27 -189q0 -103 40 -163t118 -60q114 0 186 58z" />
    <glyph glyph-name="D" unicode="D" horiz-adv-x="612" 
d="M308 730q131 0 202 -75.5t71 -212.5q0 -127 -42.5 -228t-128 -162.5t-201.5 -61.5q-67 0 -155 10l101 720q95 10 153 10zM214 44q95 0 165 56t103.5 144t33.5 194q0 113 -55 175.5t-156 62.5q-39 0 -93 -6l-87 -621q40 -5 89 -5z" />
    <glyph glyph-name="E" unicode="E" horiz-adv-x="495" 
d="M494 666h-283l-37 -266h253l-8 -54h-252l-41 -292h294l-8 -54h-358l101 720h348z" />
    <glyph glyph-name="F" unicode="F" horiz-adv-x="455" 
d="M478 666h-267l-40 -289h221l-8 -55h-221l-45 -322h-64l101 720h333z" />
    <glyph glyph-name="G" unicode="G" horiz-adv-x="606" 
d="M518 46q-1 -8 -1 -17q0 -17 5 -29q-20 -10 -42 -10q-27 0 -27 34q0 8 1 15l11 86q-33 -66 -82.5 -100.5t-105.5 -34.5q-103 0 -159 68t-56 200q0 94 20 177t59 150t103 106t145 39q125 0 174 -108l-61 -24q-32 75 -119 75q-80 0 -140 -61.5t-87.5 -151t-27.5 -190.5
q0 -104 40.5 -163.5t121.5 -59.5q66 0 122 55t70 152l11 77h-165l8 54h229z" />
    <glyph glyph-name="H" unicode="H" horiz-adv-x="655" 
d="M601 730q28 0 28 -35q0 -6 -1 -14l-96 -681h-63l48 339h-352l-47 -339h-64l102 721q14 9 30 9q28 0 28 -35q0 -6 -1 -14l-40 -288h352l46 328q13 9 30 9z" />
    <glyph glyph-name="I" unicode="I" horiz-adv-x="240" 
d="M117 0h-63l102 721q14 9 30 9q28 0 28 -35q0 -6 -1 -14z" />
    <glyph glyph-name="J" unicode="J" horiz-adv-x="336" 
d="M179 176q-19 -129 -102 -129q-38 0 -70 16l-20 -54q38 -19 93 -19q64 0 106 44.5t53 123.5l74 523q1 8 1 14q0 35 -28 35q-15 0 -30 -9z" />
    <glyph glyph-name="K" unicode="K" horiz-adv-x="546" 
d="M214 695q0 -6 -1 -14l-96 -681h-63l102 721q14 9 30 9q28 0 28 -35zM575 717l-327 -348l261 -365q-17 -14 -40 -14q-37 0 -58 31l-238 343l339 366z" />
    <glyph glyph-name="L" unicode="L" horiz-adv-x="426" 
d="M125 55h255l-8 -55h-318l102 721q14 9 30 9q28 0 28 -35q0 -6 -1 -14z" />
    <glyph glyph-name="M" unicode="M" horiz-adv-x="803" 
d="M697 730q42 0 40 -46l-24 -684h-64l27 625l-278 -625h-66l-107 618l-144 -618h-61l172 723q16 7 33 7q19 0 32 -11t16 -29l107 -623l288 656q13 7 29 7z" />
    <glyph glyph-name="N" unicode="N" horiz-adv-x="656" 
d="M571 720h62l-100 -720h-50l-286 600l-81 -600h-62l102 721q13 9 27 9q23 0 38 -32l269 -576z" />
    <glyph glyph-name="O" unicode="O" horiz-adv-x="674" 
d="M302 -10q-115 0 -177 73.5t-62 207.5q0 123 37 225.5t115.5 168t185.5 65.5q115 0 178 -73.5t63 -207.5q0 -123 -37.5 -225.5t-116.5 -168t-186 -65.5zM306 47q87 0 150 60t92 148.5t29 191.5q0 108 -46 167t-131 59q-87 0 -150 -60t-92 -148.5t-29 -191.5
q0 -108 46 -167t131 -59z" />
    <glyph glyph-name="P" unicode="P" horiz-adv-x="537" 
d="M336 730q100 0 154 -45.5t54 -128.5q0 -119 -75.5 -191.5t-200.5 -72.5q-50 0 -108 5l-42 -297h-64l101 720q115 10 181 10zM278 346q91 0 145 55t54 147q0 61 -40 94.5t-113 33.5q-36 0 -112 -4l-45 -321q57 -5 111 -5z" />
    <glyph glyph-name="Q" unicode="Q" horiz-adv-x="674" 
d="M642 449q0 -117 -33.5 -215t-104.5 -165t-168 -77l17 -59q19 -66 110 -88l-35 -48q-54 15 -90.5 50t-50.5 85l-17 60q-100 10 -153.5 82.5t-53.5 196.5q0 123 37 225.5t115.5 168t185.5 65.5q115 0 178 -73.5t63 -207.5zM306 47q87 0 150 60t92 148.5t29 191.5
q0 108 -46 167t-131 59q-87 0 -150 -60t-92 -148.5t-29 -191.5q0 -108 46 -167t131 -59z" />
    <glyph glyph-name="R" unicode="R" horiz-adv-x="574" 
d="M390 352q116 -31 116 -146q0 -17 -2 -32l-18 -128q-2 -14 -2 -17q0 -12 5 -29q-20 -10 -42 -10q-27 0 -27 34q0 5 1 12l18 130q2 14 2 29q0 59 -37.5 92t-104.5 33h-136l-45 -320h-64l101 720q110 10 171 10q106 0 163 -43t57 -122q0 -78 -41.5 -133t-114.5 -80zM478 554
q0 58 -41.5 90t-119.5 32q-35 0 -105 -4l-42 -298h102q92 0 149 48.5t57 131.5z" />
    <glyph glyph-name="S" unicode="S" horiz-adv-x="493" 
d="M317 730q95 0 172 -64l-33 -50q-62 57 -143 57q-68 0 -107.5 -40t-39.5 -102q0 -27 9 -47.5t28.5 -36.5t36 -25t46.5 -23q35 -16 55.5 -28t45.5 -33.5t37 -51.5t12 -69q0 -103 -62 -165t-167 -62q-126 0 -191 65l26 51q56 -59 165 -59q76 0 120 42.5t44 113.5
q0 28 -9 49.5t-29.5 38t-37.5 26.5t-47 24q-36 17 -55 28t-44.5 32t-37 49.5t-11.5 65.5q0 97 59 155.5t158 58.5z" />
    <glyph glyph-name="T" unicode="T" horiz-adv-x="471" 
d="M514 720l-8 -54h-180l-94 -666h-64l94 666h-183l8 54h427z" />
    <glyph glyph-name="U" unicode="U" horiz-adv-x="626" 
d="M485 267l65 454q12 9 29 9q27 0 27 -35q0 -6 -1 -14l-59 -421q-18 -128 -87.5 -199t-179.5 -71q-96 0 -148 55.5t-52 156.5q0 26 5 61l65 458q14 9 30 9q28 0 28 -35q0 -6 -1 -14l-58 -417q-4 -25 -4 -55q0 -78 35.5 -120t102.5 -42q83 0 135.5 57.5t67.5 162.5z" />
    <glyph glyph-name="V" unicode="V" horiz-adv-x="581" 
d="M559 730l63 -13l-330 -717h-73l-129 719q14 11 34 11q35 0 41 -38l85 -515l17 -113l49 116z" />
    <glyph glyph-name="W" unicode="W" horiz-adv-x="894" 
d="M870 730l62 -13l-291 -717h-74l-64 562l-5 64l-22 -62l-219 -564h-74l-92 719q16 11 35 11q35 0 39 -38l61 -562l6 -73l26 75l223 586v1q14 11 31 11q16 0 28 -10t14 -29l56 -556l6 -75l29 78z" />
    <glyph glyph-name="X" unicode="X" horiz-adv-x="543" 
d="M277 316l-228 -316h-69l269 365l-155 354q14 11 34 11q35 0 49 -34l119 -280l221 314l62 -13l-254 -352l167 -364q-14 -11 -34 -11q-36 0 -51 34z" />
    <glyph glyph-name="Y" unicode="Y" horiz-adv-x="552" 
d="M593 717l-277 -407l-43 -310h-64l44 314l-163 405q14 11 33 11q37 0 50 -34l94 -241l31 -85l50 82l183 278z" />
    <glyph glyph-name="Z" unicode="Z" horiz-adv-x="495" 
d="M495 647l-387 -553l-32 -40h357l-9 -54h-431l6 42l407 582l31 42h-330l8 54h402q5 -12 5 -20q0 -14 -27 -53z" />
    <glyph glyph-name="bracketleft" unicode="[" horiz-adv-x="267" 
d="M299 716h-86l-124 -892h86l-8 -54h-150l141 1000h150z" />
    <glyph glyph-name="backslash" unicode="\" horiz-adv-x="344" 
d="M154 780l109 -893l-51 -7l-109 893z" />
    <glyph glyph-name="bracketright" unicode="]" horiz-adv-x="268" 
d="M256 770l-141 -1000h-150l9 54h86l124 892h-86l8 54h150z" />
    <glyph glyph-name="asciicircum" unicode="^" horiz-adv-x="392" 
d="M366 353h-60l-53 285l-134 -285h-60l181 367h49z" />
    <glyph glyph-name="underscore" unicode="_" horiz-adv-x="505" 
d="M1 -67h416l-7 -43h-416z" />
    <glyph glyph-name="grave" unicode="`" horiz-adv-x="220" 
d="M114 739l153 -107l-15 -36l-165 83z" />
    <glyph glyph-name="a" unicode="a" 
d="M421 50q-2 -16 -2 -21q0 -12 5 -29q-19 -10 -39 -10q-25 0 -25 35q0 6 1 13l11 81q-33 -59 -83 -94t-103 -35q-69 0 -106.5 46.5t-37.5 133.5q0 144 71.5 238.5t201.5 94.5q79 0 169 -10zM202 42q60 0 116 53.5t69 142.5l30 210q-66 4 -98 4q-102 0 -157.5 -75.5
t-55.5 -187.5q0 -70 24.5 -108.5t71.5 -38.5z" />
    <glyph glyph-name="b" unicode="b" horiz-adv-x="525" 
d="M338 503q69 0 107 -47t38 -134q0 -143 -72 -237.5t-201 -94.5q-80 0 -170 10l109 771q15 9 31 9q25 0 25 -31q0 -5 -1 -13l-51 -361q33 58 83 93t102 35zM206 40q102 0 157.5 76t55.5 188q0 70 -24.5 108.5t-72.5 38.5q-60 0 -116.5 -53.5t-69.5 -143.5l-29 -210
q68 -4 99 -4z" />
    <glyph glyph-name="c" unicode="c" horiz-adv-x="444" 
d="M384 44q-69 -54 -166 -54q-84 0 -129 51.5t-45 145.5q0 86 27 156.5t82.5 115t130.5 44.5q47 0 84.5 -25.5t50.5 -76.5l-52 -17q-24 67 -85 67q-84 0 -130 -78t-46 -182q0 -71 31 -110t88 -39q80 0 142 54z" />
    <glyph glyph-name="d" unicode="d" 
d="M519 736l-98 -686q-2 -16 -2 -21q0 -12 5 -29q-19 -10 -39 -10q-25 0 -25 35q0 6 1 13l11 82q-34 -59 -84 -94.5t-103 -35.5q-69 0 -106.5 46.5t-37.5 133.5q0 144 71.5 238.5t201.5 94.5q46 0 111 -5l39 273q16 9 31 9q25 0 25 -31q0 -5 -1 -13zM201 42q60 0 117 53.5
t70 142.5l30 210q-68 4 -100 4q-102 0 -157.5 -75.5t-55.5 -187.5q0 -70 24.5 -108.5t71.5 -38.5z" />
    <glyph glyph-name="e" unicode="e" horiz-adv-x="463" 
d="M211 41q87 0 156 43l19 -44q-78 -50 -180 -50q-79 0 -121.5 48t-42.5 136q0 137 68 233t185 96q66 0 101.5 -33.5t35.5 -94.5q0 -89 -58 -136.5t-155 -47.5q-55 0 -117 15q-1 -10 -1 -30q0 -65 28 -100t82 -35zM284 451q-71 0 -116.5 -57.5t-60.5 -144.5q57 -12 113 -12
q69 0 110 35.5t41 95.5q0 40 -22.5 61.5t-64.5 21.5z" />
    <glyph glyph-name="f" unicode="f" horiz-adv-x="331" 
d="M318 728q-45 0 -73 -32t-36 -90l-16 -113h155l-7 -49h-155l-74 -531q-16 -114 -104 -152l-20 44q52 29 65 120l72 519h-74l7 49h74l18 132q10 74 51 114.5t104 40.5q58 0 101 -20l-14 -48q-33 16 -74 16z" />
    <glyph glyph-name="g" unicode="g" horiz-adv-x="525" 
d="M315 503q80 0 170 -10l-75 -535q-13 -93 -68.5 -145.5t-141.5 -52.5q-106 0 -173 50l34 44q57 -43 142 -43q61 0 99 41t49 118l20 147q-33 -58 -83 -92.5t-102 -34.5q-69 0 -106.5 46.5t-37.5 133.5q0 144 71.5 238.5t201.5 94.5zM388 238l29 210q-66 4 -98 4
q-102 0 -157.5 -75.5t-55.5 -187.5q0 -70 24.5 -108.5t71.5 -38.5q60 0 116.5 53.5t69.5 142.5z" />
    <glyph glyph-name="h" unicode="h" 
d="M464 322l-39 -276q-1 -8 -1 -17q0 -17 5 -29q-20 -10 -41 -10q-26 0 -26 34q0 5 1 12l39 272q3 22 3 41q0 49 -20 75.5t-58 26.5q-74 0 -126.5 -57.5t-66.5 -158.5l-33 -235h-61l109 771q15 9 31 9q25 0 25 -31q0 -5 -1 -13l-50 -359q70 126 189 126q60 0 92.5 -36
t32.5 -100q0 -13 -4 -45z" />
    <glyph glyph-name="i" unicode="i" horiz-adv-x="211" 
d="M156 600q-37 0 -37 34q0 44 43 44q37 0 37 -34q0 -44 -43 -44zM169 493l-62 -447q-1 -8 -1 -17q0 -17 5 -29q-19 -10 -41 -10q-26 0 -26 34q0 5 1 12l63 457h61z" />
    <glyph glyph-name="j" unicode="j" horiz-adv-x="212" 
d="M157 600q-37 0 -37 34q0 44 43 44q37 0 37 -34q0 -44 -43 -44zM-14 -239q88 38 104 152l81 580h-62l-79 -568q-13 -92 -64 -120z" />
    <glyph glyph-name="k" unicode="k" horiz-adv-x="463" 
d="M205 749q0 -5 -1 -13l-103 -736h-61l109 771q15 9 31 9q25 0 25 -31zM467 490l-253 -226l211 -263q-17 -11 -40 -11q-31 0 -56 32l-190 239l269 242z" />
    <glyph glyph-name="l" unicode="l" horiz-adv-x="222" 
d="M108 -10q-30 0 -46.5 15.5t-16.5 43.5q0 6 3 24l98 698q15 9 31 9q25 0 25 -31q0 -5 -1 -13l-90 -651q-3 -18 -3 -22q0 -21 19 -21q18 0 37 8l5 -43q-24 -17 -61 -17z" />
    <glyph glyph-name="m" unicode="m" horiz-adv-x="769" 
d="M707 325l-39 -279q-1 -8 -1 -17q0 -17 5 -29q-19 -10 -40 -10q-27 0 -27 34q0 5 1 12l39 276q3 24 3 44q0 95 -64 95q-63 0 -109 -57.5t-60 -158.5l-33 -235h-61l44 312q3 24 3 44q0 95 -65 95q-64 0 -109.5 -57t-59.5 -159l-33 -235h-61l68 494q16 9 30 9q26 0 26 -34
q0 -6 -1 -14l-9 -72q66 120 171 120q49 0 77 -32.5t30 -89.5q71 122 173 122q51 0 78.5 -35t27.5 -97q0 -12 -4 -46z" />
    <glyph glyph-name="n" unicode="n" 
d="M463 322l-39 -276q-1 -8 -1 -17q0 -17 5 -29q-20 -10 -41 -10q-26 0 -26 34q0 5 1 12l39 272q3 22 3 41q0 49 -20 75.5t-58 26.5q-74 0 -126 -57.5t-66 -158.5l-33 -235h-61l68 494q16 9 30 9q26 0 26 -34q0 -6 -1 -14l-9 -77q70 125 188 125q60 0 92.5 -36t32.5 -100
q0 -13 -4 -45z" />
    <glyph glyph-name="o" unicode="o" 
d="M227 -10q-89 0 -136 52t-47 148q0 134 67 223.5t183 89.5q89 0 137 -52.5t48 -147.5q0 -133 -67.5 -223t-184.5 -90zM229 42q89 0 138 76.5t49 182.5q0 71 -32 110.5t-91 39.5q-89 0 -138.5 -76.5t-49.5 -181.5q0 -72 32 -111.5t92 -39.5z" />
    <glyph glyph-name="p" unicode="p" 
d="M337 503q69 0 107 -47t38 -134q0 -143 -72 -237.5t-201 -94.5q-46 0 -109 5l-32 -225h-61l102 724q20 9 32 9q24 0 24 -33q0 -5 -1 -14l-11 -78q34 57 83.5 91t100.5 34zM205 40q102 0 157.5 76t55.5 188q0 70 -24.5 108.5t-72.5 38.5q-60 0 -116 -53.5t-69 -143.5
l-29 -210q64 -4 98 -4z" />
    <glyph glyph-name="q" unicode="q" horiz-adv-x="525" 
d="M315 503q79 0 169 -10l-101 -723h-61l48 345q-34 -58 -83 -91.5t-101 -33.5q-69 0 -106.5 46.5t-37.5 133.5q0 144 71.5 238.5t201.5 94.5zM202 42q60 0 116 53.5t69 142.5l29 210q-66 4 -97 4q-102 0 -157.5 -75.5t-55.5 -187.5q0 -70 24.5 -108.5t71.5 -38.5z" />
    <glyph glyph-name="r" unicode="r" horiz-adv-x="364" 
d="M325 503q32 0 59 -16l-25 -58q-20 16 -53 16q-65 0 -113 -61t-63 -169l-29 -215h-61l68 494q16 9 30 9q26 0 26 -34q0 -6 -1 -14l-10 -81q66 129 172 129z" />
    <glyph glyph-name="s" unicode="s" horiz-adv-x="411" 
d="M246 503q78 0 137 -39l-31 -42q-49 31 -114 31q-48 0 -77 -24.5t-29 -69.5q0 -34 25.5 -54t71.5 -38q29 -11 47 -20t38.5 -24t30.5 -35.5t10 -46.5q0 -73 -53 -112t-135 -39q-108 0 -158 46l23 40q44 -36 134 -36q55 0 91.5 24.5t36.5 69.5q0 30 -24 48.5t-69 34.5
q-29 11 -48 20t-40.5 24.5t-32 38t-10.5 51.5q0 72 49.5 112t126.5 40z" />
    <glyph glyph-name="t" unicode="t" horiz-adv-x="333" 
d="M182 444l-40 -283q-3 -19 -3 -35q0 -84 63 -84q38 0 75 17l4 -51q-40 -18 -95 -18q-52 0 -80.5 31.5t-28.5 89.5q0 17 3 37l42 296h-74l7 49h75l17 128q13 7 26 7q30 0 30 -35q0 -5 -1 -12l-13 -88h159l-7 -49h-159z" />
    <glyph glyph-name="u" unicode="u" horiz-adv-x="513" 
d="M468 459l-58 -409q-2 -16 -2 -21q0 -12 5 -29q-19 -10 -39 -10q-25 0 -25 35q0 6 1 13l10 77q-32 -58 -79.5 -91.5t-105.5 -33.5t-89 34.5t-31 97.5q0 20 3 43l47 329q20 9 32 9q25 0 25 -31q0 -5 -1 -13l-39 -276q-3 -19 -3 -37q0 -104 80 -104q68 0 117 52.5t62 147.5
l36 252q18 9 30 9q25 0 25 -31q0 -5 -1 -13z" />
    <glyph glyph-name="v" unicode="v" horiz-adv-x="478" 
d="M417 503l55 -13q-47 -247 -242 -490h-69l-107 492q14 11 35 11q27 0 35 -38l61 -301l20 -120q170 228 212 459z" />
    <glyph glyph-name="w" unicode="w" horiz-adv-x="724" 
d="M662 503l53 -13q-31 -244 -214 -490h-66l-57 371q-45 -184 -177 -371h-65l-81 492q13 11 34 11q32 0 37 -38l41 -298l14 -120q150 219 177 445q13 11 31 11q29 0 34 -38l42 -299l14 -117q153 228 183 454z" />
    <glyph glyph-name="x" unicode="x" horiz-adv-x="442" 
d="M212 205l-162 -205h-65l201 250l-123 242q17 11 36 11q27 0 43 -34l86 -176l161 210l56 -13l-190 -242l132 -247q-14 -11 -32 -11q-29 0 -46 32z" />
    <glyph glyph-name="y" unicode="y" horiz-adv-x="479" 
d="M418 503l56 -13q-45 -193 -162 -391.5t-262 -338.5l-22 43q87 85 163 198q-19 3 -26 27l-110 464q14 11 34 11q28 0 36 -38l65 -291l27 -136q144 227 201 465z" />
    <glyph glyph-name="z" unicode="z" horiz-adv-x="415" 
d="M384 430l-277 -345l-33 -36h278l-8 -49h-348l5 39l295 369l31 36h-255l7 49h326q4 -12 4 -18q0 -14 -25 -45z" />
    <glyph glyph-name="braceleft" unicode="{" horiz-adv-x="263" 
d="M263 780l24 -44q-52 -29 -65 -120l-33 -240q-11 -74 -77 -105q49 -23 49 -82q0 -7 -2 -21l-33 -239q-3 -18 -3 -35q0 -63 36 -86l-42 -48q-61 30 -61 113q0 19 3 38l35 246q1 9 1 19q0 31 -17 48.5t-48 17.5l8 57q37 0 60 21t28 60l34 248q16 113 103 152z" />
    <glyph glyph-name="bar" unicode="|" horiz-adv-x="223" 
d="M158 770h54l-141 -1000h-54z" />
    <glyph glyph-name="braceright" unicode="}" horiz-adv-x="262" 
d="M5 -240l-24 44q52 29 65 120l33 240q11 74 77 105q-49 23 -49 82q0 7 2 21l33 239q3 18 3 35q0 63 -36 86l42 48q61 -30 61 -113q0 -19 -3 -38l-35 -246q-1 -9 -1 -19q0 -31 17 -48.5t48 -17.5l-8 -57q-37 0 -60 -21t-28 -60l-34 -248q-16 -113 -103 -152z" />
    <glyph glyph-name="asciitilde" unicode="~" horiz-adv-x="549" 
d="M83 201l-19 32q22 29 52 46.5t58 17.5q49 0 119 -20q62 -17 96 -17q38 0 78 46l20 -32q-52 -65 -111 -65q-41 0 -121 20q-59 17 -93 17q-40 0 -79 -45z" />
    <glyph glyph-name="uni00A0" unicode="&#xa0;" horiz-adv-x="226" 
 />
    <glyph glyph-name="exclamdown" unicode="&#xa1;" horiz-adv-x="216" 
d="M134 417q-40 0 -40 37q0 23 12.5 36t35.5 13q39 0 39 -37q0 -49 -47 -49zM145 315h-56l-80 -545h65z" />
    <glyph glyph-name="cent" unicode="&#xa2;" horiz-adv-x="460" 
d="M373 96l17 -52q-66 -51 -156 -54l-9 -62h-39l9 64q-70 8 -107.5 58.5t-37.5 136.5q0 125 58 215t159 100l9 63h38l-9 -63q43 -4 75.5 -29t44.5 -72l-52 -17q-22 61 -75 67l-57 -409q77 5 132 54zM112 191q0 -127 91 -146l57 403q-71 -13 -109.5 -88t-38.5 -169z" />
    <glyph glyph-name="sterling" unicode="&#xa3;" horiz-adv-x="457" 
d="M321 561q-55 0 -84 -33t-38 -98l-14 -98h174l-7 -47h-173l-20 -140q-9 -63 -36 -96h252l-7 -49h-353l7 46h14q23 0 40 27t23 73l19 139h-60l6 47h61l16 116q10 78 54 121.5t112 43.5q78 0 135 -30l-11 -48q-45 26 -110 26z" />
    <glyph glyph-name="currency" unicode="&#xa4;" horiz-adv-x="535" 
d="M448 458q15 -33 15 -80q0 -99 -48 -164l45 -60l-45 -40l-44 57q-48 -34 -116 -34q-70 0 -111 36l-60 -58l-34 39l62 61q-16 33 -16 81q0 99 49 165l-44 59l44 40l44 -57q48 34 116 34q71 0 111 -36l60 58l34 -39zM258 186q71 0 110.5 55t39.5 133q0 55 -27.5 84.5
t-78.5 29.5q-70 0 -110.5 -54.5t-40.5 -133.5q0 -55 27.5 -84.5t79.5 -29.5z" />
    <glyph glyph-name="yen" unicode="&#xa5;" horiz-adv-x="492" 
d="M509 601l-229 -337h108l-6 -47h-111l-31 -217h-61l31 217h-112l6 47h110l-137 338q13 11 31 11q36 0 49 -32l102 -264l193 296z" />
    <glyph glyph-name="brokenbar" unicode="&#xa6;" horiz-adv-x="223" 
d="M158 770h54l-56 -400h-54zM73 170h54l-56 -400h-54z" />
    <glyph glyph-name="section" unicode="&#xa7;" horiz-adv-x="536" 
d="M338 723q-73 0 -117 -38.5t-44 -102.5q0 -51 34 -79t101 -55q31 -13 49.5 -21.5t44.5 -25t40.5 -33.5t25 -44t10.5 -59q0 -112 -79 -175q40 -42 40 -105q0 -105 -68 -165t-180 -60q-137 0 -211 65l28 51q62 -59 184 -59q82 0 131.5 41.5t49.5 112.5q0 38 -22 66.5
t-47.5 42.5t-70.5 32q-31 12 -49.5 20.5t-43.5 24t-39 32t-24 42t-10 55.5q0 115 86 175q-46 41 -46 107q0 98 64 155t169 57q106 0 191 -64l-33 -50q-71 57 -164 57zM419 253q0 23 -8.5 42.5t-19.5 32.5t-33 26.5t-37.5 20.5t-43.5 19q-51 22 -69 32q-35 -19 -54.5 -53.5
t-19.5 -73.5q0 -26 10 -46.5t34 -37t41.5 -25t53.5 -24.5q53 -23 83 -40q63 45 63 127z" />
    <glyph glyph-name="dieresis" unicode="&#xa8;" horiz-adv-x="343" 
d="M151 600q-37 0 -37 34q0 44 43 44q37 0 37 -34q0 -44 -43 -44zM296 600q-37 0 -37 34q0 44 43 44q37 0 37 -34q0 -44 -43 -44z" />
    <glyph glyph-name="copyright" unicode="&#xa9;" horiz-adv-x="790" 
d="M360 -10q-143 0 -220 77t-77 218q0 195 106.5 320t289.5 125q143 0 221 -77t78 -218q0 -195 -107 -320t-291 -125zM366 38q104 0 181 53t115 141.5t38 198.5q0 120 -64 185.5t-183 65.5q-104 0 -181 -53t-115 -141.5t-38 -198.5q0 -120 64.5 -185.5t182.5 -65.5zM517 208
q-52 -41 -127 -41q-65 0 -100 39t-35 111q0 99 49 167t133 68q36 0 65.5 -20t38.5 -61l-45 -15q-17 49 -60 49q-59 0 -91.5 -56.5t-32.5 -129.5q0 -51 22 -78.5t62 -27.5q60 0 106 40z" />
    <glyph glyph-name="ordfeminine" unicode="&#xaa;" horiz-adv-x="415" 
d="M345 297q-1 -6 -1 -14q0 -10 5 -22q-18 -9 -36 -9q-21 0 -21 26q0 6 1 15l5 45q-51 -86 -126 -86q-47 0 -74 32.5t-27 92.5q0 101 51.5 168.5t143.5 67.5q55 0 123 -7zM190 297q39 0 75.5 37t45.5 101l18 132q-42 2 -62 2q-67 0 -103.5 -50.5t-36.5 -125.5q0 -96 63 -96z
" />
    <glyph glyph-name="guillemotleft" unicode="&#xab;" horiz-adv-x="429" 
d="M40 250l165 216l39 -25l-124 -191l71 -191l-46 -25zM203 250l165 216l39 -25l-124 -191l71 -191l-46 -25z" />
    <glyph glyph-name="logicalnot" unicode="&#xac;" horiz-adv-x="476" 
d="M418 339l-3 -22l-21 -150h-61l17 123h-275l7 49h336z" />
    <glyph glyph-name="uni00AD" unicode="&#xad;" horiz-adv-x="365" 
d="M70 276h233l-8 -51h-232z" />
    <glyph glyph-name="registered" unicode="&#xae;" horiz-adv-x="500" 
d="M313 730q85 0 131.5 -41t46.5 -116q0 -100 -61 -161.5t-164 -61.5q-85 0 -131.5 41t-46.5 115q0 101 61 162.5t164 61.5zM269 378q86 0 136.5 54t50.5 140q0 62 -38 96t-107 34q-86 0 -136.5 -54t-50.5 -140q0 -62 38 -96t107 -34zM369 594q0 -39 -40 -57q28 -11 28 -38
q0 -7 -2.5 -22t-2.5 -20q0 -7 3 -11q-11 -7 -25 -7q-13 0 -13 14q0 5 2 18.5t2 19.5q0 13 -9.5 21.5t-25.5 8.5h-31l-11 -78h-36l27 194q28 3 64 3q70 0 70 -46zM281 549q49 0 49 39q0 24 -39 24h-23l-9 -63h22z" />
    <glyph glyph-name="macron" unicode="&#xaf;" horiz-adv-x="276" 
d="M80 664h234l-7 -48h-234z" />
    <glyph glyph-name="degree" unicode="&#xb0;" horiz-adv-x="276" 
d="M187 588q-39 0 -60.5 20.5t-21.5 57.5q0 51 28 82.5t76 31.5q40 0 61 -20.5t21 -58.5q0 -51 -28 -82t-76 -31zM192 629q25 0 39 21t14 49q0 40 -40 40q-25 0 -39 -20.5t-14 -49.5q0 -40 40 -40z" />
    <glyph glyph-name="plusminus" unicode="&#xb1;" horiz-adv-x="487" 
d="M286 340h155l-7 -49h-154l-21 -153h-62l21 153h-154l7 49h154l21 153h61zM40 0l7 48h335l-6 -48h-336z" />
    <glyph glyph-name="uni00B2" unicode="&#xb2;" horiz-adv-x="311" 
d="M207 505q-31 -24 -48 -39t-33.5 -38t-19.5 -46h189l-7 -44h-243l4 29q5 38 26.5 73t42.5 54t56 47q31 25 49.5 42t35 44t16.5 54q0 50 -54 50q-49 0 -97 -41l-16 37q60 49 124 49q48 0 73.5 -23.5t25.5 -66.5q0 -38 -20 -73t-42 -56t-62 -52z" />
    <glyph glyph-name="uni00B3" unicode="&#xb3;" horiz-adv-x="314" 
d="M335 770l-5 -35l-131 -137q113 -37 113 -120q0 -66 -43.5 -106t-114.5 -40q-68 0 -110 41l23 37q33 -33 88 -33q46 0 73.5 27t27.5 70q0 38 -32 60t-106 41l139 151h-143l7 44h214z" />
    <glyph glyph-name="acute" unicode="&#xb4;" horiz-adv-x="203" 
d="M222 739l27 -60l-165 -83l-15 36z" />
    <glyph glyph-name="paragraph" unicode="&#xb6;" horiz-adv-x="471" 
d="M453 770l-141 -1000h-54l134 951h-90l-134 -951h-54l93 662q-63 0 -98 35t-35 99q0 90 48 147t133 57h198z" />
    <glyph glyph-name="periodcentered" unicode="&#xb7;" horiz-adv-x="216" 
d="M105 211q-40 0 -40 37q0 23 12.5 36t35.5 13q39 0 39 -37q0 -49 -47 -49z" />
    <glyph glyph-name="cedilla" unicode="&#xb8;" horiz-adv-x="221" 
d="M72 -55q72 -25 72 -84q0 -47 -31.5 -74t-83.5 -27q-48 0 -79 28l19 33q25 -22 60 -22q29 0 47 16.5t18 42.5q0 25 -22 40t-72 27l78 86l45 -11z" />
    <glyph glyph-name="uni00B9" unicode="&#xb9;" horiz-adv-x="213" 
d="M225 770l-61 -432h-54l52 369l-68 -35l-14 44l102 54h43z" />
    <glyph glyph-name="ordmasculine" unicode="&#xba;" horiz-adv-x="408" 
d="M205 252q-64 0 -98 37t-34 105q0 94 48 156.5t131 62.5q64 0 98.5 -37.5t34.5 -105.5q0 -94 -48 -156t-132 -62zM208 297q57 0 89.5 51t32.5 121q0 47 -21 73t-60 26q-58 0 -90 -51t-32 -121q0 -48 21 -73.5t60 -25.5z" />
    <glyph glyph-name="guillemotright" unicode="&#xbb;" horiz-adv-x="429" 
d="M225 250l-166 -216l-38 25l125 191l-71 191l44 25zM388 250l-166 -216l-38 25l125 191l-71 191l44 25z" />
    <glyph glyph-name="onequarter" unicode="&#xbc;" horiz-adv-x="685" 
d="M556 730l36 -29l-519 -711l-36 29zM155 657l-68 -35l-14 44l102 54h43l-61 -432h-54zM648 152l-6 -44h-52l-15 -108h-54l15 108h-174l5 36l185 294l48 -13l-176 -273h122l12 84l53 20l-15 -104h52z" />
    <glyph glyph-name="onehalf" unicode="&#xbd;" horiz-adv-x="697" 
d="M556 730l36 -29l-519 -711l-36 29zM155 657l-68 -35l-14 44l102 54h43l-61 -432h-54zM545 167q-31 -24 -48 -39t-33.5 -38t-19.5 -46h189l-7 -44h-243l4 29q5 38 26.5 73t42.5 54t56 47q31 25 49.5 42t35 44t16.5 54q0 50 -54 50q-49 0 -97 -41l-16 37q60 49 124 49
q48 0 73.5 -23.5t25.5 -66.5q0 -38 -20 -73t-42 -56t-62 -52z" />
    <glyph glyph-name="threequarters" unicode="&#xbe;" horiz-adv-x="786" 
d="M657 730l36 -29l-519 -711l-36 29zM305 428q0 -66 -43.5 -106t-114.5 -40q-68 0 -110 41l23 37q33 -33 88 -33q46 0 73.5 27t27.5 70q0 38 -32 60t-106 41l139 151h-143l7 44h214l-5 -35l-131 -137q113 -37 113 -120zM749 152l-6 -44h-52l-15 -108h-54l15 108h-174l5 36
l185 294l48 -13l-176 -273h122l12 84l53 20l-15 -104h52z" />
    <glyph glyph-name="questiondown" unicode="&#xbf;" horiz-adv-x="401" 
d="M271 503q40 0 40 -37q0 -49 -47 -49q-40 0 -40 37q0 23 12.5 36t34.5 13zM321 -158q-84 -82 -180 -82q-73 0 -113 37.5t-40 104.5q0 70 31 122t92 115q25 26 37.5 40.5t30.5 38t27 47.5t13 51l55 -3q-6 -46 -27 -88.5t-39.5 -65t-52.5 -58.5q-50 -52 -75 -95.5t-25 -96.5
q0 -44 24.5 -68t69.5 -24q81 0 152 73z" />
    <glyph glyph-name="Agrave" unicode="&#xc0;" horiz-adv-x="574" 
d="M284 966l153 -107l-15 -36l-165 83zM449 0l-31 192h-282l-84 -192h-67l332 723q17 7 34 7q37 0 44 -40l123 -690h-69zM160 246h249l-67 417z" />
    <glyph glyph-name="Aacute" unicode="&#xc1;" horiz-adv-x="574" 
d="M470 966l27 -60l-165 -83l-15 36zM449 0l-31 192h-282l-84 -192h-67l332 723q17 7 34 7q37 0 44 -40l123 -690h-69zM160 246h249l-67 417z" />
    <glyph glyph-name="Acircumflex" unicode="&#xc2;" horiz-adv-x="574" 
d="M254 823l-15 36l151 104l1 1h1l1 -1l123 -104l-25 -36l-110 66zM395 690l123 -690h-69l-31 192h-282l-84 -192h-67l332 723q17 7 34 7q37 0 44 -40zM160 246h249l-67 417z" />
    <glyph glyph-name="Atilde" unicode="&#xc3;" horiz-adv-x="574" 
d="M239 836l-17 29q20 26 49 41.5t57 15.5q24 0 60 -19q30 -17 48 -17q38 0 76 35l18 -30q-48 -57 -109 -57q-24 0 -58 20q-28 16 -48 16q-39 0 -76 -34zM449 0l-31 192h-282l-84 -192h-67l332 723q17 7 34 7q37 0 44 -40l123 -690h-69zM160 246h249l-67 417z" />
    <glyph glyph-name="Adieresis" unicode="&#xc4;" horiz-adv-x="574" 
d="M298 827q-37 0 -37 34q0 44 43 44q37 0 37 -34q0 -44 -43 -44zM443 827q-37 0 -37 34q0 44 43 44q37 0 37 -34q0 -44 -43 -44zM449 0l-31 192h-282l-84 -192h-67l332 723q17 7 34 7q37 0 44 -40l123 -690h-69zM160 246h249l-67 417z" />
    <glyph glyph-name="Aring" unicode="&#xc5;" horiz-adv-x="574" 
d="M366 789q-44 0 -68 23t-24 65q0 56 31.5 90.5t84.5 34.5q44 0 67.5 -22.5t23.5 -64.5q0 -55 -31 -90.5t-84 -35.5zM369 828q31 0 49 24.5t18 57.5q0 53 -50 53q-32 0 -49.5 -24.5t-17.5 -57.5q0 -53 50 -53zM449 0l-31 192h-282l-84 -192h-67l332 723q17 7 34 7
q37 0 44 -40l123 -690h-69zM160 246h249l-67 417z" />
    <glyph glyph-name="AE" unicode="&#xc6;" horiz-adv-x="843" 
d="M842 666h-374l6 -266h300l-9 -54h-290l7 -292h285l-7 -54h-340l-3 192h-273l-110 -192h-67l421 720h463zM175 246h241l-5 413z" />
    <glyph glyph-name="Ccedilla" unicode="&#xc7;" horiz-adv-x="547" 
d="M497 53q-85 -60 -200 -63l-42 -45q72 -25 72 -84q0 -47 -31.5 -74t-83.5 -27q-48 0 -79 28l19 33q25 -22 60 -22q29 0 47 16.5t18 42.5q0 25 -22 40t-72 27l61 68q-87 12 -134 80t-47 187q0 92 19.5 174.5t57.5 149.5t100 106.5t141 39.5q125 0 174 -108l-62 -24
q-31 75 -115 75q-78 0 -136.5 -62t-85.5 -152t-27 -189q0 -103 40 -163t118 -60q114 0 186 58z" />
    <glyph glyph-name="Egrave" unicode="&#xc8;" horiz-adv-x="495" 
d="M407 859l-15 -36l-165 83l27 60zM494 666h-283l-37 -266h253l-8 -54h-252l-41 -292h294l-8 -54h-358l101 720h348z" />
    <glyph glyph-name="Eacute" unicode="&#xc9;" horiz-adv-x="495" 
d="M467 906l-165 -83l-15 36l153 107zM494 666h-283l-37 -266h253l-8 -54h-252l-41 -292h294l-8 -54h-358l101 720h348z" />
    <glyph glyph-name="Ecircumflex" unicode="&#xca;" horiz-adv-x="495" 
d="M224 823l-15 36l151 104l1 1h1l1 -1l123 -104l-25 -36l-110 66zM494 666h-283l-37 -266h253l-8 -54h-252l-41 -292h294l-8 -54h-358l101 720h348z" />
    <glyph glyph-name="Edieresis" unicode="&#xcb;" horiz-adv-x="495" 
d="M268 827q-37 0 -37 34q0 44 43 44q37 0 37 -34q0 -44 -43 -44zM413 827q-37 0 -37 34q0 44 43 44q37 0 37 -34q0 -44 -43 -44zM494 666h-283l-37 -266h253l-8 -54h-252l-41 -292h294l-8 -54h-358l101 720h348z" />
    <glyph glyph-name="Igrave" unicode="&#xcc;" horiz-adv-x="240" 
d="M115 966l153 -107l-15 -36l-165 83zM117 0h-63l102 721q14 9 30 9q28 0 28 -35q0 -6 -1 -14z" />
    <glyph glyph-name="Iacute" unicode="&#xcd;" horiz-adv-x="240" 
d="M301 966l27 -60l-165 -83l-15 36zM117 0h-63l102 721q14 9 30 9q28 0 28 -35q0 -6 -1 -14z" />
    <glyph glyph-name="Icircumflex" unicode="&#xce;" horiz-adv-x="240" 
d="M224 963l123 -104l-25 -36l-110 66l-127 -66l-15 36l151 104l1 1h1zM186 730q28 0 28 -35q0 -6 -1 -14l-96 -681h-63l102 721q14 9 30 9z" />
    <glyph glyph-name="Idieresis" unicode="&#xcf;" horiz-adv-x="240" 
d="M129 827q-37 0 -37 34q0 44 43 44q37 0 37 -34q0 -44 -43 -44zM274 827q-37 0 -37 34q0 44 43 44q37 0 37 -34q0 -44 -43 -44zM117 0h-63l102 721q14 9 30 9q28 0 28 -35q0 -6 -1 -14z" />
    <glyph glyph-name="Eth" unicode="&#xd0;" horiz-adv-x="612" 
d="M308 730q131 0 202 -75.5t71 -212.5q0 -127 -42.5 -228t-128 -162.5t-201.5 -61.5q-67 0 -155 10l48 341h-71l7 49h71l46 330q95 10 153 10zM214 44q95 0 165 56t103.5 144t33.5 194q0 113 -55 175.5t-156 62.5q-39 0 -93 -6l-39 -280h147l-7 -49h-147l-41 -292
q40 -5 89 -5z" />
    <glyph glyph-name="Ntilde" unicode="&#xd1;" horiz-adv-x="656" 
d="M281 836l-17 29q20 26 49 41.5t57 15.5q24 0 60 -19q30 -17 48 -17q38 0 76 35l18 -30q-48 -57 -109 -57q-24 0 -58 20q-28 16 -48 16q-39 0 -76 -34zM571 720h62l-100 -720h-50l-286 600l-81 -600h-62l102 721q13 9 27 9q23 0 38 -32l269 -576z" />
    <glyph glyph-name="Ograve" unicode="&#xd2;" horiz-adv-x="674" 
d="M334 966l153 -107l-15 -36l-165 83zM302 -10q-115 0 -177 73.5t-62 207.5q0 123 37 225.5t115.5 168t185.5 65.5q115 0 178 -73.5t63 -207.5q0 -123 -37.5 -225.5t-116.5 -168t-186 -65.5zM306 47q87 0 150 60t92 148.5t29 191.5q0 108 -46 167t-131 59q-87 0 -150 -60
t-92 -148.5t-29 -191.5q0 -108 46 -167t131 -59z" />
    <glyph glyph-name="Oacute" unicode="&#xd3;" horiz-adv-x="674" 
d="M520 966l27 -60l-165 -83l-15 36zM302 -10q-115 0 -177 73.5t-62 207.5q0 123 37 225.5t115.5 168t185.5 65.5q115 0 178 -73.5t63 -207.5q0 -123 -37.5 -225.5t-116.5 -168t-186 -65.5zM306 47q87 0 150 60t92 148.5t29 191.5q0 108 -46 167t-131 59q-87 0 -150 -60
t-92 -148.5t-29 -191.5q0 -108 46 -167t131 -59z" />
    <glyph glyph-name="Ocircumflex" unicode="&#xd4;" horiz-adv-x="674" 
d="M304 823l-15 36l151 104l1 1h1l1 -1l123 -104l-25 -36l-110 66zM401 730q115 0 178 -73.5t63 -207.5q0 -123 -37.5 -225.5t-116.5 -168t-186 -65.5q-115 0 -177 73.5t-62 207.5q0 123 37 225.5t115.5 168t185.5 65.5zM306 47q87 0 150 60t92 148.5t29 191.5
q0 108 -46 167t-131 59q-87 0 -150 -60t-92 -148.5t-29 -191.5q0 -108 46 -167t131 -59z" />
    <glyph glyph-name="Otilde" unicode="&#xd5;" horiz-adv-x="674" 
d="M289 836l-17 29q20 26 49 41.5t57 15.5q24 0 60 -19q30 -17 48 -17q38 0 76 35l18 -30q-48 -57 -109 -57q-24 0 -58 20q-28 16 -48 16q-39 0 -76 -34zM302 -10q-115 0 -177 73.5t-62 207.5q0 123 37 225.5t115.5 168t185.5 65.5q115 0 178 -73.5t63 -207.5
q0 -123 -37.5 -225.5t-116.5 -168t-186 -65.5zM306 47q87 0 150 60t92 148.5t29 191.5q0 108 -46 167t-131 59q-87 0 -150 -60t-92 -148.5t-29 -191.5q0 -108 46 -167t131 -59z" />
    <glyph glyph-name="Odieresis" unicode="&#xd6;" horiz-adv-x="674" 
d="M348 827q-37 0 -37 34q0 44 43 44q37 0 37 -34q0 -44 -43 -44zM493 827q-37 0 -37 34q0 44 43 44q37 0 37 -34q0 -44 -43 -44zM302 -10q-115 0 -177 73.5t-62 207.5q0 123 37 225.5t115.5 168t185.5 65.5q115 0 178 -73.5t63 -207.5q0 -123 -37.5 -225.5t-116.5 -168
t-186 -65.5zM306 47q87 0 150 60t92 148.5t29 191.5q0 108 -46 167t-131 59q-87 0 -150 -60t-92 -148.5t-29 -191.5q0 -108 46 -167t131 -59z" />
    <glyph glyph-name="multiply" unicode="&#xd7;" horiz-adv-x="451" 
d="M413 391l-149 -144l109 -143l-45 -40l-108 141l-147 -141l-35 40l149 144l-109 143l45 40l108 -141l147 141z" />
    <glyph glyph-name="Oslash" unicode="&#xd8;" horiz-adv-x="674" 
d="M649 699l-52 -67q45 -69 45 -183q0 -123 -37.5 -225.5t-116.5 -168t-186 -65.5q-99 0 -159 55l-45 -58l-42 34l51 67q-44 70 -44 183q0 123 37 225.5t115.5 168t185.5 65.5q99 0 160 -55l45 58zM129 273q0 -76 23 -128l370 480q-45 48 -122 48q-87 0 -150 -60t-92 -148.5
t-29 -191.5zM577 447q0 75 -23 129l-371 -479q44 -50 123 -50q87 0 150 60t92 148.5t29 191.5z" />
    <glyph glyph-name="Ugrave" unicode="&#xd9;" horiz-adv-x="626" 
d="M311 966l153 -107l-15 -36l-165 83zM485 267l65 454q12 9 29 9q27 0 27 -35q0 -6 -1 -14l-59 -421q-18 -128 -87.5 -199t-179.5 -71q-96 0 -148 55.5t-52 156.5q0 26 5 61l65 458q14 9 30 9q28 0 28 -35q0 -6 -1 -14l-58 -417q-4 -25 -4 -55q0 -78 35.5 -120t102.5 -42
q83 0 135.5 57.5t67.5 162.5z" />
    <glyph glyph-name="Uacute" unicode="&#xda;" horiz-adv-x="626" 
d="M497 966l27 -60l-165 -83l-15 36zM485 267l65 454q12 9 29 9q27 0 27 -35q0 -6 -1 -14l-59 -421q-18 -128 -87.5 -199t-179.5 -71q-96 0 -148 55.5t-52 156.5q0 26 5 61l65 458q14 9 30 9q28 0 28 -35q0 -6 -1 -14l-58 -417q-4 -25 -4 -55q0 -78 35.5 -120t102.5 -42
q83 0 135.5 57.5t67.5 162.5z" />
    <glyph glyph-name="Ucircumflex" unicode="&#xdb;" horiz-adv-x="626" 
d="M281 823l-15 36l151 104l1 1h1l1 -1l123 -104l-25 -36l-110 66zM579 730q27 0 27 -35q0 -6 -1 -14l-59 -421q-18 -128 -87.5 -199t-179.5 -71q-96 0 -148 55.5t-52 156.5q0 26 5 61l65 458q14 9 30 9q28 0 28 -35q0 -6 -1 -14l-58 -417q-4 -25 -4 -55q0 -78 35.5 -120
t102.5 -42q83 0 135.5 57.5t67.5 162.5l65 454q12 9 29 9z" />
    <glyph glyph-name="Udieresis" unicode="&#xdc;" horiz-adv-x="626" 
d="M325 827q-37 0 -37 34q0 44 43 44q37 0 37 -34q0 -44 -43 -44zM470 827q-37 0 -37 34q0 44 43 44q37 0 37 -34q0 -44 -43 -44zM485 267l65 454q12 9 29 9q27 0 27 -35q0 -6 -1 -14l-59 -421q-18 -128 -87.5 -199t-179.5 -71q-96 0 -148 55.5t-52 156.5q0 26 5 61l65 458
q14 9 30 9q28 0 28 -35q0 -6 -1 -14l-58 -417q-4 -25 -4 -55q0 -78 35.5 -120t102.5 -42q83 0 135.5 57.5t67.5 162.5z" />
    <glyph glyph-name="Yacute" unicode="&#xdd;" horiz-adv-x="552" 
d="M460 966l27 -60l-165 -83l-15 36zM593 717l-277 -407l-43 -310h-64l44 314l-163 405q14 11 33 11q37 0 50 -34l94 -241l31 -85l50 82l183 278z" />
    <glyph glyph-name="Thorn" unicode="&#xde;" horiz-adv-x="544" 
d="M316 586q100 0 154 -45.5t54 -128.5q0 -118 -75.5 -191t-200.5 -73q-49 0 -109 5l-21 -153h-64l102 721q14 9 30 9q28 0 28 -35q0 -6 -1 -14l-14 -101q63 6 117 6zM258 203q91 0 145 54.5t54 146.5q0 61 -40 94.5t-113 33.5q-49 0 -112 -5l-45 -319q57 -5 111 -5z" />
    <glyph glyph-name="germandbls" unicode="&#xdf;" horiz-adv-x="516" 
d="M297 -10q-77 0 -132 41l21 43q43 -32 107 -32q52 0 82.5 35.5t30.5 88.5q0 60 -30 109.5t-110 120.5q112 137 112 253q0 38 -21.5 58.5t-59.5 20.5q-44 0 -73 -29.5t-37 -82.5l-86 -616h-61l88 628q10 72 55 112t115 40q68 0 104.5 -33.5t36.5 -93.5q0 -120 -109 -248
q74 -66 106 -117.5t32 -118.5q0 -79 -46.5 -129t-124.5 -50z" />
    <glyph glyph-name="agrave" unicode="&#xe0;" 
d="M217 739l153 -107l-15 -36l-165 83zM421 50q-2 -16 -2 -21q0 -12 5 -29q-19 -10 -39 -10q-25 0 -25 35q0 6 1 13l11 81q-33 -59 -83 -94t-103 -35q-69 0 -106.5 46.5t-37.5 133.5q0 144 71.5 238.5t201.5 94.5q79 0 169 -10zM202 42q60 0 116 53.5t69 142.5l30 210
q-66 4 -98 4q-102 0 -157.5 -75.5t-55.5 -187.5q0 -70 24.5 -108.5t71.5 -38.5z" />
    <glyph glyph-name="aacute" unicode="&#xe1;" 
d="M403 739l27 -60l-165 -83l-15 36zM421 50q-2 -16 -2 -21q0 -12 5 -29q-19 -10 -39 -10q-25 0 -25 35q0 6 1 13l11 81q-33 -59 -83 -94t-103 -35q-69 0 -106.5 46.5t-37.5 133.5q0 144 71.5 238.5t201.5 94.5q79 0 169 -10zM202 42q60 0 116 53.5t69 142.5l30 210
q-66 4 -98 4q-102 0 -157.5 -75.5t-55.5 -187.5q0 -70 24.5 -108.5t71.5 -38.5z" />
    <glyph glyph-name="acircumflex" unicode="&#xe2;" 
d="M187 596l-15 36l151 104l1 1h1l1 -1l123 -104l-25 -36l-110 66zM421 50q-2 -16 -2 -21q0 -12 5 -29q-19 -10 -39 -10q-25 0 -25 35q0 6 1 13l11 81q-33 -59 -83 -94t-103 -35q-69 0 -106.5 46.5t-37.5 133.5q0 144 71.5 238.5t201.5 94.5q79 0 169 -10zM387 238l30 210
q-66 4 -98 4q-102 0 -157.5 -75.5t-55.5 -187.5q0 -70 24.5 -108.5t71.5 -38.5q60 0 116 53.5t69 142.5z" />
    <glyph glyph-name="atilde" unicode="&#xe3;" 
d="M172 609l-17 29q20 26 49 41.5t57 15.5q24 0 60 -19q30 -17 48 -17q38 0 76 35l18 -30q-48 -57 -109 -57q-24 0 -58 20q-28 16 -48 16q-39 0 -76 -34zM421 50q-2 -16 -2 -21q0 -12 5 -29q-19 -10 -39 -10q-25 0 -25 35q0 6 1 13l11 81q-33 -59 -83 -94t-103 -35
q-69 0 -106.5 46.5t-37.5 133.5q0 144 71.5 238.5t201.5 94.5q79 0 169 -10zM202 42q60 0 116 53.5t69 142.5l30 210q-66 4 -98 4q-102 0 -157.5 -75.5t-55.5 -187.5q0 -70 24.5 -108.5t71.5 -38.5z" />
    <glyph glyph-name="adieresis" unicode="&#xe4;" 
d="M231 600q-37 0 -37 34q0 44 43 44q37 0 37 -34q0 -44 -43 -44zM376 600q-37 0 -37 34q0 44 43 44q37 0 37 -34q0 -44 -43 -44zM421 50q-2 -16 -2 -21q0 -12 5 -29q-19 -10 -39 -10q-25 0 -25 35q0 6 1 13l11 81q-33 -59 -83 -94t-103 -35q-69 0 -106.5 46.5t-37.5 133.5
q0 144 71.5 238.5t201.5 94.5q79 0 169 -10zM202 42q60 0 116 53.5t69 142.5l30 210q-66 4 -98 4q-102 0 -157.5 -75.5t-55.5 -187.5q0 -70 24.5 -108.5t71.5 -38.5z" />
    <glyph glyph-name="aring" unicode="&#xe5;" 
d="M299 562q-44 0 -68 23t-24 65q0 56 31.5 90.5t84.5 34.5q44 0 67.5 -22.5t23.5 -64.5q0 -55 -31 -90.5t-84 -35.5zM302 601q31 0 49 24.5t18 57.5q0 53 -50 53q-32 0 -49.5 -24.5t-17.5 -57.5q0 -53 50 -53zM421 50q-2 -16 -2 -21q0 -12 5 -29q-19 -10 -39 -10
q-25 0 -25 35q0 6 1 13l11 81q-33 -59 -83 -94t-103 -35q-69 0 -106.5 46.5t-37.5 133.5q0 144 71.5 238.5t201.5 94.5q79 0 169 -10zM202 42q60 0 116 53.5t69 142.5l30 210q-66 4 -98 4q-102 0 -157.5 -75.5t-55.5 -187.5q0 -70 24.5 -108.5t71.5 -38.5z" />
    <glyph glyph-name="ae" unicode="&#xe6;" horiz-adv-x="743" 
d="M491 41q88 0 157 43l19 -44q-78 -50 -180 -50q-60 0 -97.5 32t-48.5 92q-30 -55 -83 -89.5t-103 -34.5q-64 0 -99 34.5t-35 96.5q0 83 56.5 127t150.5 44q52 0 111 -18l5 38q3 21 3 37q0 49 -24 76t-69 27q-72 0 -136 -43l-19 43q77 51 169 51q53 0 85 -27.5t40 -78.5
q66 106 183 106q65 0 100.5 -33.5t35.5 -94.5q0 -89 -58 -136.5t-155 -47.5q-61 0 -116 15q-1 -10 -1 -30q0 -65 28 -100t81 -35zM564 451q-70 0 -115.5 -57.5t-60.5 -144.5q57 -12 112 -12q69 0 110.5 35.5t41.5 95.5q0 40 -23 61.5t-65 21.5zM165 40q53 0 104 46t60 119
l3 24q-56 17 -104 17q-68 0 -107.5 -31.5t-39.5 -86.5q0 -39 22.5 -63.5t61.5 -24.5z" />
    <glyph glyph-name="ccedilla" unicode="&#xe7;" horiz-adv-x="444" 
d="M384 44q-66 -51 -153 -54l-42 -45q72 -25 72 -84q0 -47 -31.5 -74t-83.5 -27q-48 0 -79 28l19 33q25 -22 60 -22q29 0 47 16.5t18 42.5q0 25 -22 40t-72 27l62 68q-65 12 -100 62t-35 132q0 86 27 156.5t82.5 115t130.5 44.5q47 0 84.5 -25.5t50.5 -76.5l-52 -17
q-24 67 -85 67q-84 0 -130 -78t-46 -182q0 -71 31 -110t88 -39q80 0 142 54z" />
    <glyph glyph-name="egrave" unicode="&#xe8;" horiz-adv-x="463" 
d="M371 632l-15 -36l-165 83l27 60zM211 41q87 0 156 43l19 -44q-78 -50 -180 -50q-79 0 -121.5 48t-42.5 136q0 137 68 233t185 96q66 0 101.5 -33.5t35.5 -94.5q0 -89 -58 -136.5t-155 -47.5q-55 0 -117 15q-1 -10 -1 -30q0 -65 28 -100t82 -35zM284 451
q-71 0 -116.5 -57.5t-60.5 -144.5q57 -12 113 -12q69 0 110 35.5t41 95.5q0 40 -22.5 61.5t-64.5 21.5z" />
    <glyph glyph-name="eacute" unicode="&#xe9;" horiz-adv-x="463" 
d="M431 679l-165 -83l-15 36l153 107zM211 41q87 0 156 43l19 -44q-78 -50 -180 -50q-79 0 -121.5 48t-42.5 136q0 137 68 233t185 96q66 0 101.5 -33.5t35.5 -94.5q0 -89 -58 -136.5t-155 -47.5q-55 0 -117 15q-1 -10 -1 -30q0 -65 28 -100t82 -35zM284 451
q-71 0 -116.5 -57.5t-60.5 -144.5q57 -12 113 -12q69 0 110 35.5t41 95.5q0 40 -22.5 61.5t-64.5 21.5z" />
    <glyph glyph-name="ecircumflex" unicode="&#xea;" horiz-adv-x="463" 
d="M188 596l-15 36l151 104l1 1h1l1 -1l123 -104l-25 -36l-110 66zM219 191q-55 0 -117 15q-1 -10 -1 -30q0 -65 28 -100t82 -35q87 0 156 43l19 -44q-78 -50 -180 -50q-79 0 -121.5 48t-42.5 136q0 137 68 233t185 96q66 0 101.5 -33.5t35.5 -94.5q0 -89 -58 -136.5
t-155 -47.5zM284 451q-71 0 -116.5 -57.5t-60.5 -144.5q57 -12 113 -12q69 0 110 35.5t41 95.5q0 40 -22.5 61.5t-64.5 21.5z" />
    <glyph glyph-name="edieresis" unicode="&#xeb;" horiz-adv-x="463" 
d="M232 600q-37 0 -37 34q0 44 43 44q37 0 37 -34q0 -44 -43 -44zM377 600q-37 0 -37 34q0 44 43 44q37 0 37 -34q0 -44 -43 -44zM211 41q87 0 156 43l19 -44q-78 -50 -180 -50q-79 0 -121.5 48t-42.5 136q0 137 68 233t185 96q66 0 101.5 -33.5t35.5 -94.5
q0 -89 -58 -136.5t-155 -47.5q-55 0 -117 15q-1 -10 -1 -30q0 -65 28 -100t82 -35zM284 451q-71 0 -116.5 -57.5t-60.5 -144.5q57 -12 113 -12q69 0 110 35.5t41 95.5q0 40 -22.5 61.5t-64.5 21.5z" />
    <glyph glyph-name="igrave" unicode="&#xec;" horiz-adv-x="211" 
d="M69 739l153 -107l-15 -36l-165 83zM169 493l-62 -447q-1 -8 -1 -17q0 -17 5 -29q-19 -10 -41 -10q-26 0 -26 34q0 5 1 12l63 457h61z" />
    <glyph glyph-name="iacute" unicode="&#xed;" horiz-adv-x="211" 
d="M255 739l27 -60l-165 -83l-15 36zM169 493l-62 -447q-1 -8 -1 -17q0 -17 5 -29q-19 -10 -41 -10q-26 0 -26 34q0 5 1 12l63 457h61z" />
    <glyph glyph-name="icircumflex" unicode="&#xee;" horiz-adv-x="211" 
d="M178 736l123 -104l-25 -36l-110 66l-127 -66l-15 36l151 104l1 1h1zM169 493l-62 -447q-1 -8 -1 -17q0 -17 5 -29q-19 -10 -41 -10q-26 0 -26 34q0 5 1 12l63 457h61z" />
    <glyph glyph-name="idieresis" unicode="&#xef;" horiz-adv-x="211" 
d="M83 600q-37 0 -37 34q0 44 43 44q37 0 37 -34q0 -44 -43 -44zM228 600q-37 0 -37 34q0 44 43 44q37 0 37 -34q0 -44 -43 -44zM169 493l-62 -447q-1 -8 -1 -17q0 -17 5 -29q-19 -10 -41 -10q-26 0 -26 34q0 5 1 12l63 457h61z" />
    <glyph glyph-name="eth" unicode="&#xf0;" horiz-adv-x="531" 
d="M342 689q75 -57 109 -132.5t34 -178.5q0 -172 -64 -280t-194 -108q-88 0 -135.5 52t-47.5 147q0 132 64.5 221.5t177.5 89.5q111 0 150 -90q-6 83 -40.5 144t-103.5 109l-134 -70l-18 38l111 58q-37 21 -95 46l20 45q74 -30 127 -64l123 64l17 -38zM229 42
q60 0 103.5 37.5t63.5 94.5t20 124q0 71 -32.5 110.5t-91.5 39.5q-60 0 -103.5 -37.5t-63.5 -94.5t-20 -124q0 -72 32 -111t92 -39z" />
    <glyph glyph-name="ntilde" unicode="&#xf1;" 
d="M202 609l-17 29q20 26 49 41.5t57 15.5q24 0 60 -19q30 -17 48 -17q38 0 76 35l18 -30q-48 -57 -109 -57q-24 0 -58 20q-28 16 -48 16q-39 0 -76 -34zM463 322l-39 -276q-1 -8 -1 -17q0 -17 5 -29q-20 -10 -41 -10q-26 0 -26 34q0 5 1 12l39 272q3 22 3 41q0 49 -20 75.5
t-58 26.5q-74 0 -126 -57.5t-66 -158.5l-33 -235h-61l68 494q16 9 30 9q26 0 26 -34q0 -6 -1 -14l-9 -77q70 125 188 125q60 0 92.5 -36t32.5 -100q0 -13 -4 -45z" />
    <glyph glyph-name="ograve" unicode="&#xf2;" 
d="M226 739l153 -107l-15 -36l-165 83zM227 -10q-89 0 -136 52t-47 148q0 134 67 223.5t183 89.5q89 0 137 -52.5t48 -147.5q0 -133 -67.5 -223t-184.5 -90zM229 42q89 0 138 76.5t49 182.5q0 71 -32 110.5t-91 39.5q-89 0 -138.5 -76.5t-49.5 -181.5q0 -72 32 -111.5
t92 -39.5z" />
    <glyph glyph-name="oacute" unicode="&#xf3;" 
d="M412 739l27 -60l-165 -83l-15 36zM227 -10q-89 0 -136 52t-47 148q0 134 67 223.5t183 89.5q89 0 137 -52.5t48 -147.5q0 -133 -67.5 -223t-184.5 -90zM229 42q89 0 138 76.5t49 182.5q0 71 -32 110.5t-91 39.5q-89 0 -138.5 -76.5t-49.5 -181.5q0 -72 32 -111.5
t92 -39.5z" />
    <glyph glyph-name="ocircumflex" unicode="&#xf4;" 
d="M196 596l-15 36l151 104l1 1h1l1 -1l123 -104l-25 -36l-110 66zM294 503q89 0 137 -52.5t48 -147.5q0 -133 -67.5 -223t-184.5 -90q-89 0 -136 52t-47 148q0 134 67 223.5t183 89.5zM229 42q89 0 138 76.5t49 182.5q0 71 -32 110.5t-91 39.5q-89 0 -138.5 -76.5
t-49.5 -181.5q0 -72 32 -111.5t92 -39.5z" />
    <glyph glyph-name="otilde" unicode="&#xf5;" 
d="M181 609l-17 29q20 26 49 41.5t57 15.5q24 0 60 -19q30 -17 48 -17q38 0 76 35l18 -30q-48 -57 -109 -57q-24 0 -58 20q-28 16 -48 16q-39 0 -76 -34zM227 -10q-89 0 -136 52t-47 148q0 134 67 223.5t183 89.5q89 0 137 -52.5t48 -147.5q0 -133 -67.5 -223t-184.5 -90z
M229 42q89 0 138 76.5t49 182.5q0 71 -32 110.5t-91 39.5q-89 0 -138.5 -76.5t-49.5 -181.5q0 -72 32 -111.5t92 -39.5z" />
    <glyph glyph-name="odieresis" unicode="&#xf6;" 
d="M240 600q-37 0 -37 34q0 44 43 44q37 0 37 -34q0 -44 -43 -44zM385 600q-37 0 -37 34q0 44 43 44q37 0 37 -34q0 -44 -43 -44zM227 -10q-89 0 -136 52t-47 148q0 134 67 223.5t183 89.5q89 0 137 -52.5t48 -147.5q0 -133 -67.5 -223t-184.5 -90zM229 42q89 0 138 76.5
t49 182.5q0 71 -32 110.5t-91 39.5q-89 0 -138.5 -76.5t-49.5 -181.5q0 -72 32 -111.5t92 -39.5z" />
    <glyph glyph-name="divide" unicode="&#xf7;" horiz-adv-x="469" 
d="M250 341q-37 0 -37 34q0 22 12 33.5t31 11.5q37 0 37 -34q0 -22 -12 -33.5t-31 -11.5zM70 276h335l-6 -48h-336zM214 84q-37 0 -37 34q0 22 12 33.5t31 11.5q37 0 37 -34q0 -22 -12 -33.5t-31 -11.5z" />
    <glyph glyph-name="oslash" unicode="&#xf8;" 
d="M486 475l-39 -45q32 -50 32 -127q0 -133 -67.5 -223t-184.5 -90q-79 0 -126 42l-37 -42l-29 27l40 46q-31 51 -31 127q0 134 67 223.5t183 89.5q79 0 126 -42l37 42zM105 193q0 -46 14 -80l262 302q-32 36 -88 36q-89 0 -138.5 -76.5t-49.5 -181.5zM416 301q0 48 -13 78
l-263 -301q32 -36 89 -36q89 0 138 76.5t49 182.5z" />
    <glyph glyph-name="ugrave" unicode="&#xf9;" horiz-adv-x="513" 
d="M216 739l153 -107l-15 -36l-165 83zM468 459l-58 -409q-2 -16 -2 -21q0 -12 5 -29q-19 -10 -39 -10q-25 0 -25 35q0 6 1 13l10 77q-32 -58 -79.5 -91.5t-105.5 -33.5t-89 34.5t-31 97.5q0 20 3 43l47 329q20 9 32 9q25 0 25 -31q0 -5 -1 -13l-39 -276q-3 -19 -3 -37
q0 -104 80 -104q68 0 117 52.5t62 147.5l36 252q18 9 30 9q25 0 25 -31q0 -5 -1 -13z" />
    <glyph glyph-name="uacute" unicode="&#xfa;" horiz-adv-x="513" 
d="M402 739l27 -60l-165 -83l-15 36zM468 459l-58 -409q-2 -16 -2 -21q0 -12 5 -29q-19 -10 -39 -10q-25 0 -25 35q0 6 1 13l10 77q-32 -58 -79.5 -91.5t-105.5 -33.5t-89 34.5t-31 97.5q0 20 3 43l47 329q20 9 32 9q25 0 25 -31q0 -5 -1 -13l-39 -276q-3 -19 -3 -37
q0 -104 80 -104q68 0 117 52.5t62 147.5l36 252q18 9 30 9q25 0 25 -31q0 -5 -1 -13z" />
    <glyph glyph-name="ucircumflex" unicode="&#xfb;" horiz-adv-x="513" 
d="M186 596l-15 36l151 104l1 1h1l1 -1l123 -104l-25 -36l-110 66zM468 459l-58 -409q-2 -16 -2 -21q0 -12 5 -29q-19 -10 -39 -10q-25 0 -25 35q0 6 1 13l10 77q-32 -58 -79.5 -91.5t-105.5 -33.5t-89 34.5t-31 97.5q0 20 3 43l47 329q20 9 32 9q25 0 25 -31q0 -5 -1 -13
l-39 -276q-3 -19 -3 -37q0 -104 80 -104q68 0 117 52.5t62 147.5l36 252q18 9 30 9q25 0 25 -31q0 -5 -1 -13z" />
    <glyph glyph-name="udieresis" unicode="&#xfc;" horiz-adv-x="513" 
d="M230 600q-37 0 -37 34q0 44 43 44q37 0 37 -34q0 -44 -43 -44zM375 600q-37 0 -37 34q0 44 43 44q37 0 37 -34q0 -44 -43 -44zM468 459l-58 -409q-2 -16 -2 -21q0 -12 5 -29q-19 -10 -39 -10q-25 0 -25 35q0 6 1 13l10 77q-32 -58 -79.5 -91.5t-105.5 -33.5t-89 34.5
t-31 97.5q0 20 3 43l47 329q20 9 32 9q25 0 25 -31q0 -5 -1 -13l-39 -276q-3 -19 -3 -37q0 -104 80 -104q68 0 117 52.5t62 147.5l36 252q18 9 30 9q25 0 25 -31q0 -5 -1 -13z" />
    <glyph glyph-name="yacute" unicode="&#xfd;" horiz-adv-x="479" 
d="M382 739l27 -60l-165 -83l-15 36zM418 503l56 -13q-45 -193 -162 -391.5t-262 -338.5l-22 43q87 85 163 198q-19 3 -26 27l-110 464q14 11 34 11q28 0 36 -38l65 -291l27 -136q144 227 201 465z" />
    <glyph glyph-name="thorn" unicode="&#xfe;" horiz-adv-x="525" 
d="M337 503q69 0 107 -47t38 -134q0 -143 -72 -237.5t-201 -94.5q-46 0 -109 5l-32 -225h-61l141 1001q15 9 31 9q26 0 26 -31q0 -5 -1 -13l-50 -358q34 57 83 91t100 34zM205 40q102 0 157.5 76t55.5 188q0 70 -24.5 108.5t-72.5 38.5q-60 0 -116 -53.5t-69 -143.5
l-29 -210q64 -4 98 -4z" />
    <glyph glyph-name="ydieresis" unicode="&#xff;" horiz-adv-x="479" 
d="M210 600q-37 0 -37 34q0 44 43 44q37 0 37 -34q0 -44 -43 -44zM355 600q-37 0 -37 34q0 44 43 44q37 0 37 -34q0 -44 -43 -44zM418 503l56 -13q-45 -193 -162 -391.5t-262 -338.5l-22 43q87 85 163 198q-19 3 -26 27l-110 464q14 11 34 11q28 0 36 -38l65 -291l27 -136
q144 227 201 465z" />
    <glyph glyph-name="Amacron" unicode="&#x100;" horiz-adv-x="574" 
d="M260 891h234l-7 -48h-234zM449 0l-31 192h-282l-84 -192h-67l332 723q17 7 34 7q37 0 44 -40l123 -690h-69zM160 246h249l-67 417z" />
    <glyph glyph-name="amacron" unicode="&#x101;" 
d="M193 664h234l-7 -48h-234zM421 50q-2 -16 -2 -21q0 -12 5 -29q-19 -10 -39 -10q-25 0 -25 35q0 6 1 13l11 81q-33 -59 -83 -94t-103 -35q-69 0 -106.5 46.5t-37.5 133.5q0 144 71.5 238.5t201.5 94.5q79 0 169 -10zM202 42q60 0 116 53.5t69 142.5l30 210q-66 4 -98 4
q-102 0 -157.5 -75.5t-55.5 -187.5q0 -70 24.5 -108.5t71.5 -38.5z" />
    <glyph glyph-name="Abreve" unicode="&#x102;" horiz-adv-x="574" 
d="M517 935q-8 -59 -45 -91t-96 -32q-54 0 -83.5 26t-29.5 73q0 8 2 24h46q-1 -6 -1 -16q0 -61 68 -61q38 0 63 20.5t29 56.5h47zM449 0l-31 192h-282l-84 -192h-67l332 723q17 7 34 7q37 0 44 -40l123 -690h-69zM160 246h249l-67 417z" />
    <glyph glyph-name="abreve" unicode="&#x103;" 
d="M450 708q-8 -59 -45 -91t-96 -32q-54 0 -83.5 26t-29.5 73q0 8 2 24h46q-1 -6 -1 -16q0 -61 68 -61q38 0 63 20.5t29 56.5h47zM421 50q-2 -16 -2 -21q0 -12 5 -29q-19 -10 -39 -10q-25 0 -25 35q0 6 1 13l11 81q-33 -59 -83 -94t-103 -35q-69 0 -106.5 46.5t-37.5 133.5
q0 144 71.5 238.5t201.5 94.5q79 0 169 -10zM202 42q60 0 116 53.5t69 142.5l30 210q-66 4 -98 4q-102 0 -157.5 -75.5t-55.5 -187.5q0 -70 24.5 -108.5t71.5 -38.5z" />
    <glyph glyph-name="Aogonek" unicode="&#x104;" horiz-adv-x="574" 
d="M423 -201q32 0 65 20l10 -36q-41 -23 -86 -23q-31 0 -47.5 15t-16.5 41q0 70 124 184h-23l-31 192h-282l-84 -192h-67l332 723q17 7 34 7q37 0 44 -40l123 -690q-123 -113 -123 -179q0 -22 28 -22zM160 246h249l-67 417z" />
    <glyph glyph-name="aogonek" unicode="&#x105;" 
d="M424 0q-126 -114 -126 -179q0 -22 28 -22q31 0 66 20l9 -36q-41 -23 -86 -23q-31 0 -47.5 15t-16.5 41q0 68 120 178q-11 9 -11 31q0 6 1 13l11 81q-33 -59 -83 -94t-103 -35q-69 0 -106.5 46.5t-37.5 133.5q0 144 71.5 238.5t201.5 94.5q79 0 169 -10l-63 -443
q-2 -16 -2 -21q0 -12 5 -29zM202 42q60 0 116 53.5t69 142.5l30 210q-66 4 -98 4q-102 0 -157.5 -75.5t-55.5 -187.5q0 -70 24.5 -108.5t71.5 -38.5z" />
    <glyph glyph-name="Cacute" unicode="&#x106;" horiz-adv-x="547" 
d="M500 966l27 -60l-165 -83l-15 36zM497 53q-90 -63 -212 -63q-107 0 -164.5 68.5t-57.5 201.5q0 92 19.5 174.5t57.5 149.5t100 106.5t141 39.5q125 0 174 -108l-62 -24q-31 75 -115 75q-78 0 -136.5 -62t-85.5 -152t-27 -189q0 -103 40 -163t118 -60q114 0 186 58z" />
    <glyph glyph-name="cacute" unicode="&#x107;" horiz-adv-x="444" 
d="M402 739l27 -60l-165 -83l-15 36zM384 44q-69 -54 -166 -54q-84 0 -129 51.5t-45 145.5q0 86 27 156.5t82.5 115t130.5 44.5q47 0 84.5 -25.5t50.5 -76.5l-52 -17q-24 67 -85 67q-84 0 -130 -78t-46 -182q0 -71 31 -110t88 -39q80 0 142 54z" />
    <glyph glyph-name="Cdotaccent" unicode="&#x10a;" horiz-adv-x="547" 
d="M401 827q-37 0 -37 34q0 44 43 44q37 0 37 -34q0 -44 -43 -44zM497 53q-90 -63 -212 -63q-107 0 -164.5 68.5t-57.5 201.5q0 92 19.5 174.5t57.5 149.5t100 106.5t141 39.5q125 0 174 -108l-62 -24q-31 75 -115 75q-78 0 -136.5 -62t-85.5 -152t-27 -189q0 -103 40 -163
t118 -60q114 0 186 58z" />
    <glyph glyph-name="cdotaccent" unicode="&#x10b;" horiz-adv-x="444" 
d="M303 600q-37 0 -37 34q0 44 43 44q37 0 37 -34q0 -44 -43 -44zM384 44q-69 -54 -166 -54q-84 0 -129 51.5t-45 145.5q0 86 27 156.5t82.5 115t130.5 44.5q47 0 84.5 -25.5t50.5 -76.5l-52 -17q-24 67 -85 67q-84 0 -130 -78t-46 -182q0 -71 31 -110t88 -39q80 0 142 54z
" />
    <glyph glyph-name="Ccaron" unicode="&#x10c;" horiz-adv-x="547" 
d="M392 824l-1 1l-123 104l25 36l110 -66l127 66l15 -36l-151 -104l-1 -1h-1zM287 47q114 0 186 58l24 -52q-90 -63 -212 -63q-107 0 -164.5 68.5t-57.5 201.5q0 92 19.5 174.5t57.5 149.5t100 106.5t141 39.5q125 0 174 -108l-62 -24q-31 75 -115 75q-78 0 -136.5 -62
t-85.5 -152t-27 -189q0 -103 40 -163t118 -60z" />
    <glyph glyph-name="ccaron" unicode="&#x10d;" horiz-adv-x="444" 
d="M294 597l-1 1l-123 104l25 36l110 -66l127 66l15 -36l-151 -104l-1 -1h-1zM282 451q-84 0 -130 -78t-46 -182q0 -71 31 -110t88 -39q80 0 142 54l17 -52q-69 -54 -166 -54q-84 0 -129 51.5t-45 145.5q0 86 27 156.5t82.5 115t130.5 44.5q47 0 84.5 -25.5t50.5 -76.5
l-52 -17q-24 67 -85 67z" />
    <glyph glyph-name="Dcaron" unicode="&#x10e;" horiz-adv-x="612" 
d="M342 824l-1 1l-123 104l25 36l110 -66l127 66l15 -36l-151 -104l-1 -1h-1zM308 730q131 0 202 -75.5t71 -212.5q0 -127 -42.5 -228t-128 -162.5t-201.5 -61.5q-67 0 -155 10l101 720q95 10 153 10zM214 44q95 0 165 56t103.5 144t33.5 194q0 113 -55 175.5t-156 62.5
q-39 0 -93 -6l-87 -621q40 -5 89 -5z" />
    <glyph glyph-name="dcaron" unicode="&#x10f;" horiz-adv-x="542" 
d="M519 736l-98 -686q-2 -16 -2 -21q0 -12 5 -29q-19 -10 -39 -10q-25 0 -25 35q0 6 1 13l11 82q-34 -59 -84 -94.5t-103 -35.5q-69 0 -106.5 46.5t-37.5 133.5q0 144 71.5 238.5t201.5 94.5q46 0 111 -5l39 273q16 9 31 9q25 0 25 -31q0 -5 -1 -13zM596 780l62 -17
l-82 -201l-39 12zM201 42q60 0 117 53.5t70 142.5l30 210q-68 4 -100 4q-102 0 -157.5 -75.5t-55.5 -187.5q0 -70 24.5 -108.5t71.5 -38.5z" />
    <glyph glyph-name="Dcroat" unicode="&#x110;" horiz-adv-x="612" 
d="M308 730q131 0 202 -75.5t71 -212.5q0 -127 -42.5 -228t-128 -162.5t-201.5 -61.5q-67 0 -155 10l48 341h-71l7 49h71l46 330q95 10 153 10zM214 44q95 0 165 56t103.5 144t33.5 194q0 113 -55 175.5t-156 62.5q-39 0 -93 -6l-39 -280h147l-7 -49h-147l-41 -292
q40 -5 89 -5z" />
    <glyph glyph-name="dcroat" unicode="&#x111;" 
d="M501 612l-80 -562q-2 -16 -2 -21q0 -12 5 -29q-19 -10 -39 -10q-25 0 -25 35q0 6 1 13l11 82q-34 -59 -84 -94.5t-103 -35.5q-69 0 -106.5 46.5t-37.5 133.5q0 144 71.5 238.5t201.5 94.5q46 0 111 -5l16 114h-161l7 49h161l16 110q16 9 31 9q25 0 25 -31q0 -5 -1 -13
l-11 -75h61l-7 -49h-61zM388 238l30 210q-68 4 -100 4q-102 0 -157.5 -75.5t-55.5 -187.5q0 -70 24.5 -108.5t71.5 -38.5q60 0 117 53.5t70 142.5z" />
    <glyph glyph-name="Emacron" unicode="&#x112;" horiz-adv-x="495" 
d="M464 891l-7 -48h-234l7 48h234zM494 666h-283l-37 -266h253l-8 -54h-252l-41 -292h294l-8 -54h-358l101 720h348z" />
    <glyph glyph-name="emacron" unicode="&#x113;" horiz-adv-x="463" 
d="M428 664l-7 -48h-234l7 48h234zM211 41q87 0 156 43l19 -44q-78 -50 -180 -50q-79 0 -121.5 48t-42.5 136q0 137 68 233t185 96q66 0 101.5 -33.5t35.5 -94.5q0 -89 -58 -136.5t-155 -47.5q-55 0 -117 15q-1 -10 -1 -30q0 -65 28 -100t82 -35zM284 451
q-71 0 -116.5 -57.5t-60.5 -144.5q57 -12 113 -12q69 0 110 35.5t41 95.5q0 40 -22.5 61.5t-64.5 21.5z" />
    <glyph glyph-name="Edotaccent" unicode="&#x116;" horiz-adv-x="495" 
d="M341 827q-37 0 -37 34q0 44 43 44q37 0 37 -34q0 -44 -43 -44zM494 666h-283l-37 -266h253l-8 -54h-252l-41 -292h294l-8 -54h-358l101 720h348z" />
    <glyph glyph-name="edotaccent" unicode="&#x117;" horiz-adv-x="463" 
d="M305 600q-37 0 -37 34q0 44 43 44q37 0 37 -34q0 -44 -43 -44zM211 41q87 0 156 43l19 -44q-78 -50 -180 -50q-79 0 -121.5 48t-42.5 136q0 137 68 233t185 96q66 0 101.5 -33.5t35.5 -94.5q0 -89 -58 -136.5t-155 -47.5q-55 0 -117 15q-1 -10 -1 -30q0 -65 28 -100
t82 -35zM284 451q-71 0 -116.5 -57.5t-60.5 -144.5q57 -12 113 -12q69 0 110 35.5t41 95.5q0 40 -22.5 61.5t-64.5 21.5z" />
    <glyph glyph-name="Eogonek" unicode="&#x118;" horiz-adv-x="495" 
d="M494 666h-283l-37 -266h253l-8 -54h-252l-41 -292h294l-8 -54q-123 -113 -123 -179q0 -22 28 -22q32 0 65 20l10 -36q-41 -23 -86 -23q-31 0 -47.5 15t-16.5 41q0 70 124 184h-312l101 720h348z" />
    <glyph glyph-name="eogonek" unicode="&#x119;" horiz-adv-x="463" 
d="M386 40q-70 -58 -118 -117.5t-48 -101.5q0 -22 28 -22q31 0 66 20l9 -36q-41 -23 -86 -23q-31 0 -47.5 15t-16.5 41q0 72 118 183q-41 -9 -85 -9q-79 0 -121.5 48t-42.5 136q0 137 68 233t185 96q66 0 101.5 -33.5t35.5 -94.5q0 -89 -58 -136.5t-155 -47.5q-55 0 -117 15
q-1 -10 -1 -30q0 -65 28 -100t82 -35q87 0 156 43zM284 451q-71 0 -116.5 -57.5t-60.5 -144.5q57 -12 113 -12q69 0 110 35.5t41 95.5q0 40 -22.5 61.5t-64.5 21.5z" />
    <glyph glyph-name="Ecaron" unicode="&#x11a;" horiz-adv-x="495" 
d="M332 824l-1 1l-123 104l25 36l110 -66l127 66l15 -36l-151 -104l-1 -1h-1zM494 666h-283l-37 -266h253l-8 -54h-252l-41 -292h294l-8 -54h-358l101 720h348z" />
    <glyph glyph-name="ecaron" unicode="&#x11b;" horiz-adv-x="463" 
d="M296 597l-1 1l-123 104l25 36l110 -66l127 66l15 -36l-151 -104l-1 -1h-1zM219 191q-55 0 -117 15q-1 -10 -1 -30q0 -65 28 -100t82 -35q87 0 156 43l19 -44q-78 -50 -180 -50q-79 0 -121.5 48t-42.5 136q0 137 68 233t185 96q66 0 101.5 -33.5t35.5 -94.5
q0 -89 -58 -136.5t-155 -47.5zM284 451q-71 0 -116.5 -57.5t-60.5 -144.5q57 -12 113 -12q69 0 110 35.5t41 95.5q0 40 -22.5 61.5t-64.5 21.5z" />
    <glyph glyph-name="Gbreve" unicode="&#x11e;" horiz-adv-x="606" 
d="M556 935q-8 -59 -45 -91t-96 -32q-54 0 -83.5 26t-29.5 73q0 8 2 24h46q-1 -6 -1 -16q0 -61 68 -61q38 0 63 20.5t29 56.5h47zM518 46q-1 -8 -1 -17q0 -17 5 -29q-20 -10 -42 -10q-27 0 -27 34q0 8 1 15l11 86q-33 -66 -82.5 -100.5t-105.5 -34.5q-103 0 -159 68t-56 200
q0 94 20 177t59 150t103 106t145 39q125 0 174 -108l-61 -24q-32 75 -119 75q-80 0 -140 -61.5t-87.5 -151t-27.5 -190.5q0 -104 40.5 -163.5t121.5 -59.5q66 0 122 55t70 152l11 77h-165l8 54h229z" />
    <glyph glyph-name="gbreve" unicode="&#x11f;" horiz-adv-x="525" 
d="M468 708q-8 -59 -45 -91t-96 -32q-54 0 -83.5 26t-29.5 73q0 8 2 24h46q-1 -6 -1 -16q0 -61 68 -61q38 0 63 20.5t29 56.5h47zM315 503q80 0 170 -10l-75 -535q-13 -93 -68.5 -145.5t-141.5 -52.5q-106 0 -173 50l34 44q57 -43 142 -43q61 0 99 41t49 118l20 147
q-33 -58 -83 -92.5t-102 -34.5q-69 0 -106.5 46.5t-37.5 133.5q0 144 71.5 238.5t201.5 94.5zM388 238l29 210q-66 4 -98 4q-102 0 -157.5 -75.5t-55.5 -187.5q0 -70 24.5 -108.5t71.5 -38.5q60 0 116.5 53.5t69.5 142.5z" />
    <glyph glyph-name="Gdotaccent" unicode="&#x120;" horiz-adv-x="606" 
d="M410 827q-37 0 -37 34q0 44 43 44q37 0 37 -34q0 -44 -43 -44zM518 46q-1 -8 -1 -17q0 -17 5 -29q-20 -10 -42 -10q-27 0 -27 34q0 8 1 15l11 86q-33 -66 -82.5 -100.5t-105.5 -34.5q-103 0 -159 68t-56 200q0 94 20 177t59 150t103 106t145 39q125 0 174 -108l-61 -24
q-32 75 -119 75q-80 0 -140 -61.5t-87.5 -151t-27.5 -190.5q0 -104 40.5 -163.5t121.5 -59.5q66 0 122 55t70 152l11 77h-165l8 54h229z" />
    <glyph glyph-name="gdotaccent" unicode="&#x121;" horiz-adv-x="525" 
d="M322 600q-37 0 -37 34q0 44 43 44q37 0 37 -34q0 -44 -43 -44zM315 503q80 0 170 -10l-75 -535q-13 -93 -68.5 -145.5t-141.5 -52.5q-106 0 -173 50l34 44q57 -43 142 -43q61 0 99 41t49 118l20 147q-33 -58 -83 -92.5t-102 -34.5q-69 0 -106.5 46.5t-37.5 133.5
q0 144 71.5 238.5t201.5 94.5zM388 238l29 210q-66 4 -98 4q-102 0 -157.5 -75.5t-55.5 -187.5q0 -70 24.5 -108.5t71.5 -38.5q60 0 116.5 53.5t69.5 142.5z" />
    <glyph glyph-name="Gcommaaccent" unicode="&#x122;" horiz-adv-x="606" 
d="M518 46q-1 -8 -1 -17q0 -17 5 -29q-20 -10 -42 -10q-27 0 -27 34q0 8 1 15l11 86q-33 -66 -82.5 -100.5t-105.5 -34.5q-103 0 -159 68t-56 200q0 94 20 177t59 150t103 106t145 39q125 0 174 -108l-61 -24q-32 75 -119 75q-80 0 -140 -61.5t-87.5 -151t-27.5 -190.5
q0 -104 40.5 -163.5t121.5 -59.5q66 0 122 55t70 152l11 77h-165l8 54h229zM255 -73q36 0 36 -43q0 -81 -77 -125l-9 20q49 32 56 82q-9 -4 -19 -4q-27 0 -27 27q0 19 10.5 31t29.5 12z" />
    <glyph glyph-name="gcommaaccent" unicode="&#x123;" horiz-adv-x="525" 
d="M335 671q27 0 27 -28q0 -19 -10.5 -31t-30.5 -12q-34 0 -34 43q0 64 73 102l9 -20q-42 -19 -51 -57q9 3 17 3zM315 503q80 0 170 -10l-75 -535q-13 -93 -68.5 -145.5t-141.5 -52.5q-106 0 -173 50l34 44q57 -43 142 -43q61 0 99 41t49 118l20 147q-33 -58 -83 -92.5
t-102 -34.5q-69 0 -106.5 46.5t-37.5 133.5q0 144 71.5 238.5t201.5 94.5zM388 238l29 210q-66 4 -98 4q-102 0 -157.5 -75.5t-55.5 -187.5q0 -70 24.5 -108.5t71.5 -38.5q60 0 116.5 53.5t69.5 142.5z" />
    <glyph glyph-name="Hbar" unicode="&#x126;" horiz-adv-x="655" 
d="M673 597l-8 -49h-56l-77 -548h-63l48 339h-352l-47 -339h-64l78 548h-60l7 49h59l18 124q14 9 30 9q28 0 28 -35q0 -6 -1 -14l-12 -84h352l18 124q13 9 30 9q28 0 28 -35q0 -6 -1 -14l-12 -84h57zM525 393l22 155h-353l-21 -155h352z" />
    <glyph glyph-name="hbar" unicode="&#x127;" 
d="M464 322l-39 -276q-1 -8 -1 -17q0 -17 5 -29q-20 -10 -41 -10q-26 0 -26 34q0 5 1 12l39 272q3 22 3 41q0 49 -20 75.5t-58 26.5q-74 0 -126.5 -57.5t-66.5 -158.5l-33 -235h-61l87 612h-61l7 49h60l16 110q15 9 31 9q25 0 25 -31q0 -5 -1 -13l-10 -75h161l-7 -49h-161
l-33 -235q70 126 189 126q60 0 92.5 -36t32.5 -100q0 -13 -4 -45z" />
    <glyph glyph-name="Imacron" unicode="&#x12a;" horiz-adv-x="240" 
d="M91 891h234l-7 -48h-234zM117 0h-63l102 721q14 9 30 9q28 0 28 -35q0 -6 -1 -14z" />
    <glyph glyph-name="imacron" unicode="&#x12b;" horiz-adv-x="211" 
d="M45 664h234l-7 -48h-234zM169 493l-62 -447q-1 -8 -1 -17q0 -17 5 -29q-19 -10 -41 -10q-26 0 -26 34q0 5 1 12l63 457h61z" />
    <glyph glyph-name="Iogonek" unicode="&#x12e;" horiz-adv-x="240" 
d="M186 730q28 0 28 -35q0 -6 -1 -14l-96 -681q-123 -113 -123 -179q0 -22 28 -22q32 0 65 20l10 -36q-41 -23 -86 -23q-31 0 -47.5 15t-16.5 41q0 70 124 184h-17l102 721q14 9 30 9z" />
    <glyph glyph-name="iogonek" unicode="&#x12f;" horiz-adv-x="211" 
d="M162 678q37 0 37 -34q0 -44 -43 -44q-37 0 -37 34q0 44 43 44zM169 493l-62 -447q-1 -8 -1 -17q0 -17 5 -29q-94 -112 -94 -179q0 -22 28 -22q31 0 66 20l10 -36q-42 -23 -87 -23q-30 0 -47 15t-17 41q0 68 92 175q-18 7 -18 33q0 5 1 12l63 457h61z" />
    <glyph glyph-name="Idotaccent" unicode="&#x130;" horiz-adv-x="240" 
d="M202 827q-37 0 -37 34q0 44 43 44q37 0 37 -34q0 -44 -43 -44zM117 0h-63l102 721q14 9 30 9q28 0 28 -35q0 -6 -1 -14z" />
    <glyph glyph-name="dotlessi" unicode="&#x131;" horiz-adv-x="211" 
d="M169 493l-62 -447q-1 -8 -1 -17q0 -17 5 -29q-19 -10 -41 -10q-26 0 -26 34q0 5 1 12l63 457h61z" />
    <glyph glyph-name="Kcommaaccent" unicode="&#x136;" horiz-adv-x="546" 
d="M214 695q0 -6 -1 -14l-96 -681h-63l102 721q14 9 30 9q28 0 28 -35zM575 717l-327 -348l261 -365q-17 -14 -40 -14q-37 0 -58 31l-238 343l339 366zM240 -73q36 0 36 -43q0 -81 -77 -125l-9 20q49 32 56 82q-9 -4 -19 -4q-27 0 -27 27q0 19 10.5 31t29.5 12z" />
    <glyph glyph-name="kcommaaccent" unicode="&#x137;" horiz-adv-x="463" 
d="M205 749q0 -5 -1 -13l-103 -736h-61l109 771q15 9 31 9q25 0 25 -31zM467 490l-253 -226l211 -263q-17 -11 -40 -11q-31 0 -56 32l-190 239l269 242zM192 -73q36 0 36 -43q0 -81 -77 -125l-9 20q49 32 56 82q-9 -4 -19 -4q-27 0 -27 27q0 19 10.5 31t29.5 12z" />
    <glyph glyph-name="Lacute" unicode="&#x139;" horiz-adv-x="426" 
d="M328 906l-165 -83l-15 36l153 107zM125 55h255l-8 -55h-318l102 721q14 9 30 9q28 0 28 -35q0 -6 -1 -14z" />
    <glyph glyph-name="lacute" unicode="&#x13a;" horiz-adv-x="222" 
d="M294 1016l27 -60l-165 -83l-15 36zM108 -10q-30 0 -46.5 15.5t-16.5 43.5q0 6 3 24l98 698q15 9 31 9q25 0 25 -31q0 -5 -1 -13l-90 -651q-3 -18 -3 -22q0 -21 19 -21q18 0 37 8l5 -43q-24 -17 -61 -17z" />
    <glyph glyph-name="Lcommaaccent" unicode="&#x13b;" horiz-adv-x="426" 
d="M125 55h255l-8 -55h-318l102 721q14 9 30 9q28 0 28 -35q0 -6 -1 -14zM198 -73q36 0 36 -43q0 -81 -77 -125l-9 20q49 32 56 82q-9 -4 -19 -4q-27 0 -27 27q0 19 10.5 31t29.5 12z" />
    <glyph glyph-name="lcommaaccent" unicode="&#x13c;" horiz-adv-x="222" 
d="M108 -10q-30 0 -46.5 15.5t-16.5 43.5q0 6 3 24l98 698q15 9 31 9q25 0 25 -31q0 -5 -1 -13l-90 -651q-3 -18 -3 -22q0 -21 19 -21q18 0 37 8l5 -43q-24 -17 -61 -17zM67 -73q36 0 36 -43q0 -81 -77 -125l-9 20q49 32 56 82q-9 -4 -19 -4q-27 0 -27 27q0 19 10.5 31
t29.5 12z" />
    <glyph glyph-name="Lcaron" unicode="&#x13d;" horiz-adv-x="429" 
d="M213 681l-88 -626h255l-8 -55h-318l102 721q14 9 30 9q28 0 28 -35q0 -6 -1 -14zM411 713l-82 -201l-39 12l59 206z" />
    <glyph glyph-name="lcaron" unicode="&#x13e;" horiz-adv-x="240" 
d="M108 -10q-30 0 -46.5 15.5t-16.5 43.5q0 6 3 24l98 698q15 9 31 9q25 0 25 -31q0 -5 -1 -13l-90 -651q-3 -18 -3 -22q0 -21 19 -21q18 0 37 8l5 -43q-24 -17 -61 -17zM295 780l62 -17l-82 -201l-39 12z" />
    <glyph glyph-name="Lslash" unicode="&#x141;" horiz-adv-x="432" 
d="M130 55h255l-8 -55h-318l44 313l-72 -46l8 56l72 46l50 352q14 9 30 9q28 0 28 -35q0 -6 -1 -14l-38 -273l150 95l-7 -57l-151 -94z" />
    <glyph glyph-name="lslash" unicode="&#x142;" horiz-adv-x="267" 
d="M178 376l-40 -291q-3 -18 -3 -22q0 -21 19 -21q18 0 37 8l5 -43q-24 -17 -61 -17q-30 0 -46.5 15.5t-16.5 43.5q0 6 3 24l35 249l-65 -55l8 56l65 55l55 393q15 9 31 9q25 0 25 -31q0 -5 -1 -13l-42 -304l84 71l-8 -57z" />
    <glyph glyph-name="Nacute" unicode="&#x143;" horiz-adv-x="656" 
d="M512 966l27 -60l-165 -83l-15 36zM571 720h62l-100 -720h-50l-286 600l-81 -600h-62l102 721q13 9 27 9q23 0 38 -32l269 -576z" />
    <glyph glyph-name="nacute" unicode="&#x144;" 
d="M433 739l27 -60l-165 -83l-15 36zM463 322l-39 -276q-1 -8 -1 -17q0 -17 5 -29q-20 -10 -41 -10q-26 0 -26 34q0 5 1 12l39 272q3 22 3 41q0 49 -20 75.5t-58 26.5q-74 0 -126 -57.5t-66 -158.5l-33 -235h-61l68 494q16 9 30 9q26 0 26 -34q0 -6 -1 -14l-9 -77
q70 125 188 125q60 0 92.5 -36t32.5 -100q0 -13 -4 -45z" />
    <glyph glyph-name="Ncommaaccent" unicode="&#x145;" horiz-adv-x="656" 
d="M571 720h62l-100 -720h-50l-286 600l-81 -600h-62l102 721q13 9 27 9q23 0 38 -32l269 -576zM280 -73q36 0 36 -43q0 -81 -77 -125l-9 20q49 32 56 82q-9 -4 -19 -4q-27 0 -27 27q0 19 10.5 31t29.5 12z" />
    <glyph glyph-name="ncommaaccent" unicode="&#x146;" 
d="M463 322l-39 -276q-1 -8 -1 -17q0 -17 5 -29q-20 -10 -41 -10q-26 0 -26 34q0 5 1 12l39 272q3 22 3 41q0 49 -20 75.5t-58 26.5q-74 0 -126 -57.5t-66 -158.5l-33 -235h-61l68 494q16 9 30 9q26 0 26 -34q0 -6 -1 -14l-9 -77q70 125 188 125q60 0 92.5 -36t32.5 -100
q0 -13 -4 -45zM229 -73q36 0 36 -43q0 -81 -77 -125l-9 20q49 32 56 82q-9 -4 -19 -4q-27 0 -27 27q0 19 10.5 31t29.5 12z" />
    <glyph glyph-name="Ncaron" unicode="&#x147;" horiz-adv-x="656" 
d="M404 824l-1 1l-123 104l25 36l110 -66l127 66l15 -36l-151 -104l-1 -1h-1zM571 720h62l-100 -720h-50l-286 600l-81 -600h-62l102 721q13 9 27 9q23 0 38 -32l269 -576z" />
    <glyph glyph-name="ncaron" unicode="&#x148;" 
d="M325 597l-1 1l-123 104l25 36l110 -66l127 66l15 -36l-151 -104l-1 -1h-1zM342 503q60 0 92.5 -36t32.5 -100q0 -13 -4 -45l-39 -276q-1 -8 -1 -17q0 -17 5 -29q-20 -10 -41 -10q-26 0 -26 34q0 5 1 12l39 272q3 22 3 41q0 49 -20 75.5t-58 26.5q-74 0 -126 -57.5
t-66 -158.5l-33 -235h-61l68 494q16 9 30 9q26 0 26 -34q0 -6 -1 -14l-9 -77q70 125 188 125z" />
    <glyph glyph-name="Eng" unicode="&#x14a;" horiz-adv-x="656" 
d="M572 720h62l-111 -784q-11 -79 -53 -124t-106 -45q-53 0 -93 20l20 54q31 -17 71 -17q86 0 103 129l9 66l-277 581l-81 -600h-62l102 721q13 9 27 9q23 0 38 -32l268 -573z" />
    <glyph glyph-name="eng" unicode="&#x14b;" 
d="M342 503q60 0 92.5 -36t32.5 -100q0 -13 -4 -45l-58 -412q-16 -114 -106 -151l-24 48q58 30 71 121l55 380q3 22 3 41q0 49 -20 75.5t-58 26.5q-74 0 -126 -57.5t-66 -158.5l-33 -235h-61l68 494q16 9 30 9q26 0 26 -34q0 -6 -1 -14l-9 -77q70 125 188 125z" />
    <glyph glyph-name="Omacron" unicode="&#x14c;" horiz-adv-x="674" 
d="M310 891h234l-7 -48h-234zM302 -10q-115 0 -177 73.5t-62 207.5q0 123 37 225.5t115.5 168t185.5 65.5q115 0 178 -73.5t63 -207.5q0 -123 -37.5 -225.5t-116.5 -168t-186 -65.5zM306 47q87 0 150 60t92 148.5t29 191.5q0 108 -46 167t-131 59q-87 0 -150 -60t-92 -148.5
t-29 -191.5q0 -108 46 -167t131 -59z" />
    <glyph glyph-name="omacron" unicode="&#x14d;" 
d="M202 664h234l-7 -48h-234zM227 -10q-89 0 -136 52t-47 148q0 134 67 223.5t183 89.5q89 0 137 -52.5t48 -147.5q0 -133 -67.5 -223t-184.5 -90zM229 42q89 0 138 76.5t49 182.5q0 71 -32 110.5t-91 39.5q-89 0 -138.5 -76.5t-49.5 -181.5q0 -72 32 -111.5t92 -39.5z" />
    <glyph glyph-name="Ohungarumlaut" unicode="&#x150;" horiz-adv-x="674" 
d="M444 978l43 -48l-145 -124l-25 30zM560 978l43 -48l-145 -124l-25 30zM302 -10q-115 0 -177 73.5t-62 207.5q0 123 37 225.5t115.5 168t185.5 65.5q115 0 178 -73.5t63 -207.5q0 -123 -37.5 -225.5t-116.5 -168t-186 -65.5zM306 47q87 0 150 60t92 148.5t29 191.5
q0 108 -46 167t-131 59q-87 0 -150 -60t-92 -148.5t-29 -191.5q0 -108 46 -167t131 -59z" />
    <glyph glyph-name="ohungarumlaut" unicode="&#x151;" 
d="M336 751l43 -48l-145 -124l-25 30zM452 751l43 -48l-145 -124l-25 30zM227 -10q-89 0 -136 52t-47 148q0 134 67 223.5t183 89.5q89 0 137 -52.5t48 -147.5q0 -133 -67.5 -223t-184.5 -90zM229 42q89 0 138 76.5t49 182.5q0 71 -32 110.5t-91 39.5q-89 0 -138.5 -76.5
t-49.5 -181.5q0 -72 32 -111.5t92 -39.5z" />
    <glyph glyph-name="OE" unicode="&#x152;" horiz-adv-x="924" 
d="M925 666h-266l-37 -266h235l-9 -54h-233l-41 -292h275l-8 -54h-339l20 145q-85 -155 -239 -155q-106 0 -163 72t-57 204q0 121 34 224t108.5 171.5t175.5 68.5q78 0 129 -40.5t72 -117.5l21 148h330zM297 47q85 0 146 61.5t88.5 150.5t27.5 191q0 107 -44.5 165
t-127.5 58q-63 0 -113.5 -35t-81.5 -93.5t-47 -129t-16 -146.5q0 -106 43.5 -164t124.5 -58z" />
    <glyph glyph-name="oe" unicode="&#x153;" horiz-adv-x="810" 
d="M558 41q88 0 157 43l19 -44q-78 -50 -180 -50q-60 0 -98 32.5t-49 93.5q-63 -126 -189 -126q-84 0 -128.5 52t-44.5 148q0 134 64 223.5t176 89.5q130 0 157 -139q30 65 81.5 102t119.5 37q65 0 100.5 -33.5t35.5 -94.5q0 -89 -58 -136.5t-155 -47.5q-61 0 -116 15
q-1 -10 -1 -30q0 -65 28 -100t81 -35zM220 42q84 0 130.5 76.5t46.5 182.5q0 72 -29.5 111t-83.5 39q-84 0 -131 -76.5t-47 -181.5q0 -72 29.5 -111.5t84.5 -39.5zM631 451q-70 0 -115.5 -57.5t-60.5 -144.5q57 -12 112 -12q69 0 110.5 35.5t41.5 95.5q0 40 -23 61.5
t-65 21.5z" />
    <glyph glyph-name="Racute" unicode="&#x154;" horiz-adv-x="574" 
d="M447 966l27 -60l-165 -83l-15 36zM390 352q116 -31 116 -146q0 -17 -2 -32l-18 -128q-2 -14 -2 -17q0 -12 5 -29q-20 -10 -42 -10q-27 0 -27 34q0 5 1 12l18 130q2 14 2 29q0 59 -37.5 92t-104.5 33h-136l-45 -320h-64l101 720q110 10 171 10q106 0 163 -43t57 -122
q0 -78 -41.5 -133t-114.5 -80zM478 554q0 58 -41.5 90t-119.5 32q-35 0 -105 -4l-42 -298h102q92 0 149 48.5t57 131.5z" />
    <glyph glyph-name="racute" unicode="&#x155;" horiz-adv-x="364" 
d="M330 739l27 -60l-165 -83l-15 36zM325 503q32 0 59 -16l-25 -58q-20 16 -53 16q-65 0 -113 -61t-63 -169l-29 -215h-61l68 494q16 9 30 9q26 0 26 -34q0 -6 -1 -14l-10 -81q66 129 172 129z" />
    <glyph glyph-name="Rcommaaccent" unicode="&#x156;" horiz-adv-x="574" 
d="M390 352q116 -31 116 -146q0 -17 -2 -32l-18 -128q-2 -14 -2 -17q0 -12 5 -29q-20 -10 -42 -10q-27 0 -27 34q0 5 1 12l18 130q2 14 2 29q0 59 -37.5 92t-104.5 33h-136l-45 -320h-64l101 720q110 10 171 10q106 0 163 -43t57 -122q0 -78 -41.5 -133t-114.5 -80zM478 554
q0 58 -41.5 90t-119.5 32q-35 0 -105 -4l-42 -298h102q92 0 149 48.5t57 131.5zM242 -73q36 0 36 -43q0 -81 -77 -125l-9 20q49 32 56 82q-9 -4 -19 -4q-27 0 -27 27q0 19 10.5 31t29.5 12z" />
    <glyph glyph-name="rcommaaccent" unicode="&#x157;" horiz-adv-x="364" 
d="M325 503q32 0 59 -16l-25 -58q-20 16 -53 16q-65 0 -113 -61t-63 -169l-29 -215h-61l68 494q16 9 30 9q26 0 26 -34q0 -6 -1 -14l-10 -81q66 129 172 129zM58 -73q36 0 36 -43q0 -81 -77 -125l-9 20q49 32 56 82q-9 -4 -19 -4q-27 0 -27 27q0 19 10.5 31t29.5 12z" />
    <glyph glyph-name="Rcaron" unicode="&#x158;" horiz-adv-x="574" 
d="M339 824l-1 1l-123 104l25 36l110 -66l127 66l15 -36l-151 -104l-1 -1h-1zM390 352q116 -31 116 -146q0 -17 -2 -32l-18 -128q-2 -14 -2 -17q0 -12 5 -29q-20 -10 -42 -10q-27 0 -27 34q0 5 1 12l18 130q2 14 2 29q0 59 -37.5 92t-104.5 33h-136l-45 -320h-64l101 720
q110 10 171 10q106 0 163 -43t57 -122q0 -78 -41.5 -133t-114.5 -80zM272 374q92 0 149 48.5t57 131.5q0 58 -41.5 90t-119.5 32q-35 0 -105 -4l-42 -298h102z" />
    <glyph glyph-name="rcaron" unicode="&#x159;" horiz-adv-x="364" 
d="M222 597l-1 1l-123 104l25 36l110 -66l127 66l15 -36l-151 -104l-1 -1h-1zM325 503q32 0 59 -16l-25 -58q-20 16 -53 16q-65 0 -113 -61t-63 -169l-29 -215h-61l68 494q16 9 30 9q26 0 26 -34q0 -6 -1 -14l-10 -81q66 129 172 129z" />
    <glyph glyph-name="Sacute" unicode="&#x15a;" horiz-adv-x="493" 
d="M427 966l27 -60l-165 -83l-15 36zM317 730q95 0 172 -64l-33 -50q-62 57 -143 57q-68 0 -107.5 -40t-39.5 -102q0 -27 9 -47.5t28.5 -36.5t36 -25t46.5 -23q35 -16 55.5 -28t45.5 -33.5t37 -51.5t12 -69q0 -103 -62 -165t-167 -62q-126 0 -191 65l26 51q56 -59 165 -59
q76 0 120 42.5t44 113.5q0 28 -9 49.5t-29.5 38t-37.5 26.5t-47 24q-36 17 -55 28t-44.5 32t-37 49.5t-11.5 65.5q0 97 59 155.5t158 58.5z" />
    <glyph glyph-name="sacute" unicode="&#x15b;" horiz-adv-x="411" 
d="M357 739l27 -60l-165 -83l-15 36zM246 503q78 0 137 -39l-31 -42q-49 31 -114 31q-48 0 -77 -24.5t-29 -69.5q0 -34 25.5 -54t71.5 -38q29 -11 47 -20t38.5 -24t30.5 -35.5t10 -46.5q0 -73 -53 -112t-135 -39q-108 0 -158 46l23 40q44 -36 134 -36q55 0 91.5 24.5
t36.5 69.5q0 30 -24 48.5t-69 34.5q-29 11 -48 20t-40.5 24.5t-32 38t-10.5 51.5q0 72 49.5 112t126.5 40z" />
    <glyph glyph-name="Scedilla" unicode="&#x15e;" horiz-adv-x="493" 
d="M313 673q-68 0 -107.5 -40t-39.5 -102q0 -27 9 -47.5t28.5 -36.5t36 -25t46.5 -23q35 -16 55.5 -28t45.5 -33.5t37 -51.5t12 -69q0 -95 -53.5 -155.5t-145.5 -70.5l-43 -46q72 -25 72 -84q0 -47 -31.5 -74t-83.5 -27q-48 0 -79 28l19 33q25 -22 60 -22q29 0 47 16.5
t18 42.5q0 25 -22 40t-72 27l60 66q-108 6 -166 64l26 51q56 -59 165 -59q76 0 120 42.5t44 113.5q0 28 -9 49.5t-29.5 38t-37.5 26.5t-47 24q-36 17 -55 28t-44.5 32t-37 49.5t-11.5 65.5q0 97 59 155.5t158 58.5q95 0 172 -64l-33 -50q-62 57 -143 57z" />
    <glyph glyph-name="scedilla" unicode="&#x15f;" horiz-adv-x="411" 
d="M229 267q29 -11 47 -20t38.5 -24t30.5 -35.5t10 -46.5q0 -64 -42.5 -102.5t-111.5 -46.5l-43 -47q72 -25 72 -84q0 -47 -31.5 -74t-83.5 -27q-48 0 -79 28l19 33q25 -22 60 -22q29 0 47 16.5t18 42.5q0 25 -22 40t-72 27l59 66q-91 3 -136 45l23 40q44 -36 134 -36
q55 0 91.5 24.5t36.5 69.5q0 30 -24 48.5t-69 34.5q-29 11 -48 20t-40.5 24.5t-32 38t-10.5 51.5q0 72 49.5 112t126.5 40q78 0 137 -39l-31 -42q-49 31 -114 31q-48 0 -77 -24.5t-29 -69.5q0 -34 25.5 -54t71.5 -38z" />
    <glyph glyph-name="Scaron" unicode="&#x160;" horiz-adv-x="493" 
d="M319 824l-1 1l-123 104l25 36l110 -66l127 66l15 -36l-151 -104l-1 -1h-1zM313 673q-68 0 -107.5 -40t-39.5 -102q0 -27 9 -47.5t28.5 -36.5t36 -25t46.5 -23q35 -16 55.5 -28t45.5 -33.5t37 -51.5t12 -69q0 -103 -62 -165t-167 -62q-126 0 -191 65l26 51q56 -59 165 -59
q76 0 120 42.5t44 113.5q0 28 -9 49.5t-29.5 38t-37.5 26.5t-47 24q-36 17 -55 28t-44.5 32t-37 49.5t-11.5 65.5q0 97 59 155.5t158 58.5q95 0 172 -64l-33 -50q-62 57 -143 57z" />
    <glyph glyph-name="scaron" unicode="&#x161;" horiz-adv-x="411" 
d="M249 597l-1 1l-123 104l25 36l110 -66l127 66l15 -36l-151 -104l-1 -1h-1zM238 453q-48 0 -77 -24.5t-29 -69.5q0 -34 25.5 -54t71.5 -38q29 -11 47 -20t38.5 -24t30.5 -35.5t10 -46.5q0 -73 -53 -112t-135 -39q-108 0 -158 46l23 40q44 -36 134 -36q55 0 91.5 24.5
t36.5 69.5q0 30 -24 48.5t-69 34.5q-29 11 -48 20t-40.5 24.5t-32 38t-10.5 51.5q0 72 49.5 112t126.5 40q78 0 137 -39l-31 -42q-49 31 -114 31z" />
    <glyph glyph-name="uni0162" unicode="&#x162;" horiz-adv-x="471" 
d="M232 0h-5l-45 -54q75 -24 75 -85q0 -47 -32 -74t-84 -27q-47 0 -79 28l19 33q25 -22 60 -22q30 0 47.5 16.5t17.5 42.5q0 25 -22 40.5t-72 26.5l60 75h-4l94 666h-183l8 54h427l-8 -54h-180z" />
    <glyph glyph-name="uni0163" unicode="&#x163;" horiz-adv-x="333" 
d="M182 444l-40 -283q-3 -19 -3 -35q0 -84 63 -84q38 0 75 17l4 -51q-40 -18 -95 -18q-9 0 -14 1l-42 -46q72 -25 72 -84q0 -47 -31.5 -74t-83.5 -27q-48 0 -79 28l19 33q25 -22 60 -22q29 0 47 16.5t18 42.5q0 25 -22 40t-72 27l71 78q-52 28 -52 108q0 17 3 37l42 296h-74
l7 49h75l17 128q13 7 26 7q30 0 30 -35q0 -5 -1 -12l-13 -88h159l-7 -49h-159z" />
    <glyph glyph-name="Tcaron" unicode="&#x164;" horiz-adv-x="471" 
d="M310 824l-1 1l-123 104l25 36l110 -66l127 66l15 -36l-151 -104l-1 -1h-1zM514 720l-8 -54h-180l-94 -666h-64l94 666h-183l8 54h427z" />
    <glyph glyph-name="tcaron" unicode="&#x165;" horiz-adv-x="333" 
d="M399 763l-82 -201l-39 12l59 206zM202 581l-13 -88h159l-7 -49h-159l-40 -283q-3 -19 -3 -35q0 -84 63 -84q38 0 75 17l4 -51q-40 -18 -95 -18q-52 0 -80.5 31.5t-28.5 89.5q0 17 3 37l42 296h-74l7 49h75l17 128q13 7 26 7q30 0 30 -35q0 -5 -1 -12z" />
    <glyph glyph-name="Tbar" unicode="&#x166;" horiz-adv-x="471" 
d="M506 666h-180l-40 -281h109l-7 -49h-109l-47 -336h-64l47 336h-109l7 49h109l40 281h-183l8 54h427z" />
    <glyph glyph-name="tbar" unicode="&#x167;" horiz-adv-x="333" 
d="M341 444h-159l-24 -171h154l-7 -49h-154l-9 -63q-3 -19 -3 -35q0 -84 63 -84q38 0 75 17l4 -51q-40 -18 -95 -18q-52 0 -80.5 31.5t-28.5 89.5q0 17 3 37l11 76h-68l7 49h68l24 171h-74l7 49h75l17 128q13 7 26 7q30 0 30 -35q0 -5 -1 -12l-13 -88h159z" />
    <glyph glyph-name="Umacron" unicode="&#x16a;" horiz-adv-x="626" 
d="M287 891h234l-7 -48h-234zM485 267l65 454q12 9 29 9q27 0 27 -35q0 -6 -1 -14l-59 -421q-18 -128 -87.5 -199t-179.5 -71q-96 0 -148 55.5t-52 156.5q0 26 5 61l65 458q14 9 30 9q28 0 28 -35q0 -6 -1 -14l-58 -417q-4 -25 -4 -55q0 -78 35.5 -120t102.5 -42
q83 0 135.5 57.5t67.5 162.5z" />
    <glyph glyph-name="umacron" unicode="&#x16b;" horiz-adv-x="513" 
d="M192 664h234l-7 -48h-234zM468 459l-58 -409q-2 -16 -2 -21q0 -12 5 -29q-19 -10 -39 -10q-25 0 -25 35q0 6 1 13l10 77q-32 -58 -79.5 -91.5t-105.5 -33.5t-89 34.5t-31 97.5q0 20 3 43l47 329q20 9 32 9q25 0 25 -31q0 -5 -1 -13l-39 -276q-3 -19 -3 -37
q0 -104 80 -104q68 0 117 52.5t62 147.5l36 252q18 9 30 9q25 0 25 -31q0 -5 -1 -13z" />
    <glyph glyph-name="Uring" unicode="&#x16e;" horiz-adv-x="626" 
d="M393 789q-44 0 -68 23t-24 65q0 56 31.5 90.5t84.5 34.5q44 0 67.5 -22.5t23.5 -64.5q0 -55 -31 -90.5t-84 -35.5zM396 828q31 0 49 24.5t18 57.5q0 53 -50 53q-32 0 -49.5 -24.5t-17.5 -57.5q0 -53 50 -53zM485 267l65 454q12 9 29 9q27 0 27 -35q0 -6 -1 -14l-59 -421
q-18 -128 -87.5 -199t-179.5 -71q-96 0 -148 55.5t-52 156.5q0 26 5 61l65 458q14 9 30 9q28 0 28 -35q0 -6 -1 -14l-58 -417q-4 -25 -4 -55q0 -78 35.5 -120t102.5 -42q83 0 135.5 57.5t67.5 162.5z" />
    <glyph glyph-name="uring" unicode="&#x16f;" horiz-adv-x="513" 
d="M298 562q-44 0 -68 23t-24 65q0 56 31.5 90.5t84.5 34.5q44 0 67.5 -22.5t23.5 -64.5q0 -55 -31 -90.5t-84 -35.5zM301 601q31 0 49 24.5t18 57.5q0 53 -50 53q-32 0 -49.5 -24.5t-17.5 -57.5q0 -53 50 -53zM468 459l-58 -409q-2 -16 -2 -21q0 -12 5 -29q-19 -10 -39 -10
q-25 0 -25 35q0 6 1 13l10 77q-32 -58 -79.5 -91.5t-105.5 -33.5t-89 34.5t-31 97.5q0 20 3 43l47 329q20 9 32 9q25 0 25 -31q0 -5 -1 -13l-39 -276q-3 -19 -3 -37q0 -104 80 -104q68 0 117 52.5t62 147.5l36 252q18 9 30 9q25 0 25 -31q0 -5 -1 -13z" />
    <glyph glyph-name="Uhungarumlaut" unicode="&#x170;" horiz-adv-x="626" 
d="M421 978l43 -48l-145 -124l-25 30zM537 978l43 -48l-145 -124l-25 30zM485 267l65 454q12 9 29 9q27 0 27 -35q0 -6 -1 -14l-59 -421q-18 -128 -87.5 -199t-179.5 -71q-96 0 -148 55.5t-52 156.5q0 26 5 61l65 458q14 9 30 9q28 0 28 -35q0 -6 -1 -14l-58 -417
q-4 -25 -4 -55q0 -78 35.5 -120t102.5 -42q83 0 135.5 57.5t67.5 162.5z" />
    <glyph glyph-name="uhungarumlaut" unicode="&#x171;" horiz-adv-x="513" 
d="M326 751l43 -48l-145 -124l-25 30zM442 751l43 -48l-145 -124l-25 30zM468 459l-58 -409q-2 -16 -2 -21q0 -12 5 -29q-19 -10 -39 -10q-25 0 -25 35q0 6 1 13l10 77q-32 -58 -79.5 -91.5t-105.5 -33.5t-89 34.5t-31 97.5q0 20 3 43l47 329q20 9 32 9q25 0 25 -31
q0 -5 -1 -13l-39 -276q-3 -19 -3 -37q0 -104 80 -104q68 0 117 52.5t62 147.5l36 252q18 9 30 9q25 0 25 -31q0 -5 -1 -13z" />
    <glyph glyph-name="Uogonek" unicode="&#x172;" horiz-adv-x="626" 
d="M579 730q27 0 27 -35q0 -6 -1 -14l-59 -421q-23 -162 -123 -229q-203 -135 -203 -210q0 -22 28 -22q31 0 66 20l9 -36q-41 -23 -86 -23q-31 0 -47.5 15t-16.5 41q0 69 140 176q-22 -2 -34 -2q-96 0 -148 55.5t-52 156.5q0 26 5 61l65 458q14 9 30 9q28 0 28 -35
q0 -6 -1 -14l-58 -417q-4 -25 -4 -55q0 -78 35.5 -120t102.5 -42q83 0 135.5 57.5t67.5 162.5l65 454q12 9 29 9z" />
    <glyph glyph-name="uogonek" unicode="&#x173;" horiz-adv-x="513" 
d="M468 459l-58 -409q-2 -16 -2 -21q0 -12 5 -29q-126 -114 -126 -179q0 -22 28 -22q31 0 66 20l9 -36q-41 -23 -86 -23q-31 0 -47.5 15t-16.5 41q0 68 120 178q-11 9 -11 31q0 6 1 13l10 77q-32 -58 -79.5 -91.5t-105.5 -33.5t-89 34.5t-31 97.5q0 20 3 43l47 329
q20 9 32 9q25 0 25 -31q0 -5 -1 -13l-39 -276q-3 -19 -3 -37q0 -104 80 -104q68 0 117 52.5t62 147.5l36 252q18 9 30 9q25 0 25 -31q0 -5 -1 -13z" />
    <glyph glyph-name="Wcircumflex" unicode="&#x174;" horiz-adv-x="894" 
d="M414 823l-15 36l151 104l1 1h1l1 -1l123 -104l-25 -36l-110 66zM870 730l62 -13l-291 -717h-74l-64 562l-5 64l-22 -62l-219 -564h-74l-92 719q16 11 35 11q35 0 39 -38l61 -562l6 -73l26 75l223 586v1q14 11 31 11q16 0 28 -10t14 -29l56 -556l6 -75l29 78z" />
    <glyph glyph-name="wcircumflex" unicode="&#x175;" horiz-adv-x="724" 
d="M287 596l-15 36l151 104l1 1h1l1 -1l123 -104l-25 -36l-110 66zM662 503l53 -13q-31 -244 -214 -490h-66l-57 371q-45 -184 -177 -371h-65l-81 492q13 11 34 11q32 0 37 -38l41 -298l14 -120q150 219 177 445q13 11 31 11q29 0 34 -38l42 -299l14 -117q153 228 183 454z
" />
    <glyph glyph-name="Ycircumflex" unicode="&#x176;" horiz-adv-x="552" 
d="M244 823l-15 36l151 104l1 1h1l1 -1l123 -104l-25 -36l-110 66zM531 730l62 -13l-277 -407l-43 -310h-64l44 314l-163 405q14 11 33 11q37 0 50 -34l94 -241l31 -85l50 82z" />
    <glyph glyph-name="ycircumflex" unicode="&#x177;" horiz-adv-x="479" 
d="M166 596l-15 36l151 104l1 1h1l1 -1l123 -104l-25 -36l-110 66zM418 503l56 -13q-45 -193 -162 -391.5t-262 -338.5l-22 43q87 85 163 198q-19 3 -26 27l-110 464q14 11 34 11q28 0 36 -38l65 -291l27 -136q144 227 201 465z" />
    <glyph glyph-name="Ydieresis" unicode="&#x178;" horiz-adv-x="552" 
d="M288 827q-37 0 -37 34q0 44 43 44q37 0 37 -34q0 -44 -43 -44zM433 827q-37 0 -37 34q0 44 43 44q37 0 37 -34q0 -44 -43 -44zM593 717l-277 -407l-43 -310h-64l44 314l-163 405q14 11 33 11q37 0 50 -34l94 -241l31 -85l50 82l183 278z" />
    <glyph glyph-name="Zacute" unicode="&#x179;" horiz-adv-x="495" 
d="M426 966l27 -60l-165 -83l-15 36zM495 647l-387 -553l-32 -40h357l-9 -54h-431l6 42l407 582l31 42h-330l8 54h402q5 -12 5 -20q0 -14 -27 -53z" />
    <glyph glyph-name="zacute" unicode="&#x17a;" horiz-adv-x="415" 
d="M356 739l27 -60l-165 -83l-15 36zM384 430l-277 -345l-33 -36h278l-8 -49h-348l5 39l295 369l31 36h-255l7 49h326q4 -12 4 -18q0 -14 -25 -45z" />
    <glyph glyph-name="Zdotaccent" unicode="&#x17b;" horiz-adv-x="495" 
d="M327 827q-37 0 -37 34q0 44 43 44q37 0 37 -34q0 -44 -43 -44zM495 647l-387 -553l-32 -40h357l-9 -54h-431l6 42l407 582l31 42h-330l8 54h402q5 -12 5 -20q0 -14 -27 -53z" />
    <glyph glyph-name="zdotaccent" unicode="&#x17c;" horiz-adv-x="415" 
d="M257 600q-37 0 -37 34q0 44 43 44q37 0 37 -34q0 -44 -43 -44zM384 430l-277 -345l-33 -36h278l-8 -49h-348l5 39l295 369l31 36h-255l7 49h326q4 -12 4 -18q0 -14 -25 -45z" />
    <glyph glyph-name="Zcaron" unicode="&#x17d;" horiz-adv-x="495" 
d="M318 824l-1 1l-123 104l25 36l110 -66l127 66l15 -36l-151 -104l-1 -1h-1zM495 647l-387 -553l-32 -40h357l-9 -54h-431l6 42l407 582l31 42h-330l8 54h402q5 -12 5 -20q0 -14 -27 -53z" />
    <glyph glyph-name="zcaron" unicode="&#x17e;" horiz-adv-x="415" 
d="M248 597l-1 1l-123 104l25 36l110 -66l127 66l15 -36l-151 -104l-1 -1h-1zM384 430l-277 -345l-33 -36h278l-8 -49h-348l5 39l295 369l31 36h-255l7 49h326q4 -12 4 -18q0 -14 -25 -45z" />
    <glyph glyph-name="uni018F" unicode="&#x18f;" horiz-adv-x="600" 
d="M344 730q109 0 168 -67.5t59 -191.5q0 -126 -39 -233.5t-119.5 -177.5t-188.5 -70q-86 0 -133.5 47t-47.5 132q0 125 77.5 196.5t209.5 71.5q76 0 174 -25q2 27 2 56q0 98 -43 151.5t-123 53.5q-119 0 -209 -63l-21 49q101 71 234 71zM237 47q102 0 170 91t90 223
q-82 22 -168 22q-101 0 -161 -56t-60 -150q0 -62 33.5 -96t95.5 -34z" />
    <glyph glyph-name="florin" unicode="&#x192;" horiz-adv-x="432" 
d="M408 780q58 0 100 -21l-18 -46q-33 15 -77 15t-76 -33t-49 -91l-63 -211h149l-7 -49h-157l-130 -437q-34 -112 -122 -148l-19 50q59 30 87 122l123 413h-72l7 49h80l70 234q22 74 67.5 113.5t106.5 39.5z" />
    <glyph glyph-name="Scommaaccent" unicode="&#x218;" horiz-adv-x="493" 
d="M317 730q95 0 172 -64l-33 -50q-62 57 -143 57q-68 0 -107.5 -40t-39.5 -102q0 -27 9 -47.5t28.5 -36.5t36 -25t46.5 -23q35 -16 55.5 -28t45.5 -33.5t37 -51.5t12 -69q0 -103 -62 -165t-167 -62q-126 0 -191 65l26 51q56 -59 165 -59q76 0 120 42.5t44 113.5
q0 28 -9 49.5t-29.5 38t-37.5 26.5t-47 24q-36 17 -55 28t-44.5 32t-37 49.5t-11.5 65.5q0 97 59 155.5t158 58.5zM195 -73q36 0 36 -43q0 -81 -77 -125l-9 20q49 32 56 82q-9 -4 -19 -4q-27 0 -27 27q0 19 10.5 31t29.5 12z" />
    <glyph glyph-name="scommaaccent" unicode="&#x219;" horiz-adv-x="411" 
d="M246 503q78 0 137 -39l-31 -42q-49 31 -114 31q-48 0 -77 -24.5t-29 -69.5q0 -34 25.5 -54t71.5 -38q29 -11 47 -20t38.5 -24t30.5 -35.5t10 -46.5q0 -73 -53 -112t-135 -39q-108 0 -158 46l23 40q44 -36 134 -36q55 0 91.5 24.5t36.5 69.5q0 30 -24 48.5t-69 34.5
q-29 11 -48 20t-40.5 24.5t-32 38t-10.5 51.5q0 72 49.5 112t126.5 40zM159 -73q36 0 36 -43q0 -81 -77 -125l-9 20q49 32 56 82q-9 -4 -19 -4q-27 0 -27 27q0 19 10.5 31t29.5 12z" />
    <glyph glyph-name="uni021A" unicode="&#x21a;" horiz-adv-x="471" 
d="M514 720l-8 -54h-180l-94 -666h-64l94 666h-183l8 54h427zM186 -73q36 0 36 -43q0 -81 -77 -125l-9 20q49 32 56 82q-9 -4 -19 -4q-27 0 -27 27q0 19 10.5 31t29.5 12z" />
    <glyph glyph-name="uni021B" unicode="&#x21b;" horiz-adv-x="333" 
d="M182 444l-40 -283q-3 -19 -3 -35q0 -84 63 -84q38 0 75 17l4 -51q-40 -18 -95 -18q-52 0 -80.5 31.5t-28.5 89.5q0 17 3 37l42 296h-74l7 49h75l17 128q13 7 26 7q30 0 30 -35q0 -5 -1 -12l-13 -88h159l-7 -49h-159zM131 -73q36 0 36 -43q0 -81 -77 -125l-9 20
q49 32 56 82q-9 -4 -19 -4q-27 0 -27 27q0 19 10.5 31t29.5 12z" />
    <glyph glyph-name="uni0259" unicode="&#x259;" horiz-adv-x="498" 
d="M263 503q92 0 142.5 -49.5t50.5 -138.5q0 -139 -74 -232t-201 -93q-72 0 -111.5 34t-39.5 96q0 89 64 135.5t167 46.5q62 0 134 -15q1 11 1 25q0 67 -35 103.5t-102 36.5q-92 0 -163 -44l-21 44q80 51 188 51zM191 41q79 0 131 57t68 145q-64 13 -129 13
q-77 0 -123.5 -34.5t-46.5 -96.5q0 -40 26.5 -62t73.5 -22z" />
    <glyph glyph-name="circumflex" unicode="&#x2c6;" horiz-adv-x="307" 
d="M347 632l-25 -36l-110 66l-127 -66l-15 36l151 104l1 1h1l1 -1z" />
    <glyph glyph-name="caron" unicode="&#x2c7;" horiz-adv-x="337" 
d="M224 598l-1 -1h-1l-1 1l-123 104l25 36l110 -66l127 66l15 -36z" />
    <glyph glyph-name="breve" unicode="&#x2d8;" horiz-adv-x="301" 
d="M342 708q-8 -59 -45 -91t-96 -32q-54 0 -83.5 26t-29.5 73q0 8 2 24h46q-1 -6 -1 -16q0 -61 68 -61q38 0 63 20.5t29 56.5h47z" />
    <glyph glyph-name="dotaccent" unicode="&#x2d9;" horiz-adv-x="196" 
d="M150 600q-37 0 -37 34q0 44 43 44q37 0 37 -34q0 -44 -43 -44z" />
    <glyph glyph-name="ring" unicode="&#x2da;" horiz-adv-x="244" 
d="M170 562q-44 0 -68 23t-24 65q0 56 31.5 90.5t84.5 34.5q44 0 67.5 -22.5t23.5 -64.5q0 -55 -31 -90.5t-84 -35.5zM173 601q31 0 49 24.5t18 57.5q0 53 -50 53q-32 0 -49.5 -24.5t-17.5 -57.5q0 -53 50 -53z" />
    <glyph glyph-name="ogonek" unicode="&#x2db;" horiz-adv-x="184" 
d="M109 -217q-41 -23 -86 -23q-31 0 -47.5 15t-16.5 41q0 45 40.5 95.5t108.5 111.5l21 -23q-123 -113 -123 -179q0 -22 28 -22q32 0 65 20z" />
    <glyph glyph-name="tilde" unicode="&#x2dc;" horiz-adv-x="362" 
d="M101 612l-17 29q20 26 49 41.5t57 15.5q24 0 60 -19q30 -17 48 -17q38 0 76 35l18 -30q-48 -57 -109 -57q-24 0 -58 20q-28 16 -48 16q-39 0 -76 -34z" />
    <glyph glyph-name="hungarumlaut" unicode="&#x2dd;" horiz-adv-x="326" 
d="M205 751l43 -48l-145 -124l-25 30zM321 751l43 -48l-145 -124l-25 30z" />
    <glyph glyph-name="gravecomb" unicode="&#x300;" horiz-adv-x="0" 
d="M-106 739l153 -107l-15 -36l-165 83z" />
    <glyph glyph-name="acutecomb" unicode="&#x301;" horiz-adv-x="0" 
d="M0 739l27 -60l-165 -83l-15 36z" />
    <glyph glyph-name="uni0302" unicode="&#x302;" horiz-adv-x="0" 
d="M24 632l-25 -36l-110 66l-127 -66l-15 36l151 104l1 1h1l1 -1z" />
    <glyph glyph-name="tildecomb" unicode="&#x303;" horiz-adv-x="0" 
d="M-279 609l-17 29q20 26 49 41.5t57 15.5q24 0 60 -19q30 -17 48 -17q38 0 76 35l18 -30q-48 -57 -109 -57q-24 0 -58 20q-28 16 -48 16q-39 0 -76 -34z" />
    <glyph glyph-name="uni0304" unicode="&#x304;" horiz-adv-x="0" 
d="M-211 664h234l-7 -48h-234z" />
    <glyph glyph-name="uni0306" unicode="&#x306;" horiz-adv-x="0" 
d="M26 708q-8 -59 -45 -91t-96 -32q-54 0 -83.5 26t-29.5 73q0 8 2 24h46q-1 -6 -1 -16q0 -61 68 -61q38 0 63 20.5t29 56.5h47z" />
    <glyph glyph-name="uni0307" unicode="&#x307;" horiz-adv-x="0" 
d="M-46 600q-37 0 -37 34q0 44 43 44q37 0 37 -34q0 -44 -43 -44z" />
    <glyph glyph-name="uni0308" unicode="&#x308;" horiz-adv-x="0" 
d="M-192 600q-37 0 -37 34q0 44 43 44q37 0 37 -34q0 -44 -43 -44zM-47 600q-37 0 -37 34q0 44 43 44q37 0 37 -34q0 -44 -43 -44z" />
    <glyph glyph-name="uni030A" unicode="&#x30a;" horiz-adv-x="0" 
d="M-88 562q-44 0 -68 23t-24 65q0 56 31.5 90.5t84.5 34.5q44 0 67.5 -22.5t23.5 -64.5q0 -55 -31 -90.5t-84 -35.5zM-85 601q31 0 49 24.5t18 57.5q0 53 -50 53q-32 0 -49.5 -24.5t-17.5 -57.5q0 -53 50 -53z" />
    <glyph glyph-name="uni030B" unicode="&#x30b;" horiz-adv-x="0" 
d="M-147 751l43 -48l-145 -124l-25 30zM-31 751l43 -48l-145 -124l-25 30z" />
    <glyph glyph-name="uni030C" unicode="&#x30c;" horiz-adv-x="0" 
d="M-117 598l-1 -1h-1l-1 1l-123 104l25 36l110 -66l127 66l15 -36z" />
    <glyph glyph-name="uni0312" unicode="&#x312;" horiz-adv-x="0" 
d="M23 671q27 0 27 -28q0 -19 -10.5 -31t-30.5 -12q-34 0 -34 43q0 64 73 102l9 -20q-42 -19 -51 -57q9 3 17 3z" />
    <glyph glyph-name="uni0326" unicode="&#x326;" horiz-adv-x="0" 
d="M-101 -73q36 0 36 -43q0 -81 -77 -125l-9 20q49 32 56 82q-9 -4 -19 -4q-27 0 -27 27q0 19 10.5 31t29.5 12z" />
    <glyph glyph-name="uni0327" unicode="&#x327;" horiz-adv-x="0" 
d="M-173 -55q72 -25 72 -84q0 -47 -31.5 -74t-83.5 -27q-48 0 -79 28l19 33q25 -22 60 -22q29 0 47 16.5t18 42.5q0 25 -22 40t-72 27l78 86l45 -11z" />
    <glyph glyph-name="uni0328" unicode="&#x328;" horiz-adv-x="0" 
d="M-95 -217q-41 -23 -86 -23q-31 0 -47.5 15t-16.5 41q0 45 40.5 95.5t108.5 111.5l21 -23q-123 -113 -123 -179q0 -22 28 -22q32 0 65 20z" />
    <glyph glyph-name="uni0335" unicode="&#x335;" horiz-adv-x="0" 
d="M-313 374h282l-7 -49h-282z" />
    <glyph glyph-name="uni0336" unicode="&#x336;" horiz-adv-x="0" 
d="M-626 374l-7 -49h593l8 49h-594z" />
    <glyph glyph-name="uni0337" unicode="&#x337;" horiz-adv-x="0" 
d="M13 503l29 -28l-422 -485l-29 27z" />
    <glyph glyph-name="uni0338" unicode="&#x338;" horiz-adv-x="0" 
d="M15 733l43 -34l-551 -712l-42 34z" />
    <glyph glyph-name="uni0394" unicode="&#x394;" horiz-adv-x="586" 
d="M401 690l123 -690h-532l331 723q17 7 34 7q37 0 44 -40zM82 54h364l-99 601z" />
    <glyph glyph-name="uni03A9" unicode="&#x3a9;" horiz-adv-x="696" 
d="M659 442q0 -122 -49.5 -227t-138.5 -160l130 1l-8 -56h-222l8 54q67 21 117 82.5t73.5 139t23.5 160.5q0 109 -49.5 173t-135.5 64q-84 0 -148.5 -59t-96 -146.5t-31.5 -183.5q0 -90 33.5 -150t94.5 -80l-8 -54h-221l8 56l131 -1q-101 76 -101 241q0 113 41 211
t121 160.5t181 62.5q115 0 181 -78t66 -210z" />
    <glyph glyph-name="uni03BC" unicode="&#x3bc;" horiz-adv-x="534" 
d="M426 493h61l-70 -494q-17 -9 -32 -9q-23 0 -23 31q0 7 1 15l7 50q-65 -96 -169 -96q-59 0 -89 38l-36 -258h-61l101 723h61l-42 -310q-3 -21 -3 -39q0 -49 20 -75.5t57 -26.5q67 0 116 42.5t60 117.5z" />
    <glyph glyph-name="pi" unicode="&#x3c0;" horiz-adv-x="547" 
d="M558 493l-7 -49h-81l-61 -444h-61l61 444h-218l-61 -444h-61l61 444h-81l7 49h502z" />
    <glyph glyph-name="uni0400" unicode="&#x400;" horiz-adv-x="495" 
d="M407 859l-15 -36l-165 83l27 60zM494 666h-283l-37 -266h253l-8 -54h-252l-41 -292h294l-8 -54h-358l101 720h348z" />
    <glyph glyph-name="uni0401" unicode="&#x401;" horiz-adv-x="495" 
d="M268 827q-37 0 -37 34q0 44 43 44q37 0 37 -34q0 -44 -43 -44zM413 827q-37 0 -37 34q0 44 43 44q37 0 37 -34q0 -44 -43 -44zM494 666h-283l-37 -266h253l-8 -54h-252l-41 -292h294l-8 -54h-358l101 720h348z" />
    <glyph glyph-name="uni0402" unicode="&#x402;" horiz-adv-x="674" 
d="M486 469q73 0 112 -46t39 -131q0 -132 -69.5 -217t-191.5 -85l11 57q86 0 135.5 65.5t49.5 165.5q0 64 -28.5 99.5t-79.5 35.5q-84 0 -147 -65.5t-78 -177.5l-24 -170h-64l93 666h-164l8 54h426l-8 -54h-198l-46 -334q38 62 96.5 99.5t127.5 37.5z" />
    <glyph glyph-name="uni0403" unicode="&#x403;" horiz-adv-x="425" 
d="M430 906l-165 -83l-15 36l153 107zM466 720l-8 -54h-247l-93 -666h-64l101 720h311z" />
    <glyph glyph-name="uni0404" unicode="&#x404;" horiz-adv-x="550" 
d="M287 47q114 0 186 58l24 -52q-90 -63 -212 -63q-107 0 -164.5 68.5t-57.5 201.5q0 92 19.5 174.5t57.5 149.5t100 106.5t141 39.5q125 0 174 -108l-62 -24q-31 75 -115 75q-91 0 -152.5 -79.5t-84.5 -199.5h250l-7 -54h-251q-4 -31 -4 -70q0 -103 40 -163t118 -60z" />
    <glyph glyph-name="uni0405" unicode="&#x405;" horiz-adv-x="493" 
d="M317 730q95 0 172 -64l-33 -50q-62 57 -143 57q-68 0 -107.5 -40t-39.5 -102q0 -27 9 -47.5t28.5 -36.5t36 -25t46.5 -23q35 -16 55.5 -28t45.5 -33.5t37 -51.5t12 -69q0 -103 -62 -165t-167 -62q-126 0 -191 65l26 51q56 -59 165 -59q76 0 120 42.5t44 113.5
q0 28 -9 49.5t-29.5 38t-37.5 26.5t-47 24q-36 17 -55 28t-44.5 32t-37 49.5t-11.5 65.5q0 97 59 155.5t158 58.5z" />
    <glyph glyph-name="uni0406" unicode="&#x406;" horiz-adv-x="240" 
d="M117 0h-63l102 721q14 9 30 9q28 0 28 -35q0 -6 -1 -14z" />
    <glyph glyph-name="uni0407" unicode="&#x407;" horiz-adv-x="240" 
d="M129 827q-37 0 -37 34q0 44 43 44q37 0 37 -34q0 -44 -43 -44zM274 827q-37 0 -37 34q0 44 43 44q37 0 37 -34q0 -44 -43 -44zM117 0h-63l102 721q14 9 30 9q28 0 28 -35q0 -6 -1 -14z" />
    <glyph glyph-name="uni0408" unicode="&#x408;" horiz-adv-x="336" 
d="M179 176q-19 -129 -102 -129q-38 0 -70 16l-20 -54q38 -19 93 -19q64 0 106 44.5t53 123.5l74 523q1 8 1 14q0 35 -28 35q-15 0 -30 -9z" />
    <glyph glyph-name="uni0409" unicode="&#x409;" horiz-adv-x="907" 
d="M669 406q96 0 148 -44.5t52 -125.5q0 -111 -75.5 -178.5t-200.5 -67.5q-68 0 -156 10l93 666h-284l-92 -499q-24 -131 -130 -177l-21 45q72 38 92 144l100 541h407l-45 -319q62 5 112 5zM604 44q91 0 145 50.5t54 134.5q0 58 -38 90.5t-109 32.5q-61 0 -106 -5l-42 -299
q41 -4 96 -4z" />
    <glyph glyph-name="uni040A" unicode="&#x40a;" horiz-adv-x="939" 
d="M701 406q96 0 148 -44.5t52 -125.5q0 -111 -75.5 -178.5t-200.5 -67.5q-68 0 -156 10l48 339h-352l-47 -339h-64l102 721q14 9 30 9q28 0 28 -35q0 -6 -1 -14l-40 -288h352l46 328q13 9 30 9q28 0 28 -35q0 -6 -1 -14l-39 -280q62 5 112 5zM636 44q91 0 145 50.5
t54 134.5q0 58 -38 90.5t-109 32.5q-62 0 -107 -5l-41 -299q41 -4 96 -4z" />
    <glyph glyph-name="uni040B" unicode="&#x40b;" horiz-adv-x="694" 
d="M645 258l-31 -212q-1 -8 -1 -17q0 -17 5 -29q-20 -10 -42 -10q-28 0 -28 34q0 5 1 12l29 206q5 35 5 53q0 64 -24 91t-74 27q-92 0 -161.5 -66t-84.5 -177l-24 -170h-64l93 666h-164l8 54h426l-8 -54h-198l-47 -338q42 64 105 102.5t138 38.5q70 0 107.5 -40t37.5 -114
q0 -30 -4 -57z" />
    <glyph glyph-name="uni040C" unicode="&#x40c;" horiz-adv-x="546" 
d="M499 906l-165 -83l-15 36l153 107zM214 695q0 -6 -1 -14l-96 -681h-63l102 721q14 9 30 9q28 0 28 -35zM575 717l-327 -348l261 -365q-17 -14 -40 -14q-37 0 -58 31l-238 343l339 366z" />
    <glyph glyph-name="uni040D" unicode="&#x40d;" horiz-adv-x="656" 
d="M478 859l-15 -36l-165 83l27 60zM601 730q28 0 28 -35q0 -6 -1 -14l-96 -681h-63l77 544l-416 -456l-12 -88h-64l102 721q14 9 30 9q28 0 28 -35q0 -6 -1 -14l-71 -508l416 457l13 91q13 9 30 9z" />
    <glyph glyph-name="uni040E" unicode="&#x40e;" horiz-adv-x="494" 
d="M480 935q-8 -59 -45 -91t-96 -32q-54 0 -83.5 26t-29.5 73q0 8 2 24h46q-1 -6 -1 -16q0 -61 68 -61q38 0 63 20.5t29 56.5h47zM490 730l61 -13l-304 -575q-61 -115 -172 -152l-23 47q85 28 132 111l47 83q-17 6 -23 27l-129 461q14 11 34 11q34 0 44 -38l71 -268l34 -145
l71 144z" />
    <glyph glyph-name="uni040F" unicode="&#x40f;" horiz-adv-x="611" 
d="M555 730q28 0 28 -35q0 -6 -1 -14l-96 -681h-184l-15 -111q-15 -9 -31 -9q-28 0 -28 35q0 6 1 14l10 71h-185l102 721q14 9 30 9q28 0 28 -35q0 -6 -1 -14l-87 -627h305l94 667q13 9 30 9z" />
    <glyph glyph-name="uni0410" unicode="&#x410;" horiz-adv-x="574" 
d="M449 0l-31 192h-282l-84 -192h-67l332 723q17 7 34 7q37 0 44 -40l123 -690h-69zM160 246h249l-67 417z" />
    <glyph glyph-name="uni0411" unicode="&#x411;" horiz-adv-x="527" 
d="M286 406q96 0 148 -44.5t52 -125.5q0 -111 -75.5 -178.5t-200.5 -67.5q-68 0 -156 10l101 720h334l-8 -54h-270l-37 -265q62 5 112 5zM221 44q91 0 145 50.5t54 134.5q0 58 -38 90.5t-109 32.5q-61 0 -106 -5l-42 -299q41 -4 96 -4z" />
    <glyph glyph-name="uni0412" unicode="&#x412;" horiz-adv-x="548" 
d="M377 383q117 -34 117 -154q0 -109 -74 -174t-194 -65q-74 0 -172 10l101 720q114 10 163 10q95 0 147 -39.5t52 -112.5q0 -71 -37 -121t-103 -74zM449 567q0 51 -38 80t-105 29q-28 0 -94 -4l-38 -266h92q82 0 132.5 43t50.5 118zM235 44q87 0 140 48t53 129
q0 62 -38.5 96.5t-109.5 34.5h-113l-43 -304q74 -4 111 -4z" />
    <glyph glyph-name="uni0413" unicode="&#x413;" horiz-adv-x="425" 
d="M466 720l-8 -54h-247l-93 -666h-64l101 720h311z" />
    <glyph glyph-name="uni0414" unicode="&#x414;" horiz-adv-x="636" 
d="M604 720l-93 -666h38l-23 -165q-15 -9 -31 -9q-28 0 -28 35q0 6 1 14l10 71h-416l-17 -111q-13 -9 -30 -9q-26 0 -26 35q0 6 1 14l17 122q83 61 118 252l77 417h402zM80 54h367l85 612h-279l-68 -375q-30 -161 -105 -237z" />
    <glyph glyph-name="uni0415" unicode="&#x415;" horiz-adv-x="495" 
d="M494 666h-283l-37 -266h253l-8 -54h-252l-41 -292h294l-8 -54h-358l101 720h348z" />
    <glyph glyph-name="uni0416" unicode="&#x416;" horiz-adv-x="774" 
d="M188 699l181 -335l-322 -364h-77l323 367l-188 350q17 13 34 13q32 0 49 -31zM482 695q0 -6 -1 -14l-96 -681h-63l102 721q13 9 30 9q28 0 28 -35zM805 717l-290 -354l218 -359q-18 -14 -39 -14q-31 0 -51 33l-202 341l301 366z" />
    <glyph glyph-name="uni0417" unicode="&#x417;" horiz-adv-x="532" 
d="M112 653q40 36 96.5 56.5t110.5 20.5q81 0 125 -39.5t44 -110.5t-39 -122.5t-107 -71.5q64 -7 99.5 -47.5t35.5 -108.5q0 -111 -69.5 -175.5t-186.5 -64.5q-141 0 -216 105l34 44q61 -92 182 -92q87 0 139 51t52 133q0 59 -37.5 91t-106.5 32h-80l8 54h58
q76 0 121.5 45.5t45.5 118.5q0 49 -29.5 75t-84.5 26q-106 0 -181 -69z" />
    <glyph glyph-name="uni0418" unicode="&#x418;" horiz-adv-x="656" 
d="M601 730q28 0 28 -35q0 -6 -1 -14l-96 -681h-63l77 544l-416 -456l-12 -88h-64l102 721q14 9 30 9q28 0 28 -35q0 -6 -1 -14l-71 -508l416 457l13 91q13 9 30 9z" />
    <glyph glyph-name="uni0419" unicode="&#x419;" horiz-adv-x="656" 
d="M417 812q-54 0 -83.5 26t-29.5 73q0 8 2 24h46q-1 -6 -1 -16q0 -61 68 -61q38 0 63 20.5t29 56.5h47q-8 -59 -45 -91t-96 -32zM601 730q28 0 28 -35q0 -6 -1 -14l-96 -681h-63l77 544l-416 -456l-12 -88h-64l102 721q14 9 30 9q28 0 28 -35q0 -6 -1 -14l-71 -508l416 457
l13 91q13 9 30 9z" />
    <glyph glyph-name="uni041A" unicode="&#x41a;" horiz-adv-x="546" 
d="M214 695q0 -6 -1 -14l-96 -681h-63l102 721q14 9 30 9q28 0 28 -35zM575 717l-327 -348l261 -365q-17 -14 -40 -14q-37 0 -58 31l-238 343l339 366z" />
    <glyph glyph-name="uni041B" unicode="&#x41b;" horiz-adv-x="625" 
d="M602 720l-101 -720h-64l93 666h-284l-92 -499q-24 -131 -130 -177l-21 45q72 38 92 144l100 541h407z" />
    <glyph glyph-name="uni041C" unicode="&#x41c;" horiz-adv-x="803" 
d="M697 730q42 0 40 -46l-24 -684h-64l27 625l-278 -625h-66l-107 618l-144 -618h-61l172 723q16 7 33 7q19 0 32 -11t16 -29l107 -623l288 656q13 7 29 7z" />
    <glyph glyph-name="uni041D" unicode="&#x41d;" horiz-adv-x="655" 
d="M601 730q28 0 28 -35q0 -6 -1 -14l-96 -681h-63l48 339h-352l-47 -339h-64l102 721q14 9 30 9q28 0 28 -35q0 -6 -1 -14l-40 -288h352l46 328q13 9 30 9z" />
    <glyph glyph-name="uni041E" unicode="&#x41e;" horiz-adv-x="674" 
d="M302 -10q-115 0 -177 73.5t-62 207.5q0 123 37 225.5t115.5 168t185.5 65.5q115 0 178 -73.5t63 -207.5q0 -123 -37.5 -225.5t-116.5 -168t-186 -65.5zM306 47q87 0 150 60t92 148.5t29 191.5q0 108 -46 167t-131 59q-87 0 -150 -60t-92 -148.5t-29 -191.5
q0 -108 46 -167t131 -59z" />
    <glyph glyph-name="uni041F" unicode="&#x41f;" horiz-adv-x="629" 
d="M606 720l-101 -720h-64l93 666h-323l-93 -666h-64l101 720h451z" />
    <glyph glyph-name="uni0420" unicode="&#x420;" horiz-adv-x="537" 
d="M336 730q100 0 154 -45.5t54 -128.5q0 -119 -75.5 -191.5t-200.5 -72.5q-50 0 -108 5l-42 -297h-64l101 720q115 10 181 10zM278 346q91 0 145 55t54 147q0 61 -40 94.5t-113 33.5q-36 0 -112 -4l-45 -321q57 -5 111 -5z" />
    <glyph glyph-name="uni0421" unicode="&#x421;" horiz-adv-x="547" 
d="M497 53q-90 -63 -212 -63q-107 0 -164.5 68.5t-57.5 201.5q0 92 19.5 174.5t57.5 149.5t100 106.5t141 39.5q125 0 174 -108l-62 -24q-31 75 -115 75q-78 0 -136.5 -62t-85.5 -152t-27 -189q0 -103 40 -163t118 -60q114 0 186 58z" />
    <glyph glyph-name="uni0422" unicode="&#x422;" horiz-adv-x="471" 
d="M514 720l-8 -54h-180l-94 -666h-64l94 666h-183l8 54h427z" />
    <glyph glyph-name="uni0423" unicode="&#x423;" horiz-adv-x="494" 
d="M490 730l61 -13l-304 -575q-61 -115 -172 -152l-23 47q85 28 132 111l47 83q-17 6 -23 27l-129 461q14 11 34 11q34 0 44 -38l71 -268l34 -145l71 144z" />
    <glyph glyph-name="uni0424" unicode="&#x424;" horiz-adv-x="670" 
d="M644 429q0 -154 -81 -258.5t-222 -109.5l-9 -61h-63l9 61q-106 4 -163.5 64t-57.5 167q0 154 82 258t223 109l9 62q13 9 30 9q28 0 28 -35q0 -6 -1 -14l-3 -22q105 -4 162 -64t57 -166zM123 299q0 -85 42 -131.5t120 -51.5l69 488q-109 -6 -170 -92t-61 -213zM348 116
q108 6 169.5 92.5t61.5 212.5q0 85 -42 131.5t-120 51.5z" />
    <glyph glyph-name="uni0425" unicode="&#x425;" horiz-adv-x="543" 
d="M277 316l-228 -316h-69l269 365l-155 354q14 11 34 11q35 0 49 -34l119 -280l221 314l62 -13l-254 -352l167 -364q-14 -11 -34 -11q-36 0 -51 34z" />
    <glyph glyph-name="uni0426" unicode="&#x426;" horiz-adv-x="619" 
d="M583 695q0 -6 -1 -14l-88 -627h39l-23 -165q-15 -9 -31 -9q-28 0 -28 35q0 6 1 14l10 71h-408l102 721q14 9 30 9q28 0 28 -35q0 -6 -1 -14l-87 -627h305l94 667q13 9 30 9q28 0 28 -35z" />
    <glyph glyph-name="uni0427" unicode="&#x427;" horiz-adv-x="593" 
d="M507 720h64l-101 -720h-64l55 395q-41 -65 -103.5 -104.5t-136.5 -39.5q-139 0 -139 156q0 31 4 59l36 255q15 9 31 9q27 0 27 -35q0 -6 -1 -14l-26 -192q-4 -27 -4 -56q0 -67 24 -96.5t72 -29.5q89 0 156 65.5t82 177.5z" />
    <glyph glyph-name="uni0428" unicode="&#x428;" horiz-adv-x="908" 
d="M853 730q28 0 28 -35q0 -6 -1 -14l-96 -681h-730l102 721q14 9 30 9q28 0 28 -35q0 -6 -1 -14l-87 -627h269l94 667q13 9 30 9q28 0 28 -35q0 -6 -1 -14l-88 -627h271l94 667q13 9 30 9z" />
    <glyph glyph-name="uni0429" unicode="&#x429;" horiz-adv-x="917" 
d="M881 695q0 -6 -1 -14l-88 -627h39l-23 -165q-15 -9 -31 -9q-28 0 -28 35q0 6 1 14l10 71h-706l102 721q14 9 30 9q28 0 28 -35q0 -6 -1 -14l-87 -627h269l94 667q13 9 30 9q28 0 28 -35q0 -6 -1 -14l-88 -627h271l94 667q13 9 30 9q28 0 28 -35z" />
    <glyph glyph-name="uni042A" unicode="&#x42a;" horiz-adv-x="575" 
d="M337 406q96 0 148 -44.5t52 -125.5q0 -111 -75.5 -178.5t-200.5 -67.5q-68 0 -156 10l93 666h-126l8 54h190l-45 -319q62 5 112 5zM272 44q91 0 145 50.5t54 134.5q0 58 -38 90.5t-109 32.5q-61 0 -106 -5l-42 -299q41 -4 96 -4z" />
    <glyph glyph-name="uni042B" unicode="&#x42b;" horiz-adv-x="763" 
d="M286 406q-50 0 -112 -5l39 280q1 8 1 14q0 35 -28 35q-16 0 -30 -9l-102 -721q88 -10 156 -10q125 0 200.5 67.5t75.5 178.5q0 81 -52 125.5t-148 44.5zM640 0h-63l102 721q13 9 30 9q28 0 28 -35q0 -6 -1 -14zM221 44q-55 0 -96 4l41 299q45 5 107 5q71 0 109 -32.5
t38 -90.5q0 -84 -54 -134.5t-145 -50.5z" />
    <glyph glyph-name="uni042C" unicode="&#x42c;" horiz-adv-x="523" 
d="M286 406q-50 0 -112 -5l39 280q1 8 1 14q0 35 -28 35q-16 0 -30 -9l-102 -721q88 -10 156 -10q125 0 200.5 67.5t75.5 178.5q0 81 -52 125.5t-148 44.5zM221 44q-55 0 -96 4l41 299q45 5 107 5q71 0 109 -32.5t38 -90.5q0 -84 -54 -134.5t-145 -50.5z" />
    <glyph glyph-name="uni042D" unicode="&#x42d;" horiz-adv-x="554" 
d="M303 730q105 0 162 -68t57 -200q0 -93 -19.5 -176t-57.5 -150t-101 -106.5t-142 -39.5q-125 0 -197 66l34 46q57 -55 167 -55q98 0 159.5 82t81.5 211h-252l8 54h251q2 28 2 60q0 102 -39.5 160.5t-117.5 58.5q-86 0 -140 -78l-57 30q78 105 201 105z" />
    <glyph glyph-name="uni042E" unicode="&#x42e;" horiz-adv-x="847" 
d="M602 730q103 0 158.5 -71t55.5 -201q0 -121 -33.5 -225t-106.5 -173.5t-173 -69.5q-102 0 -156.5 71t-54.5 202q0 38 3 74h-130l-47 -337h-64l102 721q14 9 30 9q28 0 28 -35q0 -6 -1 -14l-40 -290h129q25 148 102 243.5t198 95.5zM505 47q60 0 108.5 37t77.5 97
t44 130.5t15 144.5q0 104 -39 160.5t-112 56.5q-60 0 -108 -37t-77 -97t-44 -131t-15 -144q0 -104 39 -160.5t111 -56.5z" />
    <glyph glyph-name="uni042F" unicode="&#x42f;" horiz-adv-x="582" 
d="M404 730q81 0 155 -10l-101 -720h-64l44 317q-58 -8 -112 -8l-279 -309h-76l287 315q-72 14 -112.5 57t-40.5 110q0 116 82.5 182t216.5 66zM338 364q52 0 108 8l42 297q-41 4 -95 4q-99 0 -160.5 -48.5t-61.5 -134.5q0 -60 44 -93t123 -33z" />
    <glyph glyph-name="uni0430" unicode="&#x430;" 
d="M421 50q-2 -16 -2 -21q0 -12 5 -29q-19 -10 -39 -10q-25 0 -25 35q0 6 1 13l11 81q-33 -59 -83 -94t-103 -35q-69 0 -106.5 46.5t-37.5 133.5q0 144 71.5 238.5t201.5 94.5q79 0 169 -10zM202 42q60 0 116 53.5t69 142.5l30 210q-66 4 -98 4q-102 0 -157.5 -75.5
t-55.5 -187.5q0 -70 24.5 -108.5t71.5 -38.5z" />
    <glyph glyph-name="uni0431" unicode="&#x431;" horiz-adv-x="538" 
d="M319 685q-63 -14 -108 -79.5t-76 -215.5q60 113 184 113q83 0 128.5 -52t45.5 -145q0 -135 -67 -225.5t-185 -90.5q-87 0 -134 55.5t-47 156.5q0 28 5 68q19 134 43 222.5t57 139t68.5 73.5t86.5 34l187 40q9 -11 9 -26q0 -25 -43 -34zM303 451q-87 0 -135.5 -77
t-48.5 -181q0 -72 32.5 -111.5t92.5 -39.5q88 0 137 76.5t49 182.5q0 72 -33 111t-94 39z" />
    <glyph glyph-name="uni0432" unicode="&#x432;" horiz-adv-x="471" 
d="M308 263q101 -23 101 -110q0 -72 -58 -117.5t-159 -45.5q-68 0 -106.5 30t-38.5 84q0 14 1 22l36 252q8 59 53.5 92t119.5 33q81 0 125 -28.5t44 -80.5q0 -47 -31 -81t-87 -50zM254 456q-46 0 -74 -21.5t-34 -60.5l-14 -93h88q67 0 106 28t39 73q0 35 -29 54.5t-82 19.5z
M202 36q70 0 108 33.5t38 83.5q0 42 -31.5 65.5t-89.5 23.5h-101l-16 -110q-2 -12 -2 -19q0 -36 25 -56.5t69 -20.5z" />
    <glyph glyph-name="uni0433" unicode="&#x433;" horiz-adv-x="410" 
d="M231 503q69 0 107 -29t38 -81q0 -37 -13 -65.5t-40 -49t-52.5 -32.5t-65.5 -27q-39 -14 -61 -25t-41 -33.5t-19 -51.5q0 -33 26 -51t73 -18q90 0 146 38l14 -45q-59 -43 -167 -43q-74 0 -115 30t-41 84q0 34 12 60t38.5 45t48.5 29.5t61 26.5q33 13 51.5 22t40 24t31 34
t9.5 45q0 62 -81 62q-61 0 -122 -33l-23 48q68 36 145 36z" />
    <glyph glyph-name="uni0434" unicode="&#x434;" horiz-adv-x="535" 
d="M204 780q143 -37 214 -129.5t71 -252.5q0 -116 -25.5 -205t-85.5 -146t-149 -57t-137 52t-48 147q0 131 64.5 222.5t176.5 91.5q121 0 154 -106q-1 139 -62 220.5t-185 120.5zM232 42q60 0 103 38t63 95.5t20 124.5q0 72 -32.5 111.5t-92.5 39.5q-88 0 -137 -76.5
t-49 -182.5q0 -72 32.5 -111t92.5 -39z" />
    <glyph glyph-name="uni0435" unicode="&#x435;" horiz-adv-x="463" 
d="M211 41q87 0 156 43l19 -44q-78 -50 -180 -50q-79 0 -121.5 48t-42.5 136q0 137 68 233t185 96q66 0 101.5 -33.5t35.5 -94.5q0 -89 -58 -136.5t-155 -47.5q-55 0 -117 15q-1 -10 -1 -30q0 -65 28 -100t82 -35zM284 451q-71 0 -116.5 -57.5t-60.5 -144.5q57 -12 113 -12
q69 0 110 35.5t41 95.5q0 40 -22.5 61.5t-64.5 21.5z" />
    <glyph glyph-name="uni0436" unicode="&#x436;" horiz-adv-x="655" 
d="M158 471l139 -211l-244 -260h-74l249 262l-159 230q15 11 36 11q31 0 53 -32zM389 472q0 -5 -1 -13l-65 -459h-61l70 494q18 9 31 9q26 0 26 -31zM652 490l-220 -230l176 -259q-16 -11 -36 -11q-34 0 -55 32l-155 239l231 242z" />
    <glyph glyph-name="uni0437" unicode="&#x437;" horiz-adv-x="402" 
d="M77 450q64 53 148 53q59 0 91.5 -28t32.5 -78t-27.5 -85.5t-75.5 -48.5q45 -5 70.5 -33.5t25.5 -73.5q0 -77 -51 -121.5t-134 -44.5q-101 0 -155 73l29 38q43 -60 124 -60q57 0 91 31.5t34 85.5q0 78 -95 78h-54l6 46h53q44 0 69.5 28t25.5 76q0 66 -74 66
q-67 0 -121 -45z" />
    <glyph glyph-name="uni0438" unicode="&#x438;" horiz-adv-x="513" 
d="M468 459l-58 -409q-2 -16 -2 -21q0 -12 5 -29q-19 -10 -39 -10q-25 0 -25 35q0 6 1 13l10 77q-32 -58 -79.5 -91.5t-105.5 -33.5t-89 34.5t-31 97.5q0 20 3 43l47 329q20 9 32 9q25 0 25 -31q0 -5 -1 -13l-39 -276q-3 -19 -3 -37q0 -104 80 -104q68 0 117 52.5t62 147.5
l36 252q18 9 30 9q25 0 25 -31q0 -5 -1 -13z" />
    <glyph glyph-name="uni0439" unicode="&#x439;" horiz-adv-x="513" 
d="M449 708q-8 -59 -45 -91t-96 -32q-54 0 -83.5 26t-29.5 73q0 8 2 24h46q-1 -6 -1 -16q0 -61 68 -61q38 0 63 20.5t29 56.5h47zM468 459l-58 -409q-2 -16 -2 -21q0 -12 5 -29q-19 -10 -39 -10q-25 0 -25 35q0 6 1 13l10 77q-32 -58 -79.5 -91.5t-105.5 -33.5t-89 34.5
t-31 97.5q0 20 3 43l47 329q20 9 32 9q25 0 25 -31q0 -5 -1 -13l-39 -276q-3 -19 -3 -37q0 -104 80 -104q68 0 117 52.5t62 147.5l36 252q18 9 30 9q25 0 25 -31q0 -5 -1 -13z" />
    <glyph glyph-name="uni043A" unicode="&#x43a;" horiz-adv-x="462" 
d="M166 472q0 -5 -1 -13l-65 -459h-61l70 494q18 9 31 9q26 0 26 -31zM466 490l-253 -226l211 -263q-17 -11 -40 -11q-31 0 -56 32l-190 239l269 242z" />
    <glyph glyph-name="uni043B" unicode="&#x43b;" horiz-adv-x="495" 
d="M454 493l-68 -493h-61l61 442h-199l-56 -299q-22 -117 -120 -153l-19 46q65 27 82 119l65 338h315z" />
    <glyph glyph-name="uni043C" unicode="&#x43c;" horiz-adv-x="601" 
d="M495 503q36 0 35 -40l-14 -463h-60l17 411l-180 -411h-59l-67 409l-97 -409h-54l119 496q16 7 31 7q38 0 43 -33l69 -409l188 435q14 7 29 7z" />
    <glyph glyph-name="uni043D" unicode="&#x43d;" horiz-adv-x="525" 
d="M455 503q26 0 26 -31q0 -5 -1 -13l-65 -459h-60l33 231h-255l-33 -231h-61l70 494q18 9 31 9q26 0 26 -31q0 -5 -1 -13l-25 -179h255l30 214q18 9 30 9z" />
    <glyph glyph-name="uni043E" unicode="&#x43e;" 
d="M227 -10q-89 0 -136 52t-47 148q0 134 67 223.5t183 89.5q89 0 137 -52.5t48 -147.5q0 -133 -67.5 -223t-184.5 -90zM229 42q89 0 138 76.5t49 182.5q0 71 -32 110.5t-91 39.5q-89 0 -138.5 -76.5t-49.5 -181.5q0 -72 32 -111.5t92 -39.5z" />
    <glyph glyph-name="uni043F" unicode="&#x43f;" 
d="M463 322l-39 -276q-1 -8 -1 -17q0 -17 5 -29q-20 -10 -41 -10q-26 0 -26 34q0 5 1 12l39 272q3 22 3 41q0 49 -20 75.5t-58 26.5q-74 0 -126 -57.5t-66 -158.5l-33 -235h-61l68 494q16 9 30 9q26 0 26 -34q0 -6 -1 -14l-9 -77q70 125 188 125q60 0 92.5 -36t32.5 -100
q0 -13 -4 -45z" />
    <glyph glyph-name="uni0440" unicode="&#x440;" 
d="M337 503q69 0 107 -47t38 -134q0 -143 -72 -237.5t-201 -94.5q-46 0 -109 5l-32 -225h-61l102 724q20 9 32 9q24 0 24 -33q0 -5 -1 -14l-11 -78q34 57 83.5 91t100.5 34zM205 40q102 0 157.5 76t55.5 188q0 70 -24.5 108.5t-72.5 38.5q-60 0 -116 -53.5t-69 -143.5
l-29 -210q64 -4 98 -4z" />
    <glyph glyph-name="uni0441" unicode="&#x441;" horiz-adv-x="444" 
d="M384 44q-69 -54 -166 -54q-84 0 -129 51.5t-45 145.5q0 86 27 156.5t82.5 115t130.5 44.5q47 0 84.5 -25.5t50.5 -76.5l-52 -17q-24 67 -85 67q-84 0 -130 -78t-46 -182q0 -71 31 -110t88 -39q80 0 142 54z" />
    <glyph glyph-name="uni0442" unicode="&#x442;" horiz-adv-x="769" 
d="M707 325l-39 -279q-1 -8 -1 -17q0 -17 5 -29q-19 -10 -40 -10q-27 0 -27 34q0 5 1 12l39 276q3 24 3 44q0 95 -64 95q-63 0 -109 -57.5t-60 -158.5l-33 -235h-61l44 312q3 24 3 44q0 95 -65 95q-64 0 -109.5 -57t-59.5 -159l-33 -235h-61l68 494q16 9 30 9q26 0 26 -34
q0 -6 -1 -14l-9 -72q66 120 171 120q49 0 77 -32.5t30 -89.5q71 122 173 122q51 0 78.5 -35t27.5 -97q0 -12 -4 -46z" />
    <glyph glyph-name="uni0443" unicode="&#x443;" horiz-adv-x="479" 
d="M418 503l56 -13q-45 -193 -162 -391.5t-262 -338.5l-22 43q87 85 163 198q-19 3 -26 27l-110 464q14 11 34 11q28 0 36 -38l65 -291l27 -136q144 227 201 465z" />
    <glyph glyph-name="uni0444" unicode="&#x444;" horiz-adv-x="769" 
d="M601 503q61 0 93 -45t32 -129q0 -143 -66.5 -241t-189.5 -98q-26 0 -92 4l-31 -224h-60l48 341q-31 -55 -76 -88t-91 -33q-62 0 -94 45.5t-32 129.5q0 143 66.5 240.5t189.5 97.5q45 0 89 -25l42 293q15 9 30 9q25 0 25 -31q0 -5 -1 -13l-51 -358q32 57 78 91t91 34z
M196 42q49 0 96.5 53t60.5 142l27 187q-45 28 -94 28q-59 0 -101.5 -39.5t-61 -99.5t-18.5 -131q0 -140 91 -140zM482 40q87 0 134 79.5t47 192.5q0 139 -91 139q-49 0 -96.5 -53.5t-60.5 -142.5l-30 -211q64 -4 97 -4z" />
    <glyph glyph-name="uni0445" unicode="&#x445;" horiz-adv-x="442" 
d="M212 205l-162 -205h-65l201 250l-123 242q17 11 36 11q27 0 43 -34l86 -176l161 210l56 -13l-190 -242l132 -247q-14 -11 -32 -11q-29 0 -46 32z" />
    <glyph glyph-name="uni0446" unicode="&#x446;" horiz-adv-x="523" 
d="M469 472q0 -5 -1 -13l-58 -410h37l-24 -160q-15 -9 -31 -9q-25 0 -25 32q0 7 1 14l11 74h-340l70 494q18 9 31 9q26 0 26 -31q0 -5 -1 -13l-58 -410h242l63 445q18 9 31 9q26 0 26 -31z" />
    <glyph glyph-name="uni0447" unicode="&#x447;" horiz-adv-x="476" 
d="M375 493h61l-69 -493h-61l40 283q-69 -117 -181 -117q-54 0 -82.5 26.5t-28.5 76.5q0 17 3 39l27 186q18 9 31 9q25 0 25 -31q0 -5 -1 -13l-20 -134q-2 -13 -2 -33q0 -74 75 -74q64 0 111 47t59 132z" />
    <glyph glyph-name="uni0448" unicode="&#x448;" horiz-adv-x="734" 
d="M665 503q26 0 26 -31q0 -5 -1 -13l-65 -459h-586l70 494q18 9 31 9q26 0 26 -31q0 -5 -1 -13l-58 -410h201l63 445q18 9 31 9q26 0 26 -31q0 -5 -1 -13l-58 -410h202l63 445q18 9 31 9z" />
    <glyph glyph-name="uni0449" unicode="&#x449;" horiz-adv-x="745" 
d="M691 472q0 -5 -1 -13l-58 -410h36l-24 -160q-15 -9 -31 -9q-25 0 -25 32q0 7 1 14l11 74h-561l70 494q18 9 31 9q26 0 26 -31q0 -5 -1 -13l-58 -410h201l63 445q18 9 31 9q26 0 26 -31q0 -5 -1 -13l-58 -410h202l63 445q18 9 31 9q26 0 26 -31z" />
    <glyph glyph-name="uni044A" unicode="&#x44a;" horiz-adv-x="475" 
d="M275 309q74 0 114 -33.5t40 -94.5q0 -86 -57 -138.5t-151 -52.5q-58 0 -94.5 33t-36.5 92q0 13 3 34l41 293h-84l7 51h145l-27 -188q60 4 100 4zM231 39q63 0 100.5 36t37.5 98q0 41 -27.5 64t-79.5 23q-55 0 -94 -4l-15 -105q-2 -14 -2 -25q0 -41 21 -64t59 -23z" />
    <glyph glyph-name="uni044B" unicode="&#x44b;" horiz-adv-x="619" 
d="M238 309q74 0 114 -33.5t40 -94.5q0 -86 -57 -138.5t-151 -52.5q-58 0 -94.5 33t-36.5 92q0 13 3 34l49 345q18 9 31 9q25 0 25 -31q0 -6 -1 -13l-22 -154q60 4 100 4zM449 0l70 494q18 9 31 9q26 0 26 -31q0 -5 -1 -13l-65 -459h-61zM194 39q63 0 100.5 36t37.5 98
q0 41 -27.5 64t-79.5 23q-55 0 -94 -4l-15 -105q-2 -14 -2 -25q0 -41 21 -64t59 -23z" />
    <glyph glyph-name="uni044C" unicode="&#x44c;" horiz-adv-x="438" 
d="M238 309q74 0 114 -33.5t40 -94.5q0 -86 -57 -138.5t-151 -52.5q-58 0 -94.5 33t-36.5 92q0 13 3 34l49 345q18 9 31 9q25 0 25 -31q0 -6 -1 -13l-22 -154q60 4 100 4zM194 39q63 0 100.5 36t37.5 98q0 41 -27.5 64t-79.5 23q-55 0 -94 -4l-15 -105q-2 -14 -2 -25
q0 -41 21 -64t59 -23z" />
    <glyph glyph-name="uni044D" unicode="&#x44d;" horiz-adv-x="444" 
d="M223 503q83 0 129.5 -52.5t46.5 -147.5q0 -132 -64.5 -222.5t-176.5 -90.5q-97 0 -154 57l28 46q44 -51 125 -51q70 0 114 52.5t59 134.5h-143l6 45h143q1 9 1 28q0 72 -31 110.5t-89 38.5q-69 0 -133 -59l-10 51q68 60 149 60z" />
    <glyph glyph-name="uni044E" unicode="&#x44e;" horiz-adv-x="656" 
d="M449 503q78 0 120 -51t42 -143q0 -84 -25 -155.5t-78.5 -117.5t-125.5 -46q-77 0 -118.5 50.5t-41.5 143.5q0 16 2 46h-91l-33 -230h-61l70 494q18 9 31 9q26 0 26 -31q0 -5 -1 -13l-25 -179h91q20 99 76 161t142 62zM388 42q52 0 90 41.5t54.5 100.5t16.5 125
q0 68 -27.5 105t-78.5 37q-52 0 -89.5 -41.5t-54.5 -100.5t-17 -124q0 -68 27.5 -105.5t78.5 -37.5z" />
    <glyph glyph-name="uni044F" unicode="&#x44f;" horiz-adv-x="470" 
d="M281 503q78 0 148 -10l-68 -493h-61l29 208q-36 -4 -91 -4l-183 -204h-73l191 211q-100 23 -100 124q0 77 57.5 122.5t150.5 45.5zM245 252q54 0 90 4l27 195q-42 3 -93 3q-61 0 -98 -31t-37 -86q0 -40 29 -62.5t82 -22.5z" />
    <glyph glyph-name="uni0450" unicode="&#x450;" horiz-adv-x="463" 
d="M371 632l-15 -36l-165 83l27 60zM211 41q87 0 156 43l19 -44q-78 -50 -180 -50q-79 0 -121.5 48t-42.5 136q0 137 68 233t185 96q66 0 101.5 -33.5t35.5 -94.5q0 -89 -58 -136.5t-155 -47.5q-55 0 -117 15q-1 -10 -1 -30q0 -65 28 -100t82 -35zM284 451
q-71 0 -116.5 -57.5t-60.5 -144.5q57 -12 113 -12q69 0 110 35.5t41 95.5q0 40 -22.5 61.5t-64.5 21.5z" />
    <glyph glyph-name="uni0451" unicode="&#x451;" horiz-adv-x="463" 
d="M232 600q-37 0 -37 34q0 44 43 44q37 0 37 -34q0 -44 -43 -44zM377 600q-37 0 -37 34q0 44 43 44q37 0 37 -34q0 -44 -43 -44zM211 41q87 0 156 43l19 -44q-78 -50 -180 -50q-79 0 -121.5 48t-42.5 136q0 137 68 233t185 96q66 0 101.5 -33.5t35.5 -94.5
q0 -89 -58 -136.5t-155 -47.5q-55 0 -117 15q-1 -10 -1 -30q0 -65 28 -100t82 -35zM284 451q-71 0 -116.5 -57.5t-60.5 -144.5q57 -12 113 -12q69 0 110 35.5t41 95.5q0 40 -22.5 61.5t-64.5 21.5z" />
    <glyph glyph-name="uni0452" unicode="&#x452;" horiz-adv-x="523" 
d="M342 503q60 0 92.5 -36t32.5 -100q0 -13 -4 -45l-56 -409q-16 -113 -104 -152l-21 44q51 28 64 120l55 383q3 22 3 41q0 49 -20 75.5t-58 26.5q-74 0 -126 -57.5t-66 -158.5l-33 -235h-61l87 612h-61l7 49h60l16 110q15 9 31 9q25 0 25 -31q0 -5 -1 -13l-11 -75h162
l-7 -49h-161l-33 -233q70 124 188 124z" />
    <glyph glyph-name="uni0453" unicode="&#x453;" horiz-adv-x="410" 
d="M357 739l27 -60l-165 -83l-15 36zM231 503q69 0 107 -29t38 -81q0 -37 -13 -65.5t-40 -49t-52.5 -32.5t-65.5 -27q-39 -14 -61 -25t-41 -33.5t-19 -51.5q0 -33 26 -51t73 -18q90 0 146 38l14 -45q-59 -43 -167 -43q-74 0 -115 30t-41 84q0 34 12 60t38.5 45t48.5 29.5
t61 26.5q33 13 51.5 22t40 24t31 34t9.5 45q0 62 -81 62q-61 0 -122 -33l-23 48q68 36 145 36z" />
    <glyph glyph-name="uni0454" unicode="&#x454;" horiz-adv-x="445" 
d="M287 503q81 0 135 -63l-19 -45q-46 56 -115 56q-68 0 -112.5 -49.5t-60.5 -127.5h143l-6 -45h-143q-2 -18 -2 -38q0 -71 31.5 -110t89.5 -39q80 0 139 54l18 -52q-69 -54 -166 -54q-84 0 -129.5 51.5t-45.5 146.5q0 133 65 224t178 91z" />
    <glyph glyph-name="uni0455" unicode="&#x455;" horiz-adv-x="411" 
d="M246 503q78 0 137 -39l-31 -42q-49 31 -114 31q-48 0 -77 -24.5t-29 -69.5q0 -34 25.5 -54t71.5 -38q29 -11 47 -20t38.5 -24t30.5 -35.5t10 -46.5q0 -73 -53 -112t-135 -39q-108 0 -158 46l23 40q44 -36 134 -36q55 0 91.5 24.5t36.5 69.5q0 30 -24 48.5t-69 34.5
q-29 11 -48 20t-40.5 24.5t-32 38t-10.5 51.5q0 72 49.5 112t126.5 40z" />
    <glyph glyph-name="uni0456" unicode="&#x456;" horiz-adv-x="211" 
d="M156 600q-37 0 -37 34q0 44 43 44q37 0 37 -34q0 -44 -43 -44zM169 493l-62 -447q-1 -8 -1 -17q0 -17 5 -29q-19 -10 -41 -10q-26 0 -26 34q0 5 1 12l63 457h61z" />
    <glyph glyph-name="uni0457" unicode="&#x457;" horiz-adv-x="211" 
d="M83 600q-37 0 -37 34q0 44 43 44q37 0 37 -34q0 -44 -43 -44zM228 600q-37 0 -37 34q0 44 43 44q37 0 37 -34q0 -44 -43 -44zM169 493l-62 -447q-1 -8 -1 -17q0 -17 5 -29q-19 -10 -41 -10q-26 0 -26 34q0 5 1 12l63 457h61z" />
    <glyph glyph-name="uni0458" unicode="&#x458;" horiz-adv-x="212" 
d="M157 600q-37 0 -37 34q0 44 43 44q37 0 37 -34q0 -44 -43 -44zM-14 -239q88 38 104 152l81 580h-62l-79 -568q-13 -92 -64 -120z" />
    <glyph glyph-name="uni0459" unicode="&#x459;" horiz-adv-x="726" 
d="M527 309q74 0 114 -33.5t40 -94.5q0 -86 -57 -138.5t-151 -52.5q-58 0 -94.5 33t-36.5 92q0 13 3 34l42 293h-200l-56 -299q-22 -117 -120 -153l-19 45q65 29 82 120l65 338h315l-27 -188q60 4 100 4zM483 39q63 0 100.5 36t37.5 98q0 41 -27.5 64t-79.5 23q-55 0 -94 -4
l-15 -105q-2 -14 -2 -25q0 -41 21 -64t59 -23z" />
    <glyph glyph-name="uni045A" unicode="&#x45a;" horiz-adv-x="755" 
d="M557 309q74 0 114 -33.5t40 -94.5q0 -86 -57 -138.5t-151 -52.5q-58 0 -94.5 33t-36.5 92q0 13 3 34l12 82h-254l-33 -231h-61l70 494q18 9 31 9q26 0 26 -31q0 -5 -1 -13l-25 -179h254l30 214q18 9 31 9q25 0 25 -31q0 -6 -1 -13l-22 -154q60 4 100 4zM513 39
q63 0 100.5 36t37.5 98q0 41 -27.5 64t-79.5 23q-55 0 -94 -4l-15 -105q-2 -14 -2 -25q0 -41 21 -64t59 -23z" />
    <glyph glyph-name="uni045B" unicode="&#x45b;" 
d="M464 322l-39 -276q-1 -8 -1 -17q0 -17 5 -29q-20 -10 -41 -10q-26 0 -26 34q0 5 1 12l39 272q3 22 3 41q0 49 -20 75.5t-58 26.5q-74 0 -126.5 -57.5t-66.5 -158.5l-33 -235h-61l87 612h-61l7 49h60l16 110q15 9 31 9q25 0 25 -31q0 -5 -1 -13l-10 -75h161l-7 -49h-161
l-33 -235q70 126 189 126q60 0 92.5 -36t32.5 -100q0 -13 -4 -45z" />
    <glyph glyph-name="uni045C" unicode="&#x45c;" horiz-adv-x="462" 
d="M391 739l27 -60l-165 -83l-15 36zM166 472q0 -5 -1 -13l-65 -459h-61l70 494q18 9 31 9q26 0 26 -31zM466 490l-253 -226l211 -263q-17 -11 -40 -11q-31 0 -56 32l-190 239l269 242z" />
    <glyph glyph-name="uni045D" unicode="&#x45d;" horiz-adv-x="513" 
d="M216 739l153 -107l-15 -36l-165 83zM468 459l-58 -409q-2 -16 -2 -21q0 -12 5 -29q-19 -10 -39 -10q-25 0 -25 35q0 6 1 13l10 77q-32 -58 -79.5 -91.5t-105.5 -33.5t-89 34.5t-31 97.5q0 20 3 43l47 329q20 9 32 9q25 0 25 -31q0 -5 -1 -13l-39 -276q-3 -19 -3 -37
q0 -104 80 -104q68 0 117 52.5t62 147.5l36 252q18 9 30 9q25 0 25 -31q0 -5 -1 -13z" />
    <glyph glyph-name="uni045E" unicode="&#x45e;" horiz-adv-x="479" 
d="M429 708q-8 -59 -45 -91t-96 -32q-54 0 -83.5 26t-29.5 73q0 8 2 24h46q-1 -6 -1 -16q0 -61 68 -61q38 0 63 20.5t29 56.5h47zM418 503l56 -13q-45 -193 -162 -391.5t-262 -338.5l-22 43q87 85 163 198q-19 3 -26 27l-110 464q14 11 34 11q28 0 36 -38l65 -291l27 -136
q144 227 201 465z" />
    <glyph glyph-name="uni045F" unicode="&#x45f;" horiz-adv-x="513" 
d="M443 503q26 0 26 -31q0 -5 -1 -13l-65 -459h-150l-17 -111q-15 -9 -31 -9q-25 0 -25 32q0 7 1 14l11 74h-153l70 494q18 9 31 9q26 0 26 -31q0 -5 -1 -13l-58 -410h242l63 445q18 9 31 9z" />
    <glyph glyph-name="uni0490" unicode="&#x490;" horiz-adv-x="425" 
d="M450 840q28 0 28 -35q0 -6 -1 -14l-19 -125h-247l-93 -666h-64l101 720h248l17 111q14 9 30 9z" />
    <glyph glyph-name="uni0491" unicode="&#x491;" horiz-adv-x="368" 
d="M366 613q25 0 25 -31q0 -5 -1 -13l-18 -125h-210l-61 -444h-61l68 493h211l16 111q18 9 31 9z" />
    <glyph glyph-name="Wgrave" unicode="&#x1e80;" horiz-adv-x="894" 
d="M444 966l153 -107l-15 -36l-165 83zM870 730l62 -13l-291 -717h-74l-64 562l-5 64l-22 -62l-219 -564h-74l-92 719q16 11 35 11q35 0 39 -38l61 -562l6 -73l26 75l223 586v1q14 11 31 11q16 0 28 -10t14 -29l56 -556l6 -75l29 78z" />
    <glyph glyph-name="wgrave" unicode="&#x1e81;" horiz-adv-x="724" 
d="M317 739l153 -107l-15 -36l-165 83zM662 503l53 -13q-31 -244 -214 -490h-66l-57 371q-45 -184 -177 -371h-65l-81 492q13 11 34 11q32 0 37 -38l41 -298l14 -120q150 219 177 445q13 11 31 11q29 0 34 -38l42 -299l14 -117q153 228 183 454z" />
    <glyph glyph-name="Wacute" unicode="&#x1e82;" horiz-adv-x="894" 
d="M630 966l27 -60l-165 -83l-15 36zM870 730l62 -13l-291 -717h-74l-64 562l-5 64l-22 -62l-219 -564h-74l-92 719q16 11 35 11q35 0 39 -38l61 -562l6 -73l26 75l223 586v1q14 11 31 11q16 0 28 -10t14 -29l56 -556l6 -75l29 78z" />
    <glyph glyph-name="wacute" unicode="&#x1e83;" horiz-adv-x="724" 
d="M503 739l27 -60l-165 -83l-15 36zM662 503l53 -13q-31 -244 -214 -490h-66l-57 371q-45 -184 -177 -371h-65l-81 492q13 11 34 11q32 0 37 -38l41 -298l14 -120q150 219 177 445q13 11 31 11q29 0 34 -38l42 -299l14 -117q153 228 183 454z" />
    <glyph glyph-name="Wdieresis" unicode="&#x1e84;" horiz-adv-x="894" 
d="M458 827q-37 0 -37 34q0 44 43 44q37 0 37 -34q0 -44 -43 -44zM603 827q-37 0 -37 34q0 44 43 44q37 0 37 -34q0 -44 -43 -44zM870 730l62 -13l-291 -717h-74l-64 562l-5 64l-22 -62l-219 -564h-74l-92 719q16 11 35 11q35 0 39 -38l61 -562l6 -73l26 75l223 586v1
q14 11 31 11q16 0 28 -10t14 -29l56 -556l6 -75l29 78z" />
    <glyph glyph-name="wdieresis" unicode="&#x1e85;" horiz-adv-x="724" 
d="M331 600q-37 0 -37 34q0 44 43 44q37 0 37 -34q0 -44 -43 -44zM476 600q-37 0 -37 34q0 44 43 44q37 0 37 -34q0 -44 -43 -44zM662 503l53 -13q-31 -244 -214 -490h-66l-57 371q-45 -184 -177 -371h-65l-81 492q13 11 34 11q32 0 37 -38l41 -298l14 -120q150 219 177 445
q13 11 31 11q29 0 34 -38l42 -299l14 -117q153 228 183 454z" />
    <glyph glyph-name="uni1E9E" unicode="&#x1e9e;" horiz-adv-x="615" 
d="M402 406q80 -48 120.5 -98t40.5 -118q0 -94 -58.5 -147t-156.5 -53q-97 0 -156 59l24 45q46 -47 127 -47q70 0 112.5 37.5t42.5 99.5q0 59 -46 106t-141 96l209 228q-44 59 -133 59q-86 0 -143 -57.5t-70 -159.5l-64 -456h-63l65 462q18 127 92 197.5t189 70.5
q67 0 120 -30.5t84 -86.5z" />
    <glyph glyph-name="Ygrave" unicode="&#x1ef2;" horiz-adv-x="552" 
d="M274 966l153 -107l-15 -36l-165 83zM593 717l-277 -407l-43 -310h-64l44 314l-163 405q14 11 33 11q37 0 50 -34l94 -241l31 -85l50 82l183 278z" />
    <glyph glyph-name="ygrave" unicode="&#x1ef3;" horiz-adv-x="479" 
d="M196 739l153 -107l-15 -36l-165 83zM418 503l56 -13q-45 -193 -162 -391.5t-262 -338.5l-22 43q87 85 163 198q-19 3 -26 27l-110 464q14 11 34 11q28 0 36 -38l65 -291l27 -136q144 227 201 465z" />
    <glyph glyph-name="endash" unicode="&#x2013;" horiz-adv-x="525" 
d="M70 276h392l-7 -51h-392z" />
    <glyph glyph-name="emdash" unicode="&#x2014;" horiz-adv-x="781" 
d="M70 276h649l-9 -51h-647z" />
    <glyph glyph-name="quoteleft" unicode="&#x2018;" horiz-adv-x="194" 
d="M137 540q-38 0 -38 51q0 84 88 140l13 -25q-55 -34 -65 -83q10 3 20 3q31 0 31 -33q0 -24 -12.5 -38.5t-36.5 -14.5z" />
    <glyph glyph-name="quoteright" unicode="&#x2019;" horiz-adv-x="191" 
d="M163 730q38 0 38 -51q0 -84 -88 -140l-13 25q55 34 65 83q-11 -3 -20 -3q-31 0 -31 33q0 24 12.5 38.5t36.5 14.5z" />
    <glyph glyph-name="quotesinglbase" unicode="&#x201a;" horiz-adv-x="206" 
d="M80 76q38 0 38 -51q0 -84 -88 -140l-13 25q55 34 65 83q-10 -3 -20 -3q-31 0 -31 33q0 24 12.5 38.5t36.5 14.5z" />
    <glyph glyph-name="quotedblleft" unicode="&#x201c;" horiz-adv-x="323" 
d="M137 540q-38 0 -38 51q0 84 88 140l13 -25q-55 -34 -65 -83q10 3 20 3q31 0 31 -33q0 -24 -12.5 -38.5t-36.5 -14.5zM266 540q-38 0 -38 51q0 84 88 140l13 -25q-55 -34 -65 -83q11 3 20 3q31 0 31 -33q0 -24 -12.5 -38.5t-36.5 -14.5z" />
    <glyph glyph-name="quotedblright" unicode="&#x201d;" horiz-adv-x="320" 
d="M163 730q38 0 38 -51q0 -84 -88 -140l-13 25q55 34 65 83q-11 -3 -20 -3q-31 0 -31 33q0 24 12.5 38.5t36.5 14.5zM292 730q38 0 38 -51q0 -84 -88 -140l-13 25q55 34 65 83q-10 -3 -20 -3q-31 0 -31 33q0 24 12.5 38.5t36.5 14.5z" />
    <glyph glyph-name="quotedblbase" unicode="&#x201e;" horiz-adv-x="334" 
d="M80 76q38 0 38 -51q0 -84 -88 -140l-13 25q55 34 65 83q-10 -3 -20 -3q-31 0 -31 33q0 24 12.5 38.5t36.5 14.5zM209 76q38 0 38 -51q0 -84 -88 -140l-13 25q55 34 65 83q-11 -3 -20 -3q-31 0 -31 33q0 24 12.5 38.5t36.5 14.5z" />
    <glyph glyph-name="dagger" unicode="&#x2020;" horiz-adv-x="419" 
d="M413 493l-8 -55h-137l-94 -668h-64l94 668h-138l8 55h138l39 277h63l-39 -277h138z" />
    <glyph glyph-name="daggerdbl" unicode="&#x2021;" horiz-adv-x="419" 
d="M405 438h-137l-35 -245h138l-8 -55h-137l-52 -368h-64l52 368h-138l8 55h138l34 245h-138l8 55h138l39 277h63l-39 -277h138z" />
    <glyph glyph-name="bullet" unicode="&#x2022;" horiz-adv-x="328" 
d="M160 216q-34 0 -53 18t-19 50q0 41 24.5 66t65.5 25q35 0 54 -18t19 -50q0 -41 -24.5 -66t-66.5 -25z" />
    <glyph glyph-name="ellipsis" unicode="&#x2026;" horiz-adv-x="567" 
d="M72 -10q-40 0 -40 37q0 23 12.5 36t35.5 13q39 0 39 -37q0 -49 -47 -49zM252 -10q-40 0 -40 37q0 23 12.5 36t35.5 13q39 0 39 -37q0 -49 -47 -49zM433 -10q-40 0 -40 37q0 23 12.5 36t35.5 13q39 0 39 -37q0 -49 -47 -49z" />
    <glyph glyph-name="perthousand" unicode="&#x2030;" horiz-adv-x="853" 
d="M61 16l460 597l34 -26l-460 -597zM168 301q-46 0 -70.5 30.5t-24.5 86.5q0 80 35 137.5t98 57.5q45 0 69.5 -31t24.5 -88q0 -79 -35 -136t-97 -57zM169 341q39 0 61.5 48t22.5 106q0 77 -51 77q-39 0 -61 -48.5t-22 -104.5q0 -78 50 -78zM412 -10q-46 0 -70.5 30.5
t-24.5 86.5q0 80 35 137t98 57q45 0 69.5 -31t24.5 -87q0 -79 -35 -136t-97 -57zM674 -10q-46 0 -70.5 30.5t-24.5 86.5q0 80 35 137t98 57q45 0 69.5 -31t24.5 -87q0 -79 -35 -136t-97 -57zM414 30q39 0 61.5 48t22.5 106q0 77 -51 77q-39 0 -61 -48.5t-22 -104.5
q0 -78 50 -78zM676 30q39 0 61.5 48t22.5 106q0 77 -51 77q-39 0 -61 -48.5t-22 -104.5q0 -78 50 -78z" />
    <glyph glyph-name="guilsinglleft" unicode="&#x2039;" horiz-adv-x="266" 
d="M40 250l165 216l39 -25l-124 -191l71 -191l-46 -25z" />
    <glyph glyph-name="guilsinglright" unicode="&#x203a;" horiz-adv-x="266" 
d="M225 250l-166 -216l-38 25l125 191l-71 191l44 25z" />
    <glyph glyph-name="fraction" unicode="&#x2044;" horiz-adv-x="173" 
d="M-176 19l519 711l36 -29l-519 -711z" />
    <glyph glyph-name="uni2070" unicode="&#x2070;" horiz-adv-x="367" 
d="M197 332q-58 0 -88.5 42t-30.5 119q0 113 46.5 198t130.5 85q58 0 89 -42t31 -118q0 -71 -19 -134.5t-60.5 -106.5t-98.5 -43zM201 377q38 0 66 40t40 93t12 107t-17.5 84t-50.5 30q-56 0 -87 -76.5t-31 -164.5q0 -54 17.5 -83.5t50.5 -29.5z" />
    <glyph glyph-name="uni2074" unicode="&#x2074;" horiz-adv-x="326" 
d="M337 490l-6 -44h-52l-15 -108h-54l15 108h-174l5 36l185 294l48 -13l-176 -273h122l12 84l53 20l-15 -104h52z" />
    <glyph glyph-name="uni2075" unicode="&#x2075;" horiz-adv-x="326" 
d="M331 726h-140l-32 -124l54 -2q53 -2 82.5 -30t29.5 -77q0 -73 -44 -117t-118 -44q-72 0 -119 46l28 36q38 -37 92 -37q49 0 77 30.5t28 79.5q0 68 -68 70l-107 3l51 210h192z" />
    <glyph glyph-name="uni2076" unicode="&#x2076;" horiz-adv-x="338" 
d="M267 731q-49 0 -81 -42.5t-45 -108.5q40 27 88 27q52 0 79.5 -28t27.5 -79q0 -73 -40.5 -120.5t-108.5 -47.5q-54 0 -82 40t-28 113q0 75 20 139.5t64 108t104 43.5q56 0 98 -33l-21 -39q-28 27 -75 27zM214 566q-42 0 -80 -27q-3 -29 -3 -55q0 -107 59 -107
q42 0 66.5 35.5t24.5 83.5q0 33 -17.5 51.5t-49.5 18.5z" />
    <glyph glyph-name="uni2077" unicode="&#x2077;" horiz-adv-x="289" 
d="M341 770l-5 -36l-222 -413l-50 15l210 390h-186l6 44h247z" />
    <glyph glyph-name="uni2078" unicode="&#x2078;" horiz-adv-x="346" 
d="M286 563q52 -24 52 -89t-41 -103.5t-110 -38.5q-58 0 -89.5 27t-31.5 75q0 97 83 131q-41 24 -41 78q0 61 37 97t100 36q52 0 81 -25t29 -70q0 -84 -69 -118zM241 731q-37 0 -58.5 -26t-21.5 -64q0 -28 15.5 -43t42.5 -15q37 0 58.5 26.5t21.5 64.5q0 57 -58 57zM191 377
q43 0 68.5 28t25.5 72q0 65 -69 65q-43 0 -68.5 -28t-25.5 -71q0 -31 18 -48.5t51 -17.5z" />
    <glyph glyph-name="uni2079" unicode="&#x2079;" horiz-adv-x="338" 
d="M237 776q52 0 80.5 -41.5t28.5 -117.5q0 -119 -49 -202t-140 -83q-55 0 -96 33l21 39q27 -27 75 -27q53 0 84.5 44t43.5 114q-41 -28 -89 -28q-52 0 -80 27.5t-28 77.5q0 72 40.5 118t108.5 46zM209 548q43 0 81 28q2 28 2 44q0 111 -60 111q-41 0 -64.5 -33.5
t-23.5 -80.5q0 -69 65 -69z" />
    <glyph glyph-name="uni2080" unicode="&#x2080;" horiz-adv-x="367" 
d="M134 -116q-58 0 -88.5 42t-30.5 119q0 113 46.5 198t130.5 85q58 0 89 -42t31 -118q0 -71 -19 -134.5t-60.5 -106.5t-98.5 -43zM138 -71q38 0 66 40t40 93t12 107t-17.5 84t-50.5 30q-56 0 -87 -76.5t-31 -164.5q0 -54 17.5 -83.5t50.5 -29.5z" />
    <glyph glyph-name="uni2081" unicode="&#x2081;" horiz-adv-x="213" 
d="M162 322l-61 -432h-54l52 369l-68 -35l-14 44l102 54h43z" />
    <glyph glyph-name="uni2082" unicode="&#x2082;" horiz-adv-x="311" 
d="M144 57q-31 -24 -48 -39t-33.5 -38t-19.5 -46h189l-7 -44h-243l4 29q5 38 26.5 73t42.5 54t56 47q31 25 49.5 42t35 44t16.5 54q0 50 -54 50q-49 0 -97 -41l-16 37q60 49 124 49q48 0 73.5 -23.5t25.5 -66.5q0 -38 -20 -73t-42 -56t-62 -52z" />
    <glyph glyph-name="uni2083" unicode="&#x2083;" horiz-adv-x="314" 
d="M272 322l-5 -35l-131 -137q113 -37 113 -120q0 -66 -43.5 -106t-114.5 -40q-68 0 -110 41l23 37q33 -33 88 -33q46 0 73.5 27t27.5 70q0 38 -32 60t-106 41l139 151h-143l7 44h214z" />
    <glyph glyph-name="uni2084" unicode="&#x2084;" horiz-adv-x="326" 
d="M274 42l-6 -44h-52l-15 -108h-54l15 108h-174l5 36l185 294l48 -13l-176 -273h122l12 84l53 20l-15 -104h52z" />
    <glyph glyph-name="uni2085" unicode="&#x2085;" horiz-adv-x="326" 
d="M268 278h-140l-32 -124l54 -2q53 -2 82.5 -30t29.5 -77q0 -73 -44 -117t-118 -44q-72 0 -119 46l28 36q38 -37 92 -37q49 0 77 30.5t28 79.5q0 68 -68 70l-107 3l51 210h192z" />
    <glyph glyph-name="uni2086" unicode="&#x2086;" horiz-adv-x="338" 
d="M204 283q-49 0 -81 -42.5t-45 -108.5q40 27 88 27q52 0 79.5 -28t27.5 -79q0 -73 -40.5 -120.5t-108.5 -47.5q-54 0 -82 40t-28 113q0 75 20 139.5t64 108t104 43.5q56 0 98 -33l-21 -39q-28 27 -75 27zM151 118q-42 0 -80 -27q-3 -28 -3 -55q0 -107 59 -107
q42 0 66.5 35.5t24.5 83.5q0 33 -17.5 51.5t-49.5 18.5z" />
    <glyph glyph-name="uni2087" unicode="&#x2087;" horiz-adv-x="289" 
d="M278 322l-5 -36l-222 -413l-50 15l210 390h-186l6 44h247z" />
    <glyph glyph-name="uni2088" unicode="&#x2088;" horiz-adv-x="346" 
d="M223 115q52 -24 52 -89t-41 -103.5t-110 -38.5q-58 0 -89.5 27t-31.5 75q0 97 83 131q-41 24 -41 78q0 61 37 97t100 36q52 0 81 -25t29 -70q0 -84 -69 -118zM178 283q-37 0 -58.5 -26t-21.5 -64q0 -28 15.5 -43t42.5 -15q37 0 58.5 26.5t21.5 64.5q0 57 -58 57zM128 -71
q43 0 68.5 28t25.5 72q0 65 -69 65q-43 0 -68.5 -28t-25.5 -71q0 -31 18 -48.5t51 -17.5z" />
    <glyph glyph-name="uni2089" unicode="&#x2089;" horiz-adv-x="338" 
d="M174 328q52 0 80.5 -41.5t28.5 -117.5q0 -119 -49 -202t-140 -83q-56 0 -96 33l21 39q27 -27 75 -27q53 0 84.5 44t43.5 114q-41 -28 -89 -28q-52 0 -80 27.5t-28 77.5q0 72 40.5 118t108.5 46zM146 100q43 0 81 28q2 28 2 44q0 111 -60 111q-41 0 -64.5 -33.5
t-23.5 -80.5q0 -69 65 -69z" />
    <glyph glyph-name="Euro" unicode="&#x20ac;" horiz-adv-x="533" 
d="M367 561q-81 0 -133 -66t-71 -168h217l-27 -49h-197q-2 -21 -2 -51q0 -89 35.5 -137t102.5 -48q85 0 148 52l17 -51q-70 -53 -171 -53q-94 0 -144 60.5t-50 172.5q0 19 2 55h-53l7 48h52q22 126 90.5 206.5t177.5 80.5q83 0 149 -41l-26 -46q-50 35 -124 35z" />
    <glyph glyph-name="uni20B9" unicode="&#x20b9;" horiz-adv-x="453" 
d="M455 603l-6 -45h-120q48 -30 48 -98h57l-6 -45h-60q-25 -80 -123 -114q100 -28 100 -126q0 -15 -2 -29l-15 -105q-1 -8 -1 -15q0 -14 4 -25q-19 -9 -39 -9q-27 0 -27 31q0 4 1 11l15 106q1 10 1 24q0 51 -31 79.5t-87 28.5h-92l6 46h61q63 0 107 25t60 72h-214l6 45h215
q0 46 -35 70t-96 24h-70l7 49h336z" />
    <glyph glyph-name="uni20BD" unicode="&#x20bd;" horiz-adv-x="512" 
d="M266 264h-87l-10 -71h160l-6 -45h-160l-21 -148h-61l21 148h-64l6 45h64l10 71h-63l6 48h63l41 292q104 9 159 9q86 0 132.5 -37t46.5 -105q0 -95 -65 -151t-172 -56zM220 559l-35 -247h91q73 0 118.5 40.5t45.5 110.5q0 47 -33.5 73t-95.5 26q-44 0 -91 -3z" />
    <glyph glyph-name="trademark" unicode="&#x2122;" horiz-adv-x="707" 
d="M650 725q24 0 23 -32l-11 -333h-49l12 269l-123 -269h-41l-58 272l-60 -272h-44l86 360q6 5 19 5q25 0 30 -26l58 -278l139 299q9 5 19 5zM313 680h-88l-45 -320h-47l45 320h-87l5 40h222z" />
    <glyph glyph-name="oneeighth" unicode="&#x215b;" horiz-adv-x="732" 
d="M556 730l36 -29l-519 -711l-36 29zM155 657l-68 -35l-14 44l102 54h43l-61 -432h-54zM624 225q52 -24 52 -89t-41 -103.5t-110 -38.5q-58 0 -89.5 27t-31.5 75q0 97 83 131q-41 24 -41 78q0 61 37 97t100 36q52 0 81 -25t29 -70q0 -84 -69 -118zM579 393q-37 0 -58.5 -26
t-21.5 -64q0 -28 15.5 -43t42.5 -15q37 0 58.5 26.5t21.5 64.5q0 57 -58 57zM529 39q43 0 68.5 28t25.5 72q0 65 -69 65q-43 0 -68.5 -28t-25.5 -71q0 -31 18 -48.5t51 -17.5z" />
    <glyph glyph-name="threeeighths" unicode="&#x215c;" horiz-adv-x="833" 
d="M657 730l36 -29l-519 -711l-36 29zM305 428q0 -66 -43.5 -106t-114.5 -40q-68 0 -110 41l23 37q33 -33 88 -33q46 0 73.5 27t27.5 70q0 38 -32 60t-106 41l139 151h-143l7 44h214l-5 -35l-131 -137q113 -37 113 -120zM725 225q52 -24 52 -89t-41 -103.5t-110 -38.5
q-58 0 -89.5 27t-31.5 75q0 97 83 131q-41 24 -41 78q0 61 37 97t100 36q52 0 81 -25t29 -70q0 -84 -69 -118zM680 393q-37 0 -58.5 -26t-21.5 -64q0 -28 15.5 -43t42.5 -15q37 0 58.5 26.5t21.5 64.5q0 57 -58 57zM630 39q43 0 68.5 28t25.5 72q0 65 -69 65
q-43 0 -68.5 -28t-25.5 -71q0 -31 18 -48.5t51 -17.5z" />
    <glyph glyph-name="fiveeighths" unicode="&#x215d;" horiz-adv-x="845" 
d="M669 730l36 -29l-519 -711l-36 29zM318 443q0 -73 -44 -117t-118 -44q-72 0 -119 46l28 36q38 -37 92 -37q49 0 77 30.5t28 79.5q0 68 -68 70l-107 3l51 210h192l-6 -44h-140l-32 -124l54 -2q53 -2 82.5 -30t29.5 -77zM737 225q52 -24 52 -89t-41 -103.5t-110 -38.5
q-58 0 -89.5 27t-31.5 75q0 97 83 131q-41 24 -41 78q0 61 37 97t100 36q52 0 81 -25t29 -70q0 -84 -69 -118zM692 393q-37 0 -58.5 -26t-21.5 -64q0 -28 15.5 -43t42.5 -15q37 0 58.5 26.5t21.5 64.5q0 57 -58 57zM642 39q43 0 68.5 28t25.5 72q0 65 -69 65
q-43 0 -68.5 -28t-25.5 -71q0 -31 18 -48.5t51 -17.5z" />
    <glyph glyph-name="seveneighths" unicode="&#x215e;" horiz-adv-x="773" 
d="M597 730l36 -29l-519 -711l-36 29zM107 271l-50 15l210 390h-186l6 44h247l-5 -36zM665 225q52 -24 52 -89t-41 -103.5t-110 -38.5q-58 0 -89.5 27t-31.5 75q0 97 83 131q-41 24 -41 78q0 61 37 97t100 36q52 0 81 -25t29 -70q0 -84 -69 -118zM620 393q-37 0 -58.5 -26
t-21.5 -64q0 -28 15.5 -43t42.5 -15q37 0 58.5 26.5t21.5 64.5q0 57 -58 57zM570 39q43 0 68.5 28t25.5 72q0 65 -69 65q-43 0 -68.5 -28t-25.5 -71q0 -31 18 -48.5t51 -17.5z" />
    <glyph glyph-name="partialdiff" unicode="&#x2202;" horiz-adv-x="580" 
d="M347 750q97 0 152 -76.5t55 -208.5q0 -126 -41 -233t-122.5 -174.5t-187.5 -67.5q-84 0 -133 42t-49 112q0 67 40 120t107.5 85.5t148.5 50.5t171 20q2 28 2 44q0 106 -39.5 167.5t-109.5 61.5q-99 0 -177 -99l-39 35q101 121 222 121zM209 47q107 0 179 91t94 226
q-74 -2 -143 -16t-126.5 -39.5t-92 -67.5t-34.5 -94q0 -46 33 -73t90 -27z" />
    <glyph glyph-name="emptyset" unicode="&#x2205;" horiz-adv-x="579" 
d="M541 466l-42 -41q29 -49 29 -121q0 -140 -73.5 -226.5t-197.5 -86.5q-96 0 -150 52l-41 -40l-28 33l43 42q-29 49 -29 121q0 139 74 225t198 86q96 0 148 -52l42 41zM97 202q0 -53 19 -90l323 314q-41 41 -117 41q-103 0 -164 -74.5t-61 -190.5zM484 300q0 52 -19 92
l-324 -316q44 -42 119 -42q102 0 163 75t61 191z" />
    <glyph glyph-name="product" unicode="&#x220f;" horiz-adv-x="644" 
d="M676 770l-8 -55h-57l-133 -945h-61l133 945h-323l-133 -945h-61l133 945h-60l8 55h562z" />
    <glyph glyph-name="summation" unicode="&#x2211;" horiz-adv-x="549" 
d="M459 -176l-8 -54h-490l6 46l356 457l-220 451l6 46h473l-8 -54h-398l222 -443l-353 -449h414z" />
    <glyph glyph-name="minus" unicode="&#x2212;" horiz-adv-x="474" 
d="M73 276h335l-6 -48h-336z" />
    <glyph glyph-name="radical" unicode="&#x221a;" horiz-adv-x="596" 
d="M588 770h68l-389 -853q-16 -37 -50 -37q-19 0 -38 8l-62 353h-101l8 54h146l55 -345z" />
    <glyph glyph-name="infinity" unicode="&#x221e;" horiz-adv-x="738" 
d="M539 444q71 0 109 -40t38 -113q0 -102 -52 -167.5t-144 -65.5q-108 0 -133 97q-49 -97 -157 -97q-71 0 -109 40t-38 113q0 101 52 167t144 66q108 0 133 -97q49 97 157 97zM206 109q64 0 99.5 53t35.5 126q0 50 -24 77.5t-68 27.5q-64 0 -99.5 -53t-35.5 -125
q0 -51 24 -78.5t68 -27.5zM490 109q64 0 99.5 52.5t35.5 124.5q0 52 -24.5 79.5t-68.5 27.5q-64 0 -99 -53t-35 -127q0 -50 24 -77t68 -27z" />
    <glyph glyph-name="integral" unicode="&#x222b;" horiz-adv-x="246" 
d="M247 781l23 -48q-53 -31 -66 -121l-98 -702q-16 -114 -100 -151l-24 48q53 31 66 121l98 702q17 114 101 151z" />
    <glyph glyph-name="approxequal" unicode="&#x2248;" horiz-adv-x="562" 
d="M90 266l-19 32q22 29 52 46.5t58 17.5q49 0 119 -20q62 -17 96 -17q38 0 78 46l20 -32q-52 -65 -111 -65q-41 0 -121 20q-59 17 -93 17q-40 0 -79 -45zM90 136l-19 32q22 29 52 46.5t58 17.5q49 0 119 -20q62 -17 96 -17q38 0 78 46l20 -32q-52 -65 -111 -65
q-41 0 -121 20q-59 17 -93 17q-40 0 -79 -45z" />
    <glyph glyph-name="notequal" unicode="&#x2260;" horiz-adv-x="475" 
d="M412 293h-138l-33 -82h158l-6 -48h-171l-66 -163h-39l65 163h-125l7 48h137l33 82h-158l7 48h170l61 152h41l-61 -152h124z" />
    <glyph glyph-name="lessequal" unicode="&#x2264;" horiz-adv-x="467" 
d="M435 498l-7 -51l-302 -129l266 -128l-7 -50l-315 154l4 29l3 19zM29 0l7 49h336l-7 -49h-336z" />
    <glyph glyph-name="greaterequal" unicode="&#x2265;" horiz-adv-x="464" 
d="M417 342l-2 -17l-5 -31l-357 -154l7 50l300 128l-265 129l7 51zM33 0l7 49h336l-7 -49h-336z" />
    <glyph glyph-name="lozenge" unicode="&#x25ca;" horiz-adv-x="422" 
d="M30 246l215 257l146 -257l-216 -256zM90 246l98 -177l141 177l-94 175z" />
    <glyph glyph-name="i.loclTRK" horiz-adv-x="211" 
d="M160 600q-37 0 -37 34q0 44 43 44q37 0 37 -34q0 -44 -43 -44zM169 493l-62 -447q-1 -8 -1 -17q0 -17 5 -29q-19 -10 -41 -10q-26 0 -26 34q0 5 1 12l63 457h61z" />
    <glyph glyph-name="j.ss01" horiz-adv-x="218" 
d="M163 600q-37 0 -37 34q0 44 43 44q37 0 37 -34q0 -44 -43 -44zM-51 -240q59 0 98 42t49 116l80 575h-61l-79 -562q-17 -119 -93 -119q-33 0 -59 16l-20 -50q33 -18 85 -18z" />
    <glyph glyph-name="y.ss01" horiz-adv-x="514" 
d="M444 503q25 0 25 -31q0 -5 -1 -13l-70 -501q-13 -92 -69 -145t-141 -53q-106 0 -173 50l34 44q57 -43 142 -43q61 0 99 41.5t49 117.5l17 117q-67 -97 -180 -97q-59 0 -90.5 34.5t-31.5 97.5q0 20 3 43l47 329q20 9 32 9q25 0 25 -31q0 -5 -1 -13l-39 -276q-3 -19 -3 -37
q0 -104 83 -104q65 0 113 42.5t58 117.5l41 292q20 9 31 9z" />
    <glyph glyph-name="yacute.ss01" horiz-adv-x="514" 
d="M406 739l27 -60l-165 -83l-15 36zM444 503q25 0 25 -31q0 -5 -1 -13l-70 -501q-13 -92 -69 -145t-141 -53q-106 0 -173 50l34 44q57 -43 142 -43q61 0 99 41.5t49 117.5l17 117q-67 -97 -180 -97q-59 0 -90.5 34.5t-31.5 97.5q0 20 3 43l47 329q20 9 32 9q25 0 25 -31
q0 -5 -1 -13l-39 -276q-3 -19 -3 -37q0 -104 83 -104q65 0 113 42.5t58 117.5l41 292q20 9 31 9z" />
    <glyph glyph-name="ycircumflex.ss01" horiz-adv-x="514" 
d="M190 596l-15 36l151 104l1 1h1l1 -1l123 -104l-25 -36l-110 66zM444 503q25 0 25 -31q0 -5 -1 -13l-70 -501q-13 -92 -69 -145t-141 -53q-106 0 -173 50l34 44q57 -43 142 -43q61 0 99 41.5t49 117.5l17 117q-67 -97 -180 -97q-59 0 -90.5 34.5t-31.5 97.5q0 20 3 43
l47 329q20 9 32 9q25 0 25 -31q0 -5 -1 -13l-39 -276q-3 -19 -3 -37q0 -104 83 -104q65 0 113 42.5t58 117.5l41 292q20 9 31 9z" />
    <glyph glyph-name="ydieresis.ss01" horiz-adv-x="514" 
d="M234 600q-37 0 -37 34q0 44 43 44q37 0 37 -34q0 -44 -43 -44zM379 600q-37 0 -37 34q0 44 43 44q37 0 37 -34q0 -44 -43 -44zM444 503q25 0 25 -31q0 -5 -1 -13l-70 -501q-13 -92 -69 -145t-141 -53q-106 0 -173 50l34 44q57 -43 142 -43q61 0 99 41.5t49 117.5l17 117
q-67 -97 -180 -97q-59 0 -90.5 34.5t-31.5 97.5q0 20 3 43l47 329q20 9 32 9q25 0 25 -31q0 -5 -1 -13l-39 -276q-3 -19 -3 -37q0 -104 83 -104q65 0 113 42.5t58 117.5l41 292q20 9 31 9z" />
    <glyph glyph-name="ygrave.ss01" horiz-adv-x="514" 
d="M220 739l153 -107l-15 -36l-165 83zM444 503q25 0 25 -31q0 -5 -1 -13l-70 -501q-13 -92 -69 -145t-141 -53q-106 0 -173 50l34 44q57 -43 142 -43q61 0 99 41.5t49 117.5l17 117q-67 -97 -180 -97q-59 0 -90.5 34.5t-31.5 97.5q0 20 3 43l47 329q20 9 32 9q25 0 25 -31
q0 -5 -1 -13l-39 -276q-3 -19 -3 -37q0 -104 83 -104q65 0 113 42.5t58 117.5l41 292q20 9 31 9z" />
    <glyph glyph-name="f_b" horiz-adv-x="856" 
d="M669 503q69 0 107 -47t38 -134q0 -143 -72 -237.5t-201 -94.5q-80 0 -170 10l63 444h-248l-74 -531q-16 -114 -104 -152l-20 44q52 29 65 120l72 519h-74l7 49h74l18 132q10 74 51 114.5t104 40.5q58 0 97 -19l-14 -48q-33 15 -72 15q-89 0 -107 -122l-16 -113h248
l39 278q15 9 31 9q25 0 25 -31q0 -5 -1 -13l-51 -361q33 58 83 93t102 35zM537 40q102 0 157.5 76t55.5 188q0 70 -24.5 108.5t-72.5 38.5q-60 0 -116.5 -53.5t-69.5 -143.5l-29 -210q68 -4 99 -4z" />
    <glyph glyph-name="f_f_j" horiz-adv-x="811" 
d="M770 493l-81 -580q-16 -114 -104 -152l-20 44q51 28 64 120l72 519h-232l-74 -531q-16 -114 -104 -152l-20 44q52 29 65 120l72 519h-222l-74 -531q-16 -114 -104 -152l-20 44q52 29 65 120l72 519h-74l7 49h74l18 132q10 74 51 114.5t104 40.5q58 0 97 -19l-14 -48
q-33 15 -72 15q-89 0 -107 -122l-16 -113h222l18 132q10 74 50.5 114.5t103.5 40.5q59 0 99 -18l-14 -49q-30 15 -71 15q-45 0 -73.5 -32t-36.5 -90l-16 -113h295zM762 678q37 0 37 -34q0 -44 -43 -44q-37 0 -37 34q0 44 43 44z" />
    <glyph glyph-name="f_f_j.ss01" horiz-adv-x="811" 
d="M769 493l-80 -575q-10 -74 -49 -116t-98 -42q-52 0 -85 18l20 50q26 -16 59 -16q76 0 93 119l72 513h-232l-74 -531q-16 -114 -104 -152l-20 44q52 29 65 120l72 519h-222l-74 -531q-16 -114 -104 -152l-20 44q52 29 65 120l72 519h-74l7 49h74l18 132q10 74 51 114.5
t104 40.5q58 0 97 -19l-14 -48q-33 15 -72 15q-89 0 -107 -122l-16 -113h222l18 132q10 74 50.5 114.5t103.5 40.5q59 0 99 -18l-14 -49q-30 15 -71 15q-45 0 -73.5 -32t-36.5 -90l-16 -113h294zM762 678q37 0 37 -34q0 -44 -43 -44q-37 0 -37 34q0 44 43 44z" />
    <glyph glyph-name="f_f_t" horiz-adv-x="941" 
d="M788 444l-40 -283q-3 -20 -3 -35q0 -84 63 -84q38 0 75 17l4 -51q-40 -18 -95 -18q-52 0 -80.5 31.5t-28.5 89.5q0 17 3 37l42 296h-259l-74 -531q-16 -114 -104 -152l-20 44q52 29 65 120l72 519h-222l-74 -531q-16 -114 -104 -152l-20 44q52 29 65 120l72 519h-74l7 49
h74l18 132q10 74 51 114.5t104 40.5q58 0 97 -19l-14 -48q-33 15 -72 15q-89 0 -107 -122l-16 -113h222l18 132q10 74 51 114.5t104 40.5q58 0 101 -20l-14 -48q-33 16 -74 16q-45 0 -73 -32t-36 -90l-16 -113h260l17 128q13 7 26 7q30 0 30 -35q0 -5 -1 -12l-13 -88h159
l-7 -49h-159z" />
    <glyph glyph-name="f_h" horiz-adv-x="855" 
d="M795 322l-39 -276q-1 -8 -1 -17q0 -17 5 -29q-20 -10 -41 -10q-26 0 -26 34q0 5 1 12l39 272q3 22 3 41q0 49 -20 75.5t-58 26.5q-74 0 -126.5 -57.5t-66.5 -158.5l-33 -235h-61l63 444h-248l-74 -531q-16 -114 -104 -152l-20 44q52 29 65 120l72 519h-74l7 49h74l18 132
q10 74 51 114.5t104 40.5q58 0 97 -19l-14 -48q-33 15 -72 15q-89 0 -107 -122l-16 -113h248l39 278q15 9 31 9q25 0 25 -31q0 -5 -1 -13l-50 -359q70 126 189 126q60 0 92.5 -36t32.5 -100q0 -13 -4 -45z" />
    <glyph glyph-name="f_iacute" horiz-adv-x="528" 
d="M487 493l-62 -447q-1 -8 -1 -17q0 -17 5 -29q-19 -10 -41 -10q-26 0 -26 34q0 5 1 12l56 408h-233l-74 -531q-16 -114 -104 -152l-20 44q52 29 65 120l72 519h-74l7 49h74l18 132q10 74 51 114.5t104 40.5q57 0 98 -18l-14 -49q-30 15 -71 15q-91 0 -109 -122l-16 -113
h294zM600 679l-165 -83l-15 36l153 107z" />
    <glyph glyph-name="f_j" horiz-adv-x="528" 
d="M487 493l-81 -580q-16 -114 -104 -152l-20 44q51 28 64 120l72 519h-232l-74 -531q-16 -114 -104 -152l-20 44q52 29 65 120l72 519h-74l7 49h74l18 132q10 74 51 114.5t104 40.5q57 0 98 -18l-14 -49q-30 15 -71 15q-91 0 -109 -122l-16 -113h294zM479 678q37 0 37 -34
q0 -44 -43 -44q-37 0 -37 34q0 44 43 44z" />
    <glyph glyph-name="f_j.ss01" horiz-adv-x="528" 
d="M486 493l-80 -575q-10 -74 -49 -116t-98 -42q-52 0 -85 18l20 50q26 -16 59 -16q76 0 93 119l72 513h-232l-74 -531q-16 -114 -104 -152l-20 44q52 29 65 120l72 519h-74l7 49h74l18 132q10 74 51 114.5t104 40.5q57 0 98 -18l-14 -49q-30 15 -71 15q-91 0 -109 -122
l-16 -113h293zM479 678q37 0 37 -34q0 -44 -43 -44q-37 0 -37 34q0 44 43 44z" />
    <glyph glyph-name="f_k" horiz-adv-x="794" 
d="M536 749q0 -5 -1 -13l-103 -736h-61l63 444h-248l-74 -531q-16 -114 -104 -152l-20 44q52 29 65 120l72 519h-74l7 49h74l18 132q10 74 51 114.5t104 40.5q58 0 97 -19l-14 -48q-33 15 -72 15q-89 0 -107 -122l-16 -113h248l39 278q15 9 31 9q25 0 25 -31zM798 490
l-253 -226l211 -263q-16 -11 -40 -11q-31 0 -56 32l-190 239l269 242z" />
    <glyph glyph-name="f_t" horiz-adv-x="656" 
d="M505 444l-40 -283q-3 -19 -3 -35q0 -84 63 -84q38 0 75 17l4 -51q-40 -18 -95 -18q-52 0 -80.5 31.5t-28.5 89.5q0 17 3 37l42 296h-259l-74 -531q-16 -114 -104 -152l-20 44q52 29 65 120l72 519h-74l7 49h74l18 132q10 74 51 114.5t104 40.5q58 0 101 -20l-14 -48
q-33 16 -74 16q-45 0 -73 -32t-36 -90l-16 -113h260l17 128q13 7 26 7q30 0 30 -35q0 -5 -1 -12l-13 -88h159l-7 -49h-159z" />
    <glyph glyph-name="t_t" horiz-adv-x="636" 
d="M484 444l-40 -283q-3 -19 -3 -35q0 -84 63 -84q38 0 75 17l4 -51q-40 -18 -95 -18q-52 0 -80.5 31.5t-28.5 89.5q0 17 3 37l42 296h-242l-40 -283q-3 -19 -3 -35q0 -84 63 -84q38 0 75 17l4 -51q-40 -18 -95 -18q-52 0 -80.5 31.5t-28.5 89.5q0 17 3 37l42 296h-74l7 49
h75l17 128q13 7 26 7q30 0 30 -35q0 -5 -1 -12l-13 -88h243l17 128q13 7 26 7q30 0 30 -35q0 -5 -1 -12l-13 -88h159l-7 -49h-159z" />
    <glyph glyph-name="ordfeminine.case" horiz-adv-x="415" 
d="M362 414q-1 -6 -1 -14q0 -10 5 -22q-18 -9 -36 -9q-21 0 -21 26q0 6 1 15l5 45q-51 -86 -126 -86q-47 0 -74 32.5t-27 92.5q0 101 51.5 168.5t143.5 67.5q55 0 123 -7zM207 414q39 0 75.5 37t45.5 101l18 132q-42 2 -62 2q-67 0 -103.5 -50.5t-36.5 -125.5q0 -96 63 -96z
" />
    <glyph glyph-name="ordfeminine.lf" horiz-adv-x="415" 
d="M362 414q-1 -6 -1 -14q0 -10 5 -22q-18 -9 -36 -9q-21 0 -21 26q0 6 1 15l5 45q-51 -86 -126 -86q-47 0 -74 32.5t-27 92.5q0 101 51.5 168.5t143.5 67.5q55 0 123 -7zM207 414q39 0 75.5 37t45.5 101l18 132q-42 2 -62 2q-67 0 -103.5 -50.5t-36.5 -125.5q0 -96 63 -96z
" />
    <glyph glyph-name="ordmasculine.case" horiz-adv-x="408" 
d="M222 369q-64 0 -98 37t-34 105q0 94 48 156.5t131 62.5q64 0 98.5 -37.5t34.5 -105.5q0 -94 -48 -156t-132 -62zM225 414q57 0 89.5 51t32.5 121q0 47 -21 73t-60 26q-58 0 -90 -51t-32 -121q0 -48 21 -73.5t60 -25.5z" />
    <glyph glyph-name="ordmasculine.lf" horiz-adv-x="408" 
d="M222 369q-64 0 -98 37t-34 105q0 94 48 156.5t131 62.5q64 0 98.5 -37.5t34.5 -105.5q0 -94 -48 -156t-132 -62zM225 414q57 0 89.5 51t32.5 121q0 47 -21 73t-60 26q-58 0 -90 -51t-32 -121q0 -48 21 -73.5t60 -25.5z" />
    <glyph glyph-name="uni0414.loclBGR" horiz-adv-x="615" 
d="M528 54h35l-23 -165q-15 -9 -31 -9q-28 0 -28 35q0 6 1 14l10 71h-440l-17 -111q-13 -9 -30 -9q-26 0 -26 35q0 6 1 14l17 125h34l306 669q17 7 34 7q37 0 44 -40zM97 54h363l-97 607z" />
    <glyph glyph-name="uni041B.loclBGR" horiz-adv-x="574" 
d="M518 0h-69l-107 663l-290 -663h-67l332 723q17 7 34 7q37 0 44 -40z" />
    <glyph glyph-name="uni0424.loclBGR" horiz-adv-x="744" 
d="M712 441q0 -186 -92 -312t-254 -138l-14 -101h-63l14 101q-115 10 -177.5 85t-62.5 204q0 121 39 219t118.5 160.5t187.5 69.5l14 102q13 9 30 9q28 0 28 -35q0 -6 -1 -14l-9 -62q117 -10 179.5 -84.5t62.5 -203.5zM127 282q0 -104 47.5 -164t136.5 -69l88 622
q-128 -12 -200 -123t-72 -266zM374 48q129 13 201.5 124t72.5 266q0 104 -48 164t-138 69z" />
    <glyph glyph-name="uni0431.loclSRB" horiz-adv-x="521" 
d="M304 685q-126 -27 -126 -84q0 -16 14.5 -31t31 -24t49.5 -26q36 -18 55.5 -29t51.5 -34.5t49.5 -47t31 -59t13.5 -77.5q0 -121 -67.5 -202t-180.5 -81q-88 0 -136.5 50t-48.5 140q0 199 206 294q-81 43 -103 64q-28 28 -28 61q0 58 48.5 88.5t140.5 50.5l187 41
q10 -10 10 -26q0 -25 -43 -34zM413 271q0 62 -32.5 103.5t-88.5 74.5q-189 -90 -189 -264q0 -68 33.5 -105.5t94.5 -37.5q83 0 132.5 68t49.5 161z" />
    <glyph glyph-name="uni0432.loclBGR" horiz-adv-x="510" 
d="M343 413q117 -31 117 -160q0 -115 -66.5 -189t-180.5 -74q-73 0 -113.5 41t-40.5 115q0 22 3 44l56 405q12 87 64 136t132 49q87 0 133.5 -39.5t46.5 -113.5q0 -79 -40 -135t-111 -79zM179 591l-22 -158h104q78 0 124 50t46 129q0 56 -32 87t-90 31q-52 0 -86.5 -37
t-43.5 -102zM225 40q82 0 127.5 59.5t45.5 150.5q0 65 -34 101t-97 36h-117l-27 -191q-2 -15 -2 -38q0 -56 27.5 -87t76.5 -31z" />
    <glyph glyph-name="uni0432.ss01" horiz-adv-x="470" 
d="M322 256q86 -22 86 -102q0 -74 -55 -119t-142 -45q-98 0 -171 10l68 493q85 10 172 10q69 0 105.5 -28.5t36.5 -81.5q0 -101 -100 -137zM360 381q0 34 -25 53t-69 19q-60 0 -103 -4l-25 -175h103q55 0 87 28t32 79zM223 40q57 0 90.5 29t33.5 82q0 38 -25 59.5t-71 21.5
h-119l-26 -188q48 -4 117 -4z" />
    <glyph glyph-name="uni0433.loclBGR" horiz-adv-x="410" 
d="M231 503q69 0 107 -29t38 -81q0 -37 -13 -65.5t-40 -49t-52.5 -32.5t-65.5 -27q-39 -14 -61 -25t-41 -33.5t-19 -51.5q0 -33 26 -51t73 -18q90 0 146 38l14 -45q-59 -43 -167 -43q-74 0 -115 30t-41 84q0 34 12 60t38.5 45t48.5 29.5t61 26.5q33 13 51.5 22t40 24t31 34
t9.5 45q0 62 -81 62q-61 0 -122 -33l-23 48q68 36 145 36z" />
    <glyph glyph-name="uni0433.loclSRB" horiz-adv-x="211" 
d="M45 664h234l-7 -48h-234zM169 493l-62 -447q-1 -8 -1 -17q0 -17 5 -29q-19 -10 -41 -10q-26 0 -26 34q0 5 1 12l63 457h61z" />
    <glyph glyph-name="uni0433.ss01" horiz-adv-x="368" 
d="M379 493l-7 -49h-210l-61 -444h-61l68 493h271z" />
    <glyph glyph-name="uni0453.ss01" horiz-adv-x="368" 
d="M373 679l-165 -83l-15 36l153 107zM379 493l-7 -49h-210l-61 -444h-61l68 493h271z" />
    <glyph glyph-name="uni0434.loclBGR" horiz-adv-x="525" 
d="M315 503q80 0 170 -10l-75 -535q-13 -93 -68.5 -145.5t-141.5 -52.5q-106 0 -173 50l34 44q57 -43 142 -43q61 0 99 41t49 118l20 147q-33 -58 -83 -92.5t-102 -34.5q-69 0 -106.5 46.5t-37.5 133.5q0 144 71.5 238.5t201.5 94.5zM388 238l29 210q-66 4 -98 4
q-102 0 -157.5 -75.5t-55.5 -187.5q0 -70 24.5 -108.5t71.5 -38.5q60 0 116.5 53.5t69.5 142.5z" />
    <glyph glyph-name="uni0434.loclSRB" horiz-adv-x="525" 
d="M315 503q80 0 170 -10l-75 -535q-13 -93 -68.5 -145.5t-141.5 -52.5q-106 0 -173 50l34 44q57 -43 142 -43q61 0 99 41t49 118l20 147q-33 -58 -83 -92.5t-102 -34.5q-69 0 -106.5 46.5t-37.5 133.5q0 144 71.5 238.5t201.5 94.5zM388 238l29 210q-66 4 -98 4
q-102 0 -157.5 -75.5t-55.5 -187.5q0 -70 24.5 -108.5t71.5 -38.5q60 0 116.5 53.5t69.5 142.5z" />
    <glyph glyph-name="uni0434.ss01" horiz-adv-x="511" 
d="M459 493l-61 -444h36l-24 -160q-15 -9 -32 -9q-24 0 -24 32q0 7 1 14l11 74h-319l-17 -111q-17 -9 -31 -9q-24 0 -24 32q0 7 1 14l18 121q75 35 103 178l51 268h311zM68 48h269l54 394h-195l-43 -229q-21 -111 -85 -165z" />
    <glyph glyph-name="uni0436.loclBGR" horiz-adv-x="655" 
d="M427 749q0 -5 -1 -13l-103 -736h-61l109 771q15 9 31 9q25 0 25 -31zM158 471l139 -211l-244 -260h-74l249 262l-159 230q15 11 36 11q31 0 53 -32zM652 490l-220 -230l176 -259q-16 -11 -36 -11q-34 0 -55 32l-155 239l231 242z" />
    <glyph glyph-name="uni0437.loclBGR" horiz-adv-x="438" 
d="M67 426q36 36 84.5 56.5t92.5 20.5q66 0 102.5 -39t36.5 -108q0 -74 -34 -128t-94 -73q52 -7 81.5 -46t29.5 -103q0 -112 -61.5 -179t-161.5 -67q-120 0 -180 105l32 42q49 -92 148 -92q72 0 116.5 51.5t44.5 137.5q0 57 -30.5 88.5t-87.5 31.5h-63l8 52h62q56 0 91 46.5
t35 123.5q0 49 -23 76t-66 27q-83 0 -151 -70z" />
    <glyph glyph-name="uni0438.loclBGR" horiz-adv-x="513" 
d="M468 459l-58 -409q-2 -16 -2 -21q0 -12 5 -29q-19 -10 -39 -10q-25 0 -25 35q0 6 1 13l10 77q-32 -58 -79.5 -91.5t-105.5 -33.5t-89 34.5t-31 97.5q0 20 3 43l47 329q20 9 32 9q25 0 25 -31q0 -5 -1 -13l-39 -276q-3 -19 -3 -37q0 -104 80 -104q68 0 117 52.5t62 147.5
l36 252q18 9 30 9q25 0 25 -31q0 -5 -1 -13z" />
    <glyph glyph-name="uni0438.ss01" horiz-adv-x="525" 
d="M456 503q26 0 26 -31q0 -5 -1 -13l-65 -459h-61l48 341l-292 -262l-11 -79h-61l70 494q18 9 31 9q26 0 26 -31q0 -5 -1 -13l-43 -306l292 262l11 79q18 9 31 9z" />
    <glyph glyph-name="uni0439.loclBGR" horiz-adv-x="513" 
d="M449 708q-8 -59 -45 -91t-96 -32q-54 0 -83.5 26t-29.5 73q0 8 2 24h46q-1 -6 -1 -16q0 -61 68 -61q38 0 63 20.5t29 56.5h47zM468 459l-58 -409q-2 -16 -2 -21q0 -12 5 -29q-19 -10 -39 -10q-25 0 -25 35q0 6 1 13l10 77q-32 -58 -79.5 -91.5t-105.5 -33.5t-89 34.5
t-31 97.5q0 20 3 43l47 329q20 9 32 9q25 0 25 -31q0 -5 -1 -13l-39 -276q-3 -19 -3 -37q0 -104 80 -104q68 0 117 52.5t62 147.5l36 252q18 9 30 9q25 0 25 -31q0 -5 -1 -13z" />
    <glyph glyph-name="uni0439.ss01" horiz-adv-x="525" 
d="M320 585q-54 0 -83.5 26t-29.5 73q0 8 2 24h46q-1 -6 -1 -16q0 -61 68 -61q38 0 63 20.5t29 56.5h47q-8 -59 -45 -91t-96 -32zM456 503q26 0 26 -31q0 -5 -1 -13l-65 -459h-61l48 341l-292 -262l-11 -79h-61l70 494q18 9 31 9q26 0 26 -31q0 -5 -1 -13l-43 -306l292 262
l11 79q18 9 31 9z" />
    <glyph glyph-name="uni045D.loclBGR" horiz-adv-x="513" 
d="M216 739l153 -107l-15 -36l-165 83zM468 459l-58 -409q-2 -16 -2 -21q0 -12 5 -29q-19 -10 -39 -10q-25 0 -25 35q0 6 1 13l10 77q-32 -58 -79.5 -91.5t-105.5 -33.5t-89 34.5t-31 97.5q0 20 3 43l47 329q20 9 32 9q25 0 25 -31q0 -5 -1 -13l-39 -276q-3 -19 -3 -37
q0 -104 80 -104q68 0 117 52.5t62 147.5l36 252q18 9 30 9q25 0 25 -31q0 -5 -1 -13z" />
    <glyph glyph-name="uni045D.ss01" horiz-adv-x="525" 
d="M381 632l-15 -36l-165 83l27 60zM456 503q26 0 26 -31q0 -5 -1 -13l-65 -459h-61l48 341l-292 -262l-11 -79h-61l70 494q18 9 31 9q26 0 26 -31q0 -5 -1 -13l-43 -306l292 262l11 79q18 9 31 9z" />
    <glyph glyph-name="uni043A.loclBGR" horiz-adv-x="463" 
d="M205 749q0 -5 -1 -13l-103 -736h-61l109 771q15 9 31 9q25 0 25 -31zM467 490l-253 -226l211 -263q-17 -11 -40 -11q-31 0 -56 32l-190 239l269 242z" />
    <glyph glyph-name="uni043B.loclBGR" horiz-adv-x="460" 
d="M405 0h-64l-85 440l-210 -440h-60l245 495q14 8 30 8q34 0 43 -40z" />
    <glyph glyph-name="uni043F.loclBGR" 
d="M463 322l-39 -276q-1 -8 -1 -17q0 -17 5 -29q-20 -10 -41 -10q-26 0 -26 34q0 5 1 12l39 272q3 22 3 41q0 49 -20 75.5t-58 26.5q-74 0 -126 -57.5t-66 -158.5l-33 -235h-61l68 494q16 9 30 9q26 0 26 -34q0 -6 -1 -14l-9 -77q70 125 188 125q60 0 92.5 -36t32.5 -100
q0 -13 -4 -45z" />
    <glyph glyph-name="uni043F.loclSRB" horiz-adv-x="513" 
d="M192 664h234l-7 -48h-234zM468 459l-58 -409q-2 -16 -2 -21q0 -12 5 -29q-19 -10 -39 -10q-25 0 -25 35q0 6 1 13l10 77q-32 -58 -79.5 -91.5t-105.5 -33.5t-89 34.5t-31 97.5q0 20 3 43l47 329q20 9 32 9q25 0 25 -31q0 -5 -1 -13l-39 -276q-3 -19 -3 -37
q0 -104 80 -104q68 0 117 52.5t62 147.5l36 252q18 9 30 9q25 0 25 -31q0 -5 -1 -13z" />
    <glyph glyph-name="uni043F.ss01" horiz-adv-x="522" 
d="M481 493l-68 -493h-61l61 444h-251l-61 -444h-61l68 493h373z" />
    <glyph glyph-name="uni0442.loclBGR" horiz-adv-x="769" 
d="M707 325l-39 -279q-1 -8 -1 -17q0 -17 5 -29q-19 -10 -40 -10q-27 0 -27 34q0 5 1 12l39 276q3 24 3 44q0 95 -64 95q-63 0 -109 -57.5t-60 -158.5l-33 -235h-61l44 312q3 24 3 44q0 95 -65 95q-64 0 -109.5 -57t-59.5 -159l-33 -235h-61l68 494q16 9 30 9q26 0 26 -34
q0 -6 -1 -14l-9 -72q66 120 171 120q49 0 77 -32.5t30 -89.5q71 122 173 122q51 0 78.5 -35t27.5 -97q0 -12 -4 -46z" />
    <glyph glyph-name="uni0442.loclSRB" horiz-adv-x="767" 
d="M243 664h394l-7 -48h-394zM722 459l-58 -408q-2 -13 -2 -22q0 -12 5 -29q-19 -10 -39 -10q-25 0 -25 35q0 6 1 14l9 69q-65 -118 -170 -118q-49 0 -76.5 33t-29.5 93q-70 -126 -174 -126q-51 0 -78.5 35t-27.5 99q0 20 3 44l46 326q20 9 32 9q25 0 25 -31q0 -5 -1 -13
l-40 -279q-3 -24 -3 -43q0 -95 62 -95q64 0 110.5 53.5t59.5 147.5l35 251q18 9 31 9q25 0 25 -31q0 -5 -1 -13l-38 -279q-3 -24 -3 -44q0 -94 62 -94q64 0 110.5 53.5t59.5 147.5l36 251q18 9 30 9q25 0 25 -31q0 -5 -1 -13z" />
    <glyph glyph-name="uni0442.ss01" horiz-adv-x="380" 
d="M392 493l-6 -49h-139l-61 -444h-61l61 444h-138l7 49h337z" />
    <glyph glyph-name="uni0443.ss01" horiz-adv-x="514" 
d="M444 503q25 0 25 -31q0 -5 -1 -13l-70 -501q-13 -92 -69 -145t-141 -53q-106 0 -173 50l34 44q57 -43 142 -43q61 0 99 41.5t49 117.5l17 117q-67 -97 -180 -97q-59 0 -90.5 34.5t-31.5 97.5q0 20 3 43l47 329q20 9 32 9q25 0 25 -31q0 -5 -1 -13l-39 -276q-3 -19 -3 -37
q0 -104 83 -104q65 0 113 42.5t58 117.5l41 292q20 9 31 9z" />
    <glyph glyph-name="uni045E.ss01" horiz-adv-x="514" 
d="M453 708q-8 -59 -45 -91t-96 -32q-54 0 -83.5 26t-29.5 73q0 8 2 24h46q-1 -6 -1 -16q0 -61 68 -61q38 0 63 20.5t29 56.5h47zM444 503q25 0 25 -31q0 -5 -1 -13l-70 -501q-13 -92 -69 -145t-141 -53q-106 0 -173 50l34 44q57 -43 142 -43q61 0 99 41.5t49 117.5l17 117
q-67 -97 -180 -97q-59 0 -90.5 34.5t-31.5 97.5q0 20 3 43l47 329q20 9 32 9q25 0 25 -31q0 -5 -1 -13l-39 -276q-3 -19 -3 -37q0 -104 83 -104q65 0 113 42.5t58 117.5l41 292q20 9 31 9z" />
    <glyph glyph-name="uni0446.loclBGR" horiz-adv-x="523" 
d="M468 459l-58 -409v-1h37l-24 -160q-15 -9 -31 -9q-25 0 -25 32q0 7 1 14l9 64h-3q-25 0 -25 35q0 6 1 13l10 77q-32 -58 -79.5 -91.5t-105.5 -33.5t-89 34.5t-31 97.5q0 20 3 43l47 329q20 9 32 9q25 0 25 -31q0 -5 -1 -13l-39 -276q-3 -19 -3 -37q0 -104 80 -104
q68 0 117 52.5t62 147.5l36 252q18 9 30 9q25 0 25 -31q0 -5 -1 -13z" />
    <glyph glyph-name="uni0448.loclBGR" horiz-adv-x="767" 
d="M722 459l-58 -408q-2 -13 -2 -22q0 -12 5 -29q-19 -10 -39 -10q-25 0 -25 35q0 6 1 14l9 69q-65 -118 -170 -118q-49 0 -76.5 33t-29.5 93q-70 -126 -174 -126q-51 0 -78.5 35t-27.5 99q0 20 3 44l46 326q20 9 32 9q25 0 25 -31q0 -5 -1 -13l-40 -279q-3 -24 -3 -43
q0 -95 62 -95q64 0 110.5 53.5t59.5 147.5l35 251q18 9 31 9q25 0 25 -31q0 -5 -1 -13l-38 -279q-3 -24 -3 -44q0 -94 62 -94q64 0 110.5 53.5t59.5 147.5l36 251q18 9 30 9q25 0 25 -31q0 -5 -1 -13z" />
    <glyph glyph-name="uni0449.loclBGR" horiz-adv-x="777" 
d="M722 459l-58 -408v-2h39l-24 -160q-15 -9 -31 -9q-25 0 -25 32q0 7 1 14l9 64h-5q-25 0 -25 35q0 6 1 14l9 69q-65 -118 -170 -118q-49 0 -76.5 33t-29.5 93q-70 -126 -174 -126q-51 0 -78.5 35t-27.5 99q0 20 3 44l46 326q20 9 32 9q25 0 25 -31q0 -5 -1 -13l-40 -279
q-3 -24 -3 -43q0 -95 62 -95q64 0 110.5 53.5t59.5 147.5l35 251q18 9 31 9q25 0 25 -31q0 -5 -1 -13l-38 -279q-3 -24 -3 -44q0 -94 62 -94q64 0 110.5 53.5t59.5 147.5l36 251q18 9 30 9q25 0 25 -31q0 -5 -1 -13z" />
    <glyph glyph-name="uni044C.loclBGR" horiz-adv-x="438" 
d="M238 309q74 0 114 -33.5t40 -94.5q0 -86 -57 -138.5t-151 -52.5q-58 0 -94.5 33t-36.5 92q0 13 3 34l49 345q18 9 31 9q25 0 25 -31q0 -6 -1 -13l-22 -154q60 4 100 4zM194 39q63 0 100.5 36t37.5 98q0 41 -27.5 64t-79.5 23q-55 0 -94 -4l-15 -105q-2 -14 -2 -25
q0 -41 21 -64t59 -23z" />
    <glyph glyph-name="uni044C.ss01" horiz-adv-x="441" 
d="M236 309q77 0 118.5 -33.5t41.5 -94.5q0 -87 -58.5 -139t-154.5 -52q-85 0 -144 10l70 494q18 9 31 9q25 0 25 -31q0 -5 -1 -13l-22 -154q58 4 94 4zM194 39q65 0 103 35.5t38 97.5q0 42 -28.5 65.5t-81.5 23.5t-90 -4l-30 -215q41 -3 89 -3z" />
    <glyph glyph-name="uni044A.loclBGR" horiz-adv-x="475" 
d="M275 309q74 0 114 -33.5t40 -94.5q0 -86 -57 -138.5t-151 -52.5q-58 0 -94.5 33t-36.5 92q0 13 3 34l41 293h-84l7 51h145l-27 -188q60 4 100 4zM231 39q63 0 100.5 36t37.5 98q0 41 -27.5 64t-79.5 23q-55 0 -94 -4l-15 -105q-2 -14 -2 -25q0 -41 21 -64t59 -23z" />
    <glyph glyph-name="uni044A.ss01" horiz-adv-x="472" 
d="M268 309q77 0 118.5 -33.5t41.5 -94.5q0 -87 -58.5 -139t-154.5 -52q-85 0 -144 10l62 442h-84l6 51h145l-26 -188q56 4 94 4zM226 39q65 0 103 35.5t38 97.5q0 42 -28.5 65.5t-81.5 23.5t-90 -4l-30 -215q40 -3 89 -3z" />
    <glyph glyph-name="uni044B.ss01" horiz-adv-x="623" 
d="M236 309q77 0 118.5 -33.5t41.5 -94.5q0 -87 -58.5 -139t-154.5 -52q-85 0 -144 10l70 494q18 9 31 9q25 0 25 -31q0 -5 -1 -13l-22 -154q58 4 94 4zM452 0l70 494q18 9 31 9q26 0 26 -31q0 -5 -1 -13l-65 -459h-61zM194 39q65 0 103 35.5t38 97.5q0 42 -28.5 65.5
t-81.5 23.5t-90 -4l-30 -215q41 -3 89 -3z" />
    <glyph glyph-name="uni0459.ss01" horiz-adv-x="725" 
d="M523 309q76 0 117.5 -33.5t41.5 -94.5q0 -87 -58 -139t-155 -52q-85 0 -144 10l61 442h-199l-56 -299q-22 -117 -120 -153l-19 46q65 27 82 119l65 338h315l-26 -188q58 4 95 4zM481 39q64 0 102 35.5t38 97.5q0 42 -28.5 65.5t-80.5 23.5q-54 0 -91 -4l-29 -215
q41 -3 89 -3z" />
    <glyph glyph-name="uni045A.ss01" horiz-adv-x="755" 
d="M553 309q76 0 117.5 -33.5t41.5 -94.5q0 -87 -58 -139t-155 -52q-85 0 -144 10l33 231h-255l-33 -231h-61l70 494q18 9 31 9q26 0 26 -31q0 -5 -1 -13l-25 -179h255l30 214q18 9 30 9q26 0 26 -31q0 -5 -1 -13l-22 -154q58 4 95 4zM511 39q64 0 102 35.5t38 97.5
q0 42 -28.5 65.5t-80.5 23.5q-54 0 -91 -4l-30 -215q41 -3 90 -3z" />
    <glyph glyph-name="uni0458.ss01" horiz-adv-x="218" 
d="M163 600q-37 0 -37 34q0 44 43 44q37 0 37 -34q0 -44 -43 -44zM-51 -240q59 0 98 42t49 116l80 575h-61l-79 -562q-17 -119 -93 -119q-33 0 -59 16l-20 -50q33 -18 85 -18z" />
    <glyph glyph-name="uni044E.loclBGR" horiz-adv-x="657" 
d="M450 503q78 0 120 -51t42 -143q0 -84 -25 -155.5t-78.5 -117.5t-125.5 -46q-77 0 -118.5 50.5t-41.5 143.5q0 16 2 46h-92l-32 -230h-61l109 771q15 9 31 9q25 0 25 -31q0 -5 -1 -13l-64 -456h92q20 99 76 161t142 62zM388 42q52 0 90 41.5t54.5 100.5t16.5 125
q0 68 -27.5 105t-78.5 37q-52 0 -89.5 -41.5t-54.5 -100.5t-17 -124q0 -68 27.5 -105.5t78.5 -37.5z" />
    <glyph glyph-name="zero.case" horiz-adv-x="570" 
d="M251 -10q-90 0 -138.5 68.5t-48.5 194.5q0 87 18 170t52 152.5t90 112t126 42.5q91 0 139.5 -68.5t48.5 -194.5q0 -118 -30.5 -223.5t-97.5 -179.5t-159 -74zM257 47q70 0 120.5 69t72.5 161.5t22 189.5q0 99 -33 152.5t-95 53.5q-53 0 -95.5 -40t-68 -103.5
t-38.5 -135.5t-13 -143q0 -98 33.5 -151t94.5 -53z" />
    <glyph glyph-name="one.case" horiz-adv-x="297" 
d="M274 720l-101 -720h-64l90 644l-112 -59l-17 52l154 83h50z" />
    <glyph glyph-name="two.case" horiz-adv-x="473" 
d="M257 282q-80 -64 -124.5 -115t-53.5 -113h320l-8 -54h-384l5 38q6 47 25 88.5t52.5 79t59 60.5t70.5 60q84 68 132 128t48 130q0 43 -25.5 66t-72.5 23q-91 0 -168 -72l-19 47q91 82 198 82q73 0 112.5 -37t39.5 -104q0 -39 -12.5 -76.5t-30 -65.5t-48 -60.5t-54.5 -53
t-62 -51.5z" />
    <glyph glyph-name="three.case" horiz-adv-x="484" 
d="M475 720l-5 -41l-237 -248q97 -31 149.5 -80t52.5 -123q0 -107 -69 -172.5t-182 -65.5q-110 0 -178 69l28 46q55 -58 152 -58q83 0 133 49.5t50 127.5q0 66 -55 105t-181 75l246 262h-252l7 54h341z" />
    <glyph glyph-name="four.case" horiz-adv-x="498" 
d="M471 244l-7 -54h-87l-26 -190h-64l26 190h-295l6 42l315 498l57 -15l-301 -471h227l23 157l65 25l-25 -182h86z" />
    <glyph glyph-name="five.case" horiz-adv-x="499" 
d="M469 666h-241l-56 -230l105 -4q84 -3 130 -49.5t46 -126.5q0 -120 -69.5 -193t-188.5 -73q-113 0 -186 74l35 46q64 -63 154 -63q88 0 138.5 56.5t50.5 145.5q0 60 -32 94t-91 35l-169 5l80 337h302z" />
    <glyph glyph-name="six.case" horiz-adv-x="522" 
d="M365 673q-87 0 -144 -78.5t-80 -199.5q72 48 153 48q85 0 131 -45.5t46 -129.5q0 -119 -64.5 -198.5t-173.5 -79.5q-82 0 -126.5 65.5t-44.5 185.5q0 90 19 175.5t55 156.5t95.5 114t132.5 43q89 0 152 -52l-25 -51q-47 46 -126 46zM281 389q-76 0 -149 -50
q-6 -51 -6 -99q0 -93 28.5 -143t82.5 -50q78 0 123.5 64t45.5 151q0 61 -32.5 94t-92.5 33z" />
    <glyph glyph-name="seven.case" horiz-adv-x="441" 
d="M484 720l-6 -44l-379 -705l-59 18l364 677h-323l8 54h395z" />
    <glyph glyph-name="eight.case" horiz-adv-x="535" 
d="M378 376q97 -37 97 -149q0 -107 -66 -172t-176 -65q-91 0 -140.5 43.5t-49.5 122.5q0 82 39.5 140t109.5 81q-79 36 -79 132q0 99 59.5 160t159.5 61q82 0 126.5 -40t44.5 -114q0 -72 -33 -124.5t-92 -75.5zM328 673q-70 0 -110 -46.5t-40 -118.5q0 -51 28.5 -78.5
t80.5 -27.5q69 0 109.5 47.5t40.5 118.5q0 51 -28 78t-81 27zM237 47q80 0 127 50.5t47 130.5q0 57 -33.5 88.5t-94.5 31.5q-80 0 -127 -51t-47 -131q0 -57 33.5 -88t94.5 -31z" />
    <glyph glyph-name="nine.case" horiz-adv-x="522" 
d="M318 730q83 0 126.5 -67.5t43.5 -193.5q0 -124 -30.5 -229.5t-100.5 -177.5t-169 -72q-89 0 -152 52l26 51q46 -46 126 -46q92 0 148 81t77 207q-72 -48 -154 -48q-85 0 -131 45t-46 128q0 116 64 193t172 77zM272 341q76 0 148 49q4 37 4 83q0 97 -28.5 148.5
t-82.5 51.5q-77 0 -121.5 -61t-44.5 -147q0 -59 32.5 -91.5t92.5 -32.5z" />
    <glyph glyph-name="zero.lf" horiz-adv-x="570" 
d="M251 -10q-90 0 -138.5 68.5t-48.5 194.5q0 87 18 170t52 152.5t90 112t126 42.5q91 0 139.5 -68.5t48.5 -194.5q0 -118 -30.5 -223.5t-97.5 -179.5t-159 -74zM257 47q70 0 120.5 69t72.5 161.5t22 189.5q0 99 -33 152.5t-95 53.5q-53 0 -95.5 -40t-68 -103.5
t-38.5 -135.5t-13 -143q0 -98 33.5 -151t94.5 -53z" />
    <glyph glyph-name="one.lf" horiz-adv-x="297" 
d="M274 720l-101 -720h-64l90 644l-112 -59l-17 52l154 83h50z" />
    <glyph glyph-name="two.lf" horiz-adv-x="473" 
d="M257 282q-80 -64 -124.5 -115t-53.5 -113h320l-8 -54h-384l5 38q6 47 25 88.5t52.5 79t59 60.5t70.5 60q84 68 132 128t48 130q0 43 -25.5 66t-72.5 23q-91 0 -168 -72l-19 47q91 82 198 82q73 0 112.5 -37t39.5 -104q0 -39 -12.5 -76.5t-30 -65.5t-48 -60.5t-54.5 -53
t-62 -51.5z" />
    <glyph glyph-name="three.lf" horiz-adv-x="484" 
d="M475 720l-5 -41l-237 -248q97 -31 149.5 -80t52.5 -123q0 -107 -69 -172.5t-182 -65.5q-110 0 -178 69l28 46q55 -58 152 -58q83 0 133 49.5t50 127.5q0 66 -55 105t-181 75l246 262h-252l7 54h341z" />
    <glyph glyph-name="four.lf" horiz-adv-x="498" 
d="M471 244l-7 -54h-87l-26 -190h-64l26 190h-295l6 42l315 498l57 -15l-301 -471h227l23 157l65 25l-25 -182h86z" />
    <glyph glyph-name="five.lf" horiz-adv-x="499" 
d="M469 666h-241l-56 -230l105 -4q84 -3 130 -49.5t46 -126.5q0 -120 -69.5 -193t-188.5 -73q-113 0 -186 74l35 46q64 -63 154 -63q88 0 138.5 56.5t50.5 145.5q0 60 -32 94t-91 35l-169 5l80 337h302z" />
    <glyph glyph-name="six.lf" horiz-adv-x="522" 
d="M365 673q-87 0 -144 -78.5t-80 -199.5q72 48 153 48q85 0 131 -45.5t46 -129.5q0 -119 -64.5 -198.5t-173.5 -79.5q-82 0 -126.5 65.5t-44.5 185.5q0 90 19 175.5t55 156.5t95.5 114t132.5 43q89 0 152 -52l-25 -51q-47 46 -126 46zM281 389q-76 0 -149 -50
q-6 -51 -6 -99q0 -93 28.5 -143t82.5 -50q78 0 123.5 64t45.5 151q0 61 -32.5 94t-92.5 33z" />
    <glyph glyph-name="seven.lf" horiz-adv-x="441" 
d="M484 720l-6 -44l-379 -705l-59 18l364 677h-323l8 54h395z" />
    <glyph glyph-name="eight.lf" horiz-adv-x="535" 
d="M378 376q97 -37 97 -149q0 -107 -66 -172t-176 -65q-91 0 -140.5 43.5t-49.5 122.5q0 82 39.5 140t109.5 81q-79 36 -79 132q0 99 59.5 160t159.5 61q82 0 126.5 -40t44.5 -114q0 -72 -33 -124.5t-92 -75.5zM328 673q-70 0 -110 -46.5t-40 -118.5q0 -51 28.5 -78.5
t80.5 -27.5q69 0 109.5 47.5t40.5 118.5q0 51 -28 78t-81 27zM237 47q80 0 127 50.5t47 130.5q0 57 -33.5 88.5t-94.5 31.5q-80 0 -127 -51t-47 -131q0 -57 33.5 -88t94.5 -31z" />
    <glyph glyph-name="nine.lf" horiz-adv-x="522" 
d="M318 730q83 0 126.5 -67.5t43.5 -193.5q0 -124 -30.5 -229.5t-100.5 -177.5t-169 -72q-89 0 -152 52l26 51q46 -46 126 -46q92 0 148 81t77 207q-72 -48 -154 -48q-85 0 -131 45t-46 128q0 116 64 193t172 77zM272 341q76 0 148 49q4 37 4 83q0 97 -28.5 148.5
t-82.5 51.5q-77 0 -121.5 -61t-44.5 -147q0 -59 32.5 -91.5t92.5 -32.5z" />
    <glyph glyph-name="zero.osf" horiz-adv-x="538" 
d="M235 -10q-86 0 -132.5 60t-46.5 170q0 102 28 189t88.5 145.5t144.5 58.5q87 0 133.5 -60.5t46.5 -169.5q0 -102 -28 -189t-89 -145.5t-145 -58.5zM238 42q63 0 109.5 54t67 129t20.5 157q0 86 -31.5 132.5t-90.5 46.5q-63 0 -109.5 -54.5t-66.5 -129.5t-20 -157
q0 -85 31.5 -131.5t89.5 -46.5z" />
    <glyph glyph-name="one.osf" horiz-adv-x="293" 
d="M259 603l-85 -603h-61l74 532l-112 -60l-18 48l152 83h50z" />
    <glyph glyph-name="two.osf" horiz-adv-x="473" 
d="M247 224q-51 -34 -79 -55t-56 -54t-34 -66h322l-7 -49h-385l5 36q5 36 22.5 67.5t51 62.5t56 48t68.5 49q95 66 125 99q51 55 51 113q0 41 -26 63.5t-72 22.5q-91 0 -170 -74l-20 44q91 82 198 82q72 0 111.5 -35.5t39.5 -99.5q0 -35 -12.5 -67t-27.5 -54t-47.5 -49.5
t-52 -41.5t-61.5 -42z" />
    <glyph glyph-name="three.osf" horiz-adv-x="480" 
d="M458 603l-6 -39l-242 -245q205 -66 205 -204q0 -105 -68.5 -170t-178.5 -65t-179 70l28 40q57 -58 153 -58q83 0 133.5 51.5t50.5 130.5q0 65 -55.5 104.5t-180.5 75.5l254 260h-261l7 49h340z" />
    <glyph glyph-name="four.osf" horiz-adv-x="487" 
d="M441 49l-6 -49h-86l-16 -110h-61l16 110h-299l5 37l330 576l53 -15l-318 -549h238l26 189l63 25l-30 -214h85z" />
    <glyph glyph-name="five.osf" horiz-adv-x="492" 
d="M450 554h-244l-57 -231l100 -4q87 -4 134 -49t47 -125q0 -120 -68 -192.5t-185 -72.5q-116 0 -187 74l34 41q62 -63 154 -63q88 0 139 58.5t51 148.5q0 61 -34 96t-96 36l-162 4l79 328h302z" />
    <glyph glyph-name="six.osf" horiz-adv-x="512" 
d="M362 678q-88 0 -145.5 -81t-81.5 -204q72 50 155 50t128.5 -45t45.5 -128q0 -119 -63.5 -199.5t-171.5 -80.5q-82 0 -125.5 65t-43.5 185q0 90 19 175.5t55 156.5t94.5 114.5t131.5 43.5q89 0 152 -52l-26 -45q-48 45 -124 45zM278 394q-78 0 -151 -52q-7 -49 -7 -104
q0 -94 29 -145t83 -51q79 0 125 67t46 156q0 62 -32.5 95.5t-92.5 33.5z" />
    <glyph glyph-name="seven.osf" horiz-adv-x="454" 
d="M476 603l-5 -39l-379 -703l-55 18l363 675h-327l7 49h396z" />
    <glyph glyph-name="eight.osf" 
d="M372 376q96 -37 96 -149q0 -107 -65 -172t-175 -65q-90 0 -139 43.5t-49 122.5q0 82 39.5 140t109.5 81q-77 35 -77 133q0 99 58 159.5t158 60.5q80 0 124 -40t44 -113t-32.5 -125.5t-91.5 -75.5zM323 678q-71 0 -111 -47t-40 -121q0 -53 28.5 -82t81.5 -29q71 0 111 48
t40 122q0 53 -28.5 81t-81.5 28zM233 42q81 0 127.5 51.5t46.5 133.5q0 59 -33.5 91.5t-95.5 32.5q-81 0 -127.5 -52.5t-46.5 -133.5q0 -59 33.5 -91t95.5 -32z" />
    <glyph glyph-name="nine.osf" horiz-adv-x="511" 
d="M297 613q82 0 126 -64t44 -182q0 -121 -32 -229.5t-102 -183t-166 -74.5q-89 0 -152 52l26 45q45 -45 125 -45q88 0 145 80.5t81 203.5q-73 -49 -154 -49q-85 0 -130.5 45t-45.5 127q0 117 64 195.5t171 78.5zM249 216q78 0 151 52q6 51 6 101q0 92 -29 142t-84 50
q-78 0 -123.5 -65.5t-45.5 -153.5q0 -60 32.5 -93t92.5 -33z" />
    <glyph glyph-name="zero.dnom" horiz-adv-x="367" 
d="M149 -6q-58 0 -88.5 42t-30.5 119q0 113 46.5 198t130.5 85q58 0 89 -42t31 -118q0 -71 -19 -134.5t-60.5 -106.5t-98.5 -43zM153 39q38 0 66 40t40 93t12 107t-17.5 84t-50.5 30q-56 0 -87 -76.5t-31 -164.5q0 -54 17.5 -83.5t50.5 -29.5z" />
    <glyph glyph-name="one.dnom" horiz-adv-x="213" 
d="M177 432l-61 -432h-54l52 369l-68 -35l-14 44l102 54h43z" />
    <glyph glyph-name="two.dnom" horiz-adv-x="311" 
d="M159 167q-31 -24 -48 -39t-33.5 -38t-19.5 -46h189l-7 -44h-243l4 29q5 38 26.5 73t42.5 54t56 47q31 25 49.5 42t35 44t16.5 54q0 50 -54 50q-49 0 -97 -41l-16 37q60 49 124 49q48 0 73.5 -23.5t25.5 -66.5q0 -38 -20 -73t-42 -56t-62 -52z" />
    <glyph glyph-name="three.dnom" horiz-adv-x="314" 
d="M287 432l-5 -35l-131 -137q113 -37 113 -120q0 -66 -43.5 -106t-114.5 -40q-68 0 -110 41l23 37q33 -33 88 -33q46 0 73.5 27t27.5 70q0 38 -32 60t-106 41l139 151h-143l7 44h214z" />
    <glyph glyph-name="four.dnom" horiz-adv-x="326" 
d="M289 152l-6 -44h-52l-15 -108h-54l15 108h-174l5 36l185 294l48 -13l-176 -273h122l12 84l53 20l-15 -104h52z" />
    <glyph glyph-name="five.dnom" horiz-adv-x="326" 
d="M284 388h-140l-32 -124l54 -2q53 -2 82.5 -30t29.5 -77q0 -73 -44 -117t-118 -44q-72 0 -119 46l28 36q38 -37 92 -37q49 0 77 30.5t28 79.5q0 68 -68 70l-107 3l51 210h192z" />
    <glyph glyph-name="six.dnom" horiz-adv-x="338" 
d="M220 393q-49 0 -81 -42.5t-45 -108.5q40 27 88 27q52 0 79.5 -28t27.5 -79q0 -73 -40.5 -120.5t-108.5 -47.5q-54 0 -82 40t-28 113q0 75 20 139.5t64 108t104 43.5q56 0 98 -33l-21 -39q-28 27 -75 27zM167 228q-42 0 -80 -27q-3 -28 -3 -55q0 -107 59 -107
q42 0 66.5 35.5t24.5 83.5q0 33 -17.5 51.5t-49.5 18.5z" />
    <glyph glyph-name="seven.dnom" horiz-adv-x="289" 
d="M294 432l-5 -36l-222 -413l-50 15l210 390h-186l6 44h247z" />
    <glyph glyph-name="eight.dnom" horiz-adv-x="346" 
d="M238 225q52 -24 52 -89t-41 -103.5t-110 -38.5q-58 0 -89.5 27t-31.5 75q0 97 83 131q-41 24 -41 78q0 61 37 97t100 36q52 0 81 -25t29 -70q0 -84 -69 -118zM193 393q-37 0 -58.5 -26t-21.5 -64q0 -28 15.5 -43t42.5 -15q37 0 58.5 26.5t21.5 64.5q0 57 -58 57zM143 39
q43 0 68.5 28t25.5 72q0 65 -69 65q-43 0 -68.5 -28t-25.5 -71q0 -31 18 -48.5t51 -17.5z" />
    <glyph glyph-name="nine.dnom" horiz-adv-x="338" 
d="M190 438q52 0 80.5 -41.5t28.5 -117.5q0 -119 -49 -202t-140 -83q-56 0 -96 33l21 39q27 -27 75 -27q53 0 84.5 44t43.5 114q-41 -28 -89 -28q-52 0 -80 27.5t-28 77.5q0 72 40.5 118t108.5 46zM162 210q43 0 81 28q2 28 2 44q0 111 -60 111q-41 0 -64.5 -33.5
t-23.5 -80.5q0 -69 65 -69z" />
    <glyph glyph-name="zero.numr" horiz-adv-x="367" 
d="M190 282q-58 0 -88.5 42t-30.5 119q0 113 46.5 198t130.5 85q58 0 89 -42t31 -118q0 -71 -19 -134.5t-60.5 -106.5t-98.5 -43zM194 327q38 0 66 40t40 93t12 107t-17.5 84t-50.5 30q-56 0 -87 -76.5t-31 -164.5q0 -54 17.5 -83.5t50.5 -29.5z" />
    <glyph glyph-name="one.numr" horiz-adv-x="213" 
d="M218 720l-61 -432h-54l52 369l-68 -35l-14 44l102 54h43z" />
    <glyph glyph-name="two.numr" horiz-adv-x="311" 
d="M200 455q-31 -24 -48 -39t-33.5 -38t-19.5 -46h189l-7 -44h-243l4 29q5 38 26.5 73t42.5 54t56 47q31 25 49.5 42t35 44t16.5 54q0 50 -54 50q-49 0 -97 -41l-16 37q60 49 124 49q48 0 73.5 -23.5t25.5 -66.5q0 -38 -20 -73t-42 -56t-62 -52z" />
    <glyph glyph-name="three.numr" horiz-adv-x="314" 
d="M328 720l-5 -35l-131 -137q113 -37 113 -120q0 -66 -43.5 -106t-114.5 -40q-68 0 -110 41l23 37q33 -33 88 -33q46 0 73.5 27t27.5 70q0 38 -32 60t-106 41l139 151h-143l7 44h214z" />
    <glyph glyph-name="four.numr" horiz-adv-x="326" 
d="M330 440l-6 -44h-52l-15 -108h-54l15 108h-174l5 36l185 294l48 -13l-176 -273h122l12 84l53 20l-15 -104h52z" />
    <glyph glyph-name="five.numr" horiz-adv-x="326" 
d="M324 676h-140l-32 -124l54 -2q53 -2 82.5 -30t29.5 -77q0 -73 -44 -117t-118 -44q-72 0 -119 46l28 36q38 -37 92 -37q49 0 77 30.5t28 79.5q0 68 -68 70l-107 3l51 210h192z" />
    <glyph glyph-name="six.numr" horiz-adv-x="338" 
d="M260 681q-49 0 -81 -42.5t-45 -108.5q40 27 88 27q52 0 79.5 -28t27.5 -79q0 -73 -40.5 -120.5t-108.5 -47.5q-54 0 -82 40t-28 113q0 75 20 139.5t64 108t104 43.5q56 0 98 -33l-21 -39q-28 27 -75 27zM207 516q-42 0 -80 -27q-3 -29 -3 -55q0 -107 59 -107
q42 0 66.5 35.5t24.5 83.5q0 33 -17.5 51.5t-49.5 18.5z" />
    <glyph glyph-name="seven.numr" horiz-adv-x="289" 
d="M334 720l-5 -36l-222 -413l-50 15l210 390h-186l6 44h247z" />
    <glyph glyph-name="eight.numr" horiz-adv-x="346" 
d="M279 513q52 -24 52 -89t-41 -103.5t-110 -38.5q-58 0 -89.5 27t-31.5 75q0 97 83 131q-41 24 -41 78q0 61 37 97t100 36q52 0 81 -25t29 -70q0 -84 -69 -118zM234 681q-37 0 -58.5 -26t-21.5 -64q0 -28 15.5 -43t42.5 -15q37 0 58.5 26.5t21.5 64.5q0 57 -58 57zM184 327
q43 0 68.5 28t25.5 72q0 65 -69 65q-43 0 -68.5 -28t-25.5 -71q0 -31 18 -48.5t51 -17.5z" />
    <glyph glyph-name="nine.numr" horiz-adv-x="338" 
d="M230 726q52 0 80.5 -41.5t28.5 -117.5q0 -119 -49 -202t-140 -83q-56 0 -96 33l21 39q27 -27 75 -27q53 0 84.5 44t43.5 114q-41 -28 -89 -28q-52 0 -80 27.5t-28 77.5q0 72 40.5 118t108.5 46zM202 498q43 0 81 28q2 28 2 44q0 111 -60 111q-41 0 -64.5 -33.5
t-23.5 -80.5q0 -69 65 -69z" />
    <glyph glyph-name="backslash.case" horiz-adv-x="312" 
d="M152 730l90 -733l-51 -7l-90 733z" />
    <glyph glyph-name="exclamdown.case" horiz-adv-x="237" 
d="M175 644q-40 0 -40 37q0 23 12.5 36t35.5 13q39 0 39 -37q0 -49 -47 -49zM188 542h-56l-80 -542h65z" />
    <glyph glyph-name="numbersign.case" horiz-adv-x="654" 
d="M642 489h-111l-55 -236h111l-15 -51h-108l-48 -202h-63l48 202h-195l-48 -202h-63l48 202h-111l13 51h110l57 236h-111l14 52h109l43 179h63l-42 -179h192l43 179h63l-42 -179h112zM413 252l56 238h-194l-58 -238h196z" />
    <glyph glyph-name="questiondown.case" horiz-adv-x="409" 
d="M306 730q40 0 40 -37q0 -49 -47 -49q-40 0 -40 37q0 23 12.5 36t34.5 13zM357 72q-84 -82 -181 -82q-72 0 -112 37.5t-40 104.5q0 70 31 122t92 115q33 34 49.5 53.5t34.5 53t23 68.5l55 -3q-7 -46 -28 -88t-38.5 -63.5t-51.5 -58.5q-50 -55 -75 -97t-25 -95
q0 -44 24.5 -68t69.5 -24q81 0 152 73z" />
    <glyph glyph-name="slash.case" horiz-adv-x="318" 
d="M297 730l46 -18l-291 -722l-46 18z" />
    <glyph glyph-name="numbersign.lf" horiz-adv-x="654" 
d="M642 489h-111l-55 -236h111l-15 -51h-108l-48 -202h-63l48 202h-195l-48 -202h-63l48 202h-111l13 51h110l57 236h-111l14 52h109l43 179h63l-42 -179h192l43 179h63l-42 -179h112zM413 252l56 238h-194l-58 -238h196z" />
    <glyph glyph-name="braceleft.case" horiz-adv-x="272" 
d="M268 780l23 -44q-51 -28 -64 -120l-21 -150q-11 -74 -76 -105q49 -23 49 -82q0 -7 -2 -21l-22 -149q-3 -19 -3 -36q0 -60 36 -85l-42 -48q-60 31 -60 113q0 17 3 38l22 156q1 9 1 19q0 31 -17 48.5t-47 17.5l8 57q76 0 87 81l21 158q16 113 104 152z" />
    <glyph glyph-name="braceright.case" horiz-adv-x="272" 
d="M35 -60l-23 44q51 28 64 120l21 150q11 74 76 105q-49 23 -49 82q0 7 2 21l22 149q3 19 3 36q0 60 -36 85l42 48q60 -31 60 -113q0 -17 -3 -38l-22 -156q-1 -9 -1 -19q0 -31 17 -48.5t47 -17.5l-8 -57q-76 0 -87 -81l-21 -158q-16 -113 -104 -152z" />
    <glyph glyph-name="bracketleft.case" horiz-adv-x="279" 
d="M304 716h-86l-99 -712h85l-7 -54h-150l115 820h150z" />
    <glyph glyph-name="bracketright.case" horiz-adv-x="279" 
d="M263 770l-115 -820h-150l8 54h86l99 712h-85l7 54h150z" />
    <glyph glyph-name="parenleft.case" horiz-adv-x="260" 
d="M181 -35q-53 127 -53 280q0 285 164 516l-49 19q-182 -250 -182 -543q0 -157 62 -297z" />
    <glyph glyph-name="parenright.case" horiz-adv-x="260" 
d="M110 755q53 -127 53 -280q0 -285 -164 -516l49 -19q182 250 182 543q0 157 -62 297z" />
    <glyph glyph-name="emdash.case" horiz-adv-x="788" 
d="M87 376h649l-9 -51h-647z" />
    <glyph glyph-name="endash.case" horiz-adv-x="533" 
d="M87 376h392l-7 -51h-392z" />
    <glyph glyph-name="hyphen.case" horiz-adv-x="373" 
d="M87 376h233l-8 -51h-232z" />
    <glyph glyph-name="uni00AD.case" horiz-adv-x="373" 
d="M87 376h233l-8 -51h-232z" />
    <glyph glyph-name="guillemotleft.case" horiz-adv-x="449" 
d="M61 350l165 216l39 -25l-124 -191l71 -191l-46 -25zM224 350l165 216l39 -25l-124 -191l71 -191l-46 -25z" />
    <glyph glyph-name="guillemotright.case" horiz-adv-x="449" 
d="M252 350l-166 -216l-38 25l125 191l-71 191l44 25zM415 350l-166 -216l-38 25l125 191l-71 191l44 25z" />
    <glyph glyph-name="guilsinglleft.case" horiz-adv-x="286" 
d="M61 350l165 216l39 -25l-124 -191l71 -191l-46 -25z" />
    <glyph glyph-name="guilsinglright.case" horiz-adv-x="286" 
d="M252 350l-166 -216l-38 25l125 191l-71 191l44 25z" />
    <glyph glyph-name="dollar.case" horiz-adv-x="483" 
d="M452 616q-51 48 -123 56l-38 -273q68 -30 105.5 -69t37.5 -111q0 -95 -53.5 -156.5t-146.5 -71.5l-15 -103h-45l14 102q-115 5 -176 65l28 51q53 -54 156 -59l42 297q-68 29 -105 66.5t-37 107.5q0 90 53 147.5t143 63.5l14 101h45l-14 -101q81 -7 148 -63zM157 530
q0 -76 91 -116l36 258q-59 -7 -93 -45.5t-34 -96.5zM373 202q0 83 -92 126l-39 -279q62 9 96.5 49.5t34.5 103.5z" />
    <glyph glyph-name="Euro.case" horiz-adv-x="596" 
d="M426 673q-83 0 -141.5 -60.5t-88.5 -159.5h257l-33 -50h-237q-8 -46 -10 -69h204l-34 -50h-173v-15q0 -106 42.5 -164t121.5 -58q95 0 175 73l24 -50q-44 -37 -99.5 -58.5t-103.5 -21.5q-108 0 -166.5 72t-58.5 204v18h-61l6 48h58q3 41 10 71h-56l6 48h61
q33 125 110 202t190 77q105 0 172 -57l-33 -46q-52 46 -142 46z" />
    <glyph glyph-name="uni20BD.case" horiz-adv-x="567" 
d="M293 292h-106l-10 -72h200l-7 -51h-200l-24 -169h-64l24 169h-66l7 51h66l10 72h-66l8 54h66l52 374q115 10 181 10q100 0 154.5 -45.5t54.5 -128.5q0 -118 -76.5 -191t-203.5 -73zM240 672l-45 -326h109q92 0 147 55t55 147q0 61 -40.5 94.5t-114.5 33.5q-35 0 -111 -4z
" />
    <glyph glyph-name="uni20B9.case" horiz-adv-x="525" 
d="M553 720l-7 -50h-150q61 -39 61 -124h71l-7 -50h-72q-28 -106 -152 -146q119 -29 119 -144q0 -17 -2 -32l-17 -124q-2 -16 -2 -21q0 -12 5 -29q-20 -10 -42 -10q-27 0 -27 34q0 7 1 14l17 128q2 14 2 29q0 59 -37 92t-104 33h-138l8 50h106q76 0 128.5 32.5t68.5 93.5
h-286l7 50h285v2q0 58 -40.5 90t-115.5 32h-111l7 50h424z" />
    <glyph glyph-name="sterling.case" horiz-adv-x="520" 
d="M373 673q-133 0 -154 -143l-19 -135h233l-8 -55h-233l-27 -194q-7 -57 -34 -91h314l-8 -55h-426l7 52h17q25 0 43 25.5t24 68.5l27 194h-67l8 55h67l21 153q12 87 65 134.5t136 47.5q102 0 169 -29l-14 -54q-55 26 -141 26z" />
    <glyph glyph-name="yen.case" horiz-adv-x="553" 
d="M591 717l-274 -402h149l-8 -56h-151l-36 -259h-64l36 259h-148l8 56h148l-163 404q14 11 33 11q37 0 50 -34l94 -241l31 -85l50 82l183 278z" />
    <glyph glyph-name="dollar.lf" horiz-adv-x="483" 
d="M452 616q-51 48 -123 56l-38 -273q68 -30 105.5 -69t37.5 -111q0 -95 -53.5 -156.5t-146.5 -71.5l-15 -103h-45l14 102q-115 5 -176 65l28 51q53 -54 156 -59l42 297q-68 29 -105 66.5t-37 107.5q0 90 53 147.5t143 63.5l14 101h45l-14 -101q81 -7 148 -63zM157 530
q0 -76 91 -116l36 258q-59 -7 -93 -45.5t-34 -96.5zM373 202q0 83 -92 126l-39 -279q62 9 96.5 49.5t34.5 103.5z" />
    <glyph glyph-name="Euro.lf" horiz-adv-x="596" 
d="M426 673q-83 0 -141.5 -60.5t-88.5 -159.5h257l-33 -50h-237q-8 -46 -10 -69h204l-34 -50h-173v-15q0 -106 42.5 -164t121.5 -58q95 0 175 73l24 -50q-44 -37 -99.5 -58.5t-103.5 -21.5q-108 0 -166.5 72t-58.5 204v18h-61l6 48h58q3 41 10 71h-56l6 48h61
q33 125 110 202t190 77q105 0 172 -57l-33 -46q-52 46 -142 46z" />
    <glyph glyph-name="uni20BD.lf" horiz-adv-x="567" 
d="M293 292h-106l-10 -72h200l-7 -51h-200l-24 -169h-64l24 169h-66l7 51h66l10 72h-66l8 54h66l52 374q115 10 181 10q100 0 154.5 -45.5t54.5 -128.5q0 -118 -76.5 -191t-203.5 -73zM240 672l-45 -326h109q92 0 147 55t55 147q0 61 -40.5 94.5t-114.5 33.5q-35 0 -111 -4z
" />
    <glyph glyph-name="uni20B9.lf" horiz-adv-x="525" 
d="M553 720l-7 -50h-150q61 -39 61 -124h71l-7 -50h-72q-28 -106 -152 -146q119 -29 119 -144q0 -17 -2 -32l-17 -124q-2 -16 -2 -21q0 -12 5 -29q-20 -10 -42 -10q-27 0 -27 34q0 7 1 14l17 128q2 14 2 29q0 59 -37 92t-104 33h-138l8 50h106q76 0 128.5 32.5t68.5 93.5
h-286l7 50h285v2q0 58 -40.5 90t-115.5 32h-111l7 50h424z" />
    <glyph glyph-name="sterling.lf" horiz-adv-x="520" 
d="M373 673q-133 0 -154 -143l-19 -135h233l-8 -55h-233l-27 -194q-7 -57 -34 -91h314l-8 -55h-426l7 52h17q25 0 43 25.5t24 68.5l27 194h-67l8 55h67l21 153q12 87 65 134.5t136 47.5q102 0 169 -29l-14 -54q-55 26 -141 26z" />
    <glyph glyph-name="yen.lf" horiz-adv-x="553" 
d="M591 717l-274 -402h149l-8 -56h-151l-36 -259h-64l36 259h-148l8 56h148l-163 404q14 11 33 11q37 0 50 -34l94 -241l31 -85l50 82l183 278z" />
    <glyph glyph-name="divide.case" horiz-adv-x="470" 
d="M264 441q-37 0 -37 34q0 22 12 33.5t31 11.5q37 0 37 -34q0 -22 -12 -33.5t-31 -11.5zM84 376h335l-6 -48h-336zM228 184q-37 0 -37 34q0 22 12 33.5t31 11.5q37 0 37 -34q0 -22 -12 -33.5t-31 -11.5z" />
    <glyph glyph-name="equal.case" horiz-adv-x="478" 
d="M97 441h335l-6 -48h-336zM78 311h335l-6 -48h-336z" />
    <glyph glyph-name="greater.case" horiz-adv-x="442" 
d="M419 377l-2 -18l-4 -31l-360 -170l7 51l307 144l-267 144l7 51z" />
    <glyph glyph-name="greaterequal.case" horiz-adv-x="489" 
d="M446 442l-2 -17l-5 -31l-357 -154l7 50l300 128l-265 129l7 51zM62 100l7 49h336l-7 -49h-336z" />
    <glyph glyph-name="less.case" horiz-adv-x="441" 
d="M417 548l-7 -51l-307 -145l266 -143l-7 -51l-312 170l4 32h1l2 17z" />
    <glyph glyph-name="lessequal.case" horiz-adv-x="493" 
d="M460 598l-7 -51l-302 -129l266 -128l-7 -50l-315 154l4 29l3 19zM54 100l7 49h336l-7 -49h-336z" />
    <glyph glyph-name="logicalnot.case" horiz-adv-x="475" 
d="M429 439l-3 -22l-21 -150h-61l17 123h-275l7 49h336z" />
    <glyph glyph-name="minus.case" horiz-adv-x="476" 
d="M87 376h335l-6 -48h-336z" />
    <glyph glyph-name="multiply.case" horiz-adv-x="449" 
d="M425 491l-149 -144l109 -143l-45 -40l-108 141l-147 -141l-35 40l149 144l-109 143l45 40l108 -141l147 141z" />
    <glyph glyph-name="notequal.case" horiz-adv-x="478" 
d="M427 393h-138l-33 -82h158l-6 -48h-171l-66 -163h-39l65 163h-125l7 48h137l33 82h-158l7 48h170l61 152h41l-61 -152h124z" />
    <glyph glyph-name="percent.case" horiz-adv-x="651" 
d="M62 19l519 711l36 -29l-519 -711zM183 360q-50 0 -76.5 35.5t-26.5 100.5q0 94 39 164t110 70q50 0 77 -36t27 -101q0 -92 -40 -162.5t-110 -70.5zM186 403q45 0 70 62t25 132q0 90 -55 90q-45 0 -70 -61.5t-25 -130.5q0 -44 14.5 -68t40.5 -24zM452 -10
q-50 0 -76.5 35.5t-26.5 100.5q0 94 39 164t110 70q50 0 77 -36t27 -101q0 -92 -40 -162.5t-110 -70.5zM455 33q45 0 70 62t25 132q0 90 -55 90q-45 0 -70 -61.5t-25 -130.5q0 -44 14.5 -68t40.5 -24z" />
    <glyph glyph-name="perthousand.case" horiz-adv-x="929" 
d="M62 19l519 711l36 -29l-519 -711zM183 360q-50 0 -76.5 35.5t-26.5 100.5q0 94 39 164t110 70q50 0 77 -36t27 -101q0 -92 -40 -162.5t-110 -70.5zM186 403q45 0 70 62t25 132q0 90 -55 90q-45 0 -70 -61.5t-25 -130.5q0 -44 14.5 -68t40.5 -24zM452 -10
q-50 0 -76.5 35.5t-26.5 100.5q0 94 39 164t110 70q50 0 77 -36t27 -101q0 -92 -40 -162.5t-110 -70.5zM739 -10q-50 0 -76.5 35.5t-26.5 100.5q0 94 39 164t110 70q50 0 77 -36t27 -101q0 -92 -40 -162.5t-110 -70.5zM455 33q45 0 70 62t25 132q0 90 -55 90
q-45 0 -70 -61.5t-25 -130.5q0 -44 14.5 -68t40.5 -24zM742 33q45 0 70 62t25 132q0 90 -55 90q-45 0 -70 -61.5t-25 -130.5q0 -44 14.5 -68t40.5 -24z" />
    <glyph glyph-name="plus.case" horiz-adv-x="423" 
d="M397 376l-6 -48h-138l-22 -161h-62l23 161h-137l7 48h136l23 161h61l-22 -161h137z" />
    <glyph glyph-name="plusminus.case" horiz-adv-x="503" 
d="M308 440h155l-7 -49h-154l-21 -153h-62l21 153h-154l7 49h154l21 153h61zM62 100l7 48h335l-6 -48h-336z" />
    <glyph glyph-name="brevecombcy" horiz-adv-x="0" 
d="M26 708q-8 -59 -45 -91t-96 -32q-54 0 -83.5 26t-29.5 73q0 8 2 24h46q-1 -6 -1 -16q0 -61 68 -61q38 0 63 20.5t29 56.5h47z" />
    <glyph glyph-name="brevecy" horiz-adv-x="331" 
d="M342 708q-8 -59 -45 -91t-96 -32q-54 0 -83.5 26t-29.5 73q0 8 2 24h46q-1 -6 -1 -16q0 -61 68 -61q38 0 63 20.5t29 56.5h47z" />
    </font>
</defs>
</svg>
